ply
format ascii 1.0
element vertex 349
property float x
property float y
property float z
element face 484
property list uchar int vertex_indices
end_header
0.488445 0.297783 0.209139
0.478031 0.297822 0.209043
0.429456 0.297264 0.207985
0.594288 0.0513893 0.0545713
0.422813 0.297587 0.208077
0.534047 0.0526757 0.0561331
0.537616 0.0527848 0.0561315
0.542617 0.0527895 0.0560389
0.547821 0.0527352 0.0559015
0.29155 0.296337 0.207044
0.561619 0.0523835 0.0554393
0.12806 0.210538 0.156467
0.618458 0.0532598 0.0560506
0.607306 0.295141 0.208229
0.602494 0.295164 0.208232
0.592464 0.295184 0.20823
0.444195 0.296569 0.207776
0.417095 0.296678 0.2074
0.481698 0.055008 0.0583345
0.494503 0.0547092 0.058038
0.497263 0.0541041 0.0576233
0.502088 0.0539952 0.0575013
0.127987 0.166801 0.128061
0.313943 0.299334 0.208581
0.12772 0.212436 0.157681
0.623559 0.0542521 0.0568124
0.626962 0.0544151 0.056979
0.638429 0.0547362 0.0573818
0.642304 0.054123 0.0570464
0.662266 0.0542249 0.0573914
0.666282 0.0538996 0.057209
0.68356 0.0542017 0.0574078
0.687185 0.0541596 0.0573558
0.692676 0.0538388 0.0570881
0.702546 0.0544151 0.0573394
0.707361 0.0543464 0.057208
0.71268 0.0540454 0.0569044
0.25732 0.306358 0.202801
0.543689 0.29569 0.208334
0.473318 0.299086 0.209803
0.72954 0.117702 0.0958312
0.726268 0.233614 0.170934
0.384803 0.299745 0.208827
0.579941 0.281934 0.199702
0.126415 0.220215 0.162673
0.357678 0.0536053 0.058662
0.49258 0.296825 0.208564
0.442208 0.296498 0.2077
0.459458 0.0557898 0.0589198
0.703226 0.195273 0.146405
0.296808 0.296968 0.207361
0.272728 0.297748 0.205757
0.427753 0.0543332 0.0581765
0.35099 0.300354 0.209004
0.487433 0.0543138 0.0578512
0.726035 0.199821 0.149139
0.502013 0.296877 0.2087
0.360175 0.157499 0.120995
0.128779 0.296269 0.208438
0.527527 0.0539846 0.0571105
0.724203 0.240076 0.175096
0.127147 0.265775 0.191101
0.73121 0.0910872 0.0786662
0.13758 0.0579071 0.0618212
0.725496 0.0551054 0.0573314
0.157636 0.0568739 0.0612312
0.167714 0.056683 0.0611275
0.172606 0.0564923 0.0610176
0.182837 0.0561166 0.0608028
0.232422 0.0554918 0.0604096
0.594548 0.195632 0.146056
0.297939 0.0553387 0.060171
0.302568 0.0554108 0.0601942
0.27263 0.306703 0.202639
0.418983 0.0562383 0.0593983
0.58289 0.29503 0.208106
0.36713 0.0548373 0.0592567
0.726428 0.282804 0.201939
0.512663 0.0538678 0.0572824
0.550607 0.295907 0.208524
0.127526 0.14621 0.115045
0.512485 0.296146 0.208335
0.393972 0.099831 0.0857777
0.725629 0.289104 0.205899
0.205668 0.170614 0.129956
0.635259 0.295825 0.208772
0.147028 0.308461 0.205719
0.717598 0.296092 0.2098
0.222604 0.0530765 0.0589883
0.338832 0.0772675 0.0728445
0.127969 0.271436 0.194424
0.267271 0.0546369 0.0598423
0.497471 0.297635 0.209144
0.197812 0.31018 0.203092
0.726421 0.0513539 0.0547939
0.127559 0.172693 0.131856
0.282657 0.0545711 0.0597673
0.600922 0.0512125 0.054487
0.13724 0.308448 0.205948
0.392986 0.0549785 0.0589534
0.34255 0.0578795 0.0613676
0.363578 0.300636 0.209199
0.372368 0.0554141 0.0595176
0.131017 0.0799166 0.0750622
0.729005 0.104167 0.0873753
0.726873 0.19385 0.144842
0.126439 0.139725 0.110985
0.571064 0.173877 0.132552
0.21245 0.0543551 0.0597568
0.234152 0.305311 0.203341
0.192472 0.0579779 0.0619202
0.197401 0.0582711 0.0620961
0.202699 0.0577628 0.0617918
0.216567 0.228851 0.166227
0.272727 0.0548069 0.059931
0.237745 0.0576678 0.0616948
0.242643 0.0581817 0.0619903
0.252313 0.0580931 0.061918
0.257298 0.057994 0.0618485
0.277575 0.0550106 0.0600392
0.233191 0.0975716 0.085656
0.317591 0.0581757 0.0617467
0.322556 0.0577933 0.061489
0.282972 0.300465 0.204791
0.297496 0.138959 0.110069
0.581395 0.0514184 0.0545965
0.253488 0.243973 0.175715
0.128964 0.233927 0.171599
0.162028 0.309078 0.205096
0.247103 0.305963 0.202994
0.132495 0.0890703 0.0804976
0.127892 0.151684 0.118472
0.12992 0.305724 0.206659
0.147392 0.0578813 0.0618167
0.668949 0.245819 0.177627
0.638632 0.227899 0.166155
0.228442 0.195794 0.144977
0.194951 0.111553 0.0939795
0.652311 0.0505078 0.0547381
0.12762 0.206839 0.154029
0.279344 0.22151 0.161185
0.34754 0.0580982 0.0614429
0.726094 0.227729 0.167158
0.275957 0.115703 0.0959959
0.667877 0.211743 0.15659
0.669191 0.295545 0.208877
0.648592 0.280198 0.198924
0.27713 0.302353 0.204138
0.689576 0.273772 0.196199
0.407526 0.0582426 0.0607176
0.725849 0.0633754 0.0619228
0.12852 0.277654 0.19801
0.243718 0.0654382 0.0664729
0.462905 0.298285 0.20915
0.465208 0.0699713 0.0676336
0.615141 0.13728 0.110631
0.131919 0.0611701 0.0637572
0.128165 0.170561 0.130488
0.127932 0.157834 0.122357
0.711946 0.295733 0.209503
0.72677 0.0671773 0.064193
0.127143 0.225379 0.166021
0.548584 0.0614033 0.0616257
0.535609 0.180872 0.136464
0.39026 0.206523 0.151015
0.632236 0.295551 0.20858
0.617414 0.29574 0.208639
0.402638 0.0580311 0.0606463
0.559743 0.209664 0.154516
0.653372 0.295951 0.20898
0.649306 0.0505847 0.0547454
0.672862 0.295415 0.208835
0.707777 0.294763 0.208839
0.35756 0.299443 0.208463
0.337467 0.0579275 0.0614481
0.127878 0.26197 0.188901
0.132676 0.063752 0.0652945
0.128894 0.242873 0.177311
0.249952 0.215445 0.15752
0.254036 0.306718 0.202684
0.206904 0.307481 0.203474
0.72403 0.255214 0.184666
0.131194 0.104937 0.0898958
0.629318 0.200947 0.149519
0.152365 0.308178 0.205642
0.587994 0.0510463 0.054333
0.212597 0.305099 0.204039
0.127755 0.197382 0.147854
0.128702 0.259606 0.187555
0.224564 0.138089 0.109756
0.310517 0.0711056 0.0694038
0.578364 0.13783 0.109922
0.127644 0.142451 0.112704
0.613135 0.284817 0.201632
0.725209 0.279663 0.199991
0.722252 0.0509496 0.0546193
0.129252 0.284128 0.2017
0.128793 0.194318 0.145869
0.132462 0.0958069 0.0844837
0.128745 0.160366 0.123972
0.131586 0.0705116 0.0695107
0.728261 0.16819 0.127928
0.132317 0.0923466 0.0824329
0.702483 0.29277 0.207513
0.59034 0.0622194 0.0618781
0.128291 0.287103 0.203316
0.47252 0.0537879 0.0576196
0.729392 0.0949412 0.081447
0.327165 0.146005 0.11417
0.262297 0.0860707 0.07876
0.367313 0.299823 0.208728
0.128626 0.246346 0.179459
0.310911 0.230714 0.16676
0.265889 0.148661 0.115909
0.127481 0.291204 0.205563
0.132438 0.0729042 0.0709361
0.457568 0.297428 0.208523
0.655642 0.0594435 0.0608574
0.622334 0.295801 0.208696
0.299613 0.167555 0.127245
0.705786 0.248081 0.179962
0.722485 0.249007 0.180778
0.304417 0.199182 0.146656
0.727179 0.188563 0.14131
0.728482 0.153775 0.118704
0.627612 0.254245 0.18233
0.285676 0.2537 0.181655
0.332237 0.0578651 0.061458
0.129328 0.123714 0.101175
0.728159 0.113751 0.0935706
0.137596 0.25643 0.185684
0.705942 0.225234 0.16525
0.132707 0.0981311 0.0858672
0.250577 0.123776 0.100973
0.731474 0.0804713 0.0718359
0.501779 0.184955 0.138527
0.453429 0.237055 0.170377
0.731263 0.0881986 0.0768181
0.132581 0.0773737 0.0735806
0.267854 0.188656 0.140378
0.331662 0.178443 0.133722
0.727036 0.17695 0.133718
0.391446 0.173142 0.130517
0.716274 0.0732103 0.0697576
0.473955 0.187956 0.139967
0.140792 0.164776 0.126357
0.727345 0.174529 0.132115
0.684995 0.0730232 0.0700752
0.455622 0.260448 0.184887
0.142833 0.194329 0.145312
0.240317 0.169025 0.12858
0.156847 0.287003 0.203927
0.51427 0.155415 0.120454
0.627071 0.0642244 0.0636459
0.42126 0.189687 0.140558
0.396933 0.067445 0.0663384
0.642149 0.147686 0.11843
0.728061 0.162424 0.124262
0.33595 0.209186 0.152796
0.596611 0.259653 0.185551
0.562113 0.250238 0.179622
0.35665 0.116228 0.0960802
0.126684 0.133789 0.107312
0.127203 0.13076 0.105455
0.185552 0.202411 0.14966
0.183327 0.226907 0.165532
0.728866 0.126192 0.101276
0.603262 0.115813 0.096703
0.525753 0.0775381 0.0724171
0.495699 0.0631547 0.0634037
0.34313 0.239889 0.172212
0.728149 0.101064 0.0855647
0.38269 0.244749 0.174841
0.170694 0.175481 0.132783
0.21311 0.0647019 0.0660173
0.73183 0.0833818 0.0736305
0.412429 0.0582002 0.0606417
0.152442 0.0579539 0.0618666
0.147158 0.222977 0.165068
0.432452 0.0540418 0.0579671
0.422909 0.0540719 0.0580602
0.452778 0.297046 0.208211
0.395836 0.299053 0.208546
0.448473 0.296307 0.207669
0.597351 0.295389 0.208372
0.432739 0.297989 0.208505
0.202338 0.288935 0.203912
0.534008 0.232689 0.168321
0.508169 0.234339 0.169081
0.600977 0.228047 0.165915
0.362876 0.217917 0.158059
0.425797 0.0764968 0.0715693
0.570038 0.0950522 0.0835205
0.715648 0.0987448 0.0865927
0.420861 0.224402 0.16215
0.277154 0.0658054 0.0664115
0.520668 0.209257 0.153778
0.4845 0.215662 0.157236
0.181789 0.253423 0.182677
0.48206 0.254381 0.181242
0.519439 0.26195 0.186397
0.613406 0.0900588 0.0807187
0.450905 0.20444 0.149941
0.316064 0.26371 0.186938
0.68286 0.107251 0.0925419
0.459205 0.105812 0.0895633
0.494484 0.0946347 0.0831552
0.426431 0.265625 0.187931
0.362135 0.190451 0.140998
0.132584 0.107893 0.0916806
0.225268 0.266097 0.189742
0.289934 0.0925028 0.0821166
0.185009 0.0744674 0.0717369
0.367595 0.0761375 0.0718656
0.132601 0.111993 0.0941367
0.349956 0.275809 0.194292
0.460525 0.285899 0.201117
0.706769 0.172229 0.13189
0.650243 0.0850583 0.0782266
0.662988 0.176333 0.135555
0.613036 0.16704 0.128771
0.313716 0.109757 0.0922912
0.546075 0.153663 0.119733
0.450909 0.173674 0.130904
0.492565 0.287155 0.202339
0.48101 0.1623 0.124219
0.720108 0.155299 0.121196
0.132544 0.117428 0.0974123
0.435992 0.292226 0.204869
0.14537 0.0783825 0.074226
0.292314 0.284127 0.199889
0.259818 0.281682 0.198737
0.726201 0.14875 0.115841
0.531209 0.120694 0.0992616
0.640538 0.11734 0.0998063
0.45482 0.141672 0.111279
0.422627 0.156175 0.120235
0.424808 0.120132 0.0980133
0.48931 0.130305 0.104642
0.15012 0.109084 0.092301
0.727787 0.12903 0.103228
0.728412 0.135966 0.107498
0.544691 0.280158 0.198387
0.726632 0.143204 0.112305
0.176053 0.144269 0.113738
0.135333 0.138605 0.110269
0.688439 0.142069 0.113679
0.391699 0.137822 0.108868
0.38521 0.28504 0.199761
3 86 98 205
3 10 162 8
3 233 143 213
3 329 238 215
3 312 67 68
3 76 313 141
3 265 264 113
3 346 340 341
3 93 128 251
3 251 286 93
3 152 274 88
3 23 50 330
3 242 57 347
3 300 342 81
3 102 255 313
3 227 89 190
3 126 226 331
3 329 277 65
3 311 190 321
3 339 312 137
3 232 198 329
3 61 175 230
3 339 327 314
3 143 321 124
3 255 99 167
3 213 239 250
3 120 312 274
3 82 337 347
3 136 113 264
3 208 219 124
3 17 348 307
3 151 90 230
3 321 208 124
3 316 216 281
3 270 290 272
3 270 315 303
3 265 298 278
3 214 205 58
3 274 108 88
3 113 136 178
3 209 143 120
3 273 245 344
3 312 110 111
3 289 70 183
3 330 50 9
3 222 258 212
3 212 258 270
3 310 331 109
3 251 128 184
3 278 127 161
3 164 254 294
3 251 184 86
3 286 186 180
3 89 321 190
3 205 196 251
3 336 323 254
3 129 109 331
3 272 315 270
3 316 328 307
3 245 95 157
3 341 343 326
3 318 217 247
3 255 82 313
3 307 328 17
3 230 251 151
3 49 105 55
3 134 135 144
3 107 320 70
3 137 344 339
3 215 200 133
3 43 193 284
3 330 226 303
3 243 237 207
3 251 86 205
3 329 312 339
3 307 236 248
3 225 134 146
3 284 15 43
3 193 13 14
3 172 194 77
3 203 148 194
3 43 259 193
3 55 231 49
3 194 148 181
3 107 70 168
3 171 148 203
3 49 144 319
3 74 280 52
3 155 320 191
3 154 279 48
3 111 112 274
3 291 276 74
3 162 59 5
3 137 189 344
3 18 54 269
3 12 253 204
3 346 334 304
3 253 217 318
3 339 344 345
3 334 155 267
3 176 63 133
3 268 162 292
3 152 117 118
3 162 5 6
3 256 155 334
3 209 295 311
3 291 74 52
3 152 115 116
3 274 112 108
3 304 334 318
3 295 118 91
3 312 329 66
3 88 69 152
3 63 176 156
3 66 67 312
3 295 91 114
3 141 45 76
3 118 295 152
3 115 152 69
3 200 176 133
3 133 329 215
3 133 277 329
3 329 103 238
3 209 120 152
3 295 119 96
3 178 140 126
3 117 152 116
3 188 211 230
3 295 96 71
3 220 221 181
3 248 316 307
3 233 189 120
3 304 318 247
3 261 321 89
3 190 295 71
3 149 276 255
3 154 206 18
3 154 269 306
3 174 100 89
3 313 76 102
3 255 167 149
3 33 34 243
3 248 236 299
3 295 114 119
3 102 99 255
3 328 283 16
3 47 328 16
3 121 122 190
3 329 198 202
3 313 89 141
3 227 174 89
3 100 141 89
3 273 264 249
3 298 286 251
3 190 122 227
3 210 101 173
3 348 210 173
3 291 337 82
3 261 89 313
3 208 261 57
3 81 56 324
3 301 204 253
3 274 152 120
3 189 250 84
3 339 309 182
3 120 143 233
3 11 249 278
3 68 110 312
3 232 329 339
3 329 202 130
3 311 143 209
3 339 182 232
3 329 130 103
3 111 274 312
3 301 267 292
3 278 44 24
3 345 228 327
3 245 345 344
3 345 263 228
3 310 109 286
3 286 298 310
3 339 314 309
3 132 58 205
3 120 189 137
3 71 72 190
3 295 190 311
3 82 347 261
3 213 143 124
3 82 255 291
3 336 242 347
3 261 313 82
3 305 291 154
3 337 336 347
3 175 188 230
3 348 42 210
3 72 121 190
3 321 261 208
3 187 197 249
3 261 347 57
3 335 337 305
3 126 113 178
3 263 345 262
3 213 189 233
3 199 158 245
3 245 22 199
3 301 253 318
3 345 192 106
3 327 339 345
3 345 106 262
3 345 131 80
3 329 65 66
3 245 157 22
3 213 250 189
3 57 240 208
3 84 344 189
3 278 24 11
3 308 290 258
3 254 302 294
3 109 186 286
3 208 240 219
3 222 239 219
3 127 278 230
3 226 212 303
3 307 348 272
3 240 57 308
3 213 124 219
3 345 245 158
3 301 318 334
3 334 267 301
3 113 126 310
3 316 281 283
3 345 80 192
3 249 197 95
3 158 131 345
3 344 84 273
3 95 245 249
3 298 230 278
3 230 177 127
3 230 211 177
3 90 61 230
3 226 126 140
3 303 23 330
3 17 282 348
3 298 113 310
3 330 331 226
3 53 23 315
3 164 242 254
3 331 310 126
3 278 264 265
3 23 303 315
3 173 315 348
3 315 272 348
3 179 331 123
3 331 179 129
3 278 161 44
3 282 42 348
3 98 132 205
3 9 123 330
3 251 230 298
3 113 298 265
3 140 212 226
3 286 180 93
3 17 328 4
3 212 140 222
3 315 173 53
3 123 147 51
3 37 51 73
3 51 147 73
3 330 123 331
3 123 37 179
3 123 51 37
3 251 196 151
3 242 336 254
3 297 288 299
3 290 308 164
3 107 322 191
3 252 333 322
3 260 287 168
3 164 294 272
3 84 250 136
3 239 222 140
3 249 245 273
3 239 178 136
3 84 136 264
3 249 264 278
3 273 84 264
3 239 136 250
3 249 139 187
3 249 11 139
3 140 178 239
3 308 57 242
3 240 222 219
3 307 272 294
3 242 164 308
3 239 213 219
3 308 258 240
3 258 222 240
3 270 303 212
3 258 290 270
3 290 164 272
3 297 296 288
3 288 296 287
3 134 225 135
3 236 297 299
3 287 260 300
3 168 287 296
3 297 302 244
3 244 325 235
3 168 296 163
3 146 85 165
3 302 236 294
3 323 244 302
3 297 236 302
3 302 254 323
3 296 297 235
3 244 235 297
3 163 235 252
3 163 296 235
3 168 163 107
3 135 225 289
3 70 320 183
3 183 320 319
3 326 201 246
3 49 231 144
3 183 144 135
3 231 220 134
3 144 231 134
3 223 105 49
3 246 241 317
3 326 332 224
3 207 237 62
3 246 317 326
3 223 49 317
3 333 252 338
3 172 87 159
3 346 319 256
3 319 317 49
3 326 224 257
3 104 229 293
3 317 241 223
3 172 83 87
3 326 343 332
3 183 319 144
3 183 135 289
3 81 324 300
3 168 70 289
3 231 55 142
3 289 259 260
3 43 342 260
3 166 13 193
3 172 77 83
3 134 148 146
3 193 14 284
3 193 225 146
3 316 39 153
3 342 43 79
3 259 43 260
3 299 316 248
3 152 295 209
3 342 38 81
3 306 269 268
3 306 305 154
3 283 328 316
3 328 285 2
3 39 316 1
3 38 342 79
3 328 47 285
3 328 2 4
3 1 316 324
3 56 92 324
3 316 153 216
3 324 92 46
3 324 46 0
3 324 0 1
3 300 288 287
3 148 145 146
3 43 75 79
3 194 172 203
3 169 85 146
3 193 218 166
3 165 193 146
3 15 75 43
3 145 169 146
3 148 171 145
3 193 165 218
3 225 193 259
3 181 148 220
3 225 259 289
3 134 220 148
3 220 231 60
3 231 41 60
3 207 293 243
3 342 300 260
3 299 288 300
3 300 324 299
3 307 294 236
3 324 316 299
3 168 289 260
3 231 142 41
3 60 221 220
3 334 346 256
3 326 317 346
3 320 107 191
3 252 325 338
3 323 336 335
3 335 325 323
3 338 325 335
3 306 338 305
3 292 204 301
3 257 201 326
3 333 191 322
3 235 325 252
3 325 244 323
3 322 107 163
3 322 163 252
3 338 306 333
3 317 319 346
3 256 319 320
3 320 155 256
3 341 326 346
3 191 267 155
3 40 266 340
3 275 237 243
3 340 229 40
3 335 305 338
3 336 337 335
3 291 305 337
3 333 306 268
3 267 191 292
3 293 229 340
3 333 292 191
3 293 207 271
3 304 340 346
3 340 304 293
3 125 204 10
3 204 3 97
3 36 64 150
3 150 243 35
3 293 271 104
3 247 293 304
3 36 195 64
3 217 253 27
3 243 293 247
3 292 333 268
3 269 54 19
3 137 312 120
3 268 78 59
3 321 143 311
3 269 19 20
3 59 162 268
3 291 52 279
3 204 97 12
3 162 7 8
3 269 154 18
3 154 48 206
3 162 6 7
3 204 162 10
3 94 64 195
3 21 269 20
3 78 269 21
3 279 154 291
3 217 138 29
3 29 30 217
3 185 3 204
3 291 255 276
3 204 292 162
3 268 269 78
3 27 28 217
3 35 36 150
3 243 247 33
3 243 234 275
3 234 243 160
3 247 32 33
3 170 138 217
3 150 160 243
3 243 34 35
3 253 26 27
3 217 30 31
3 31 247 217
3 31 32 247
3 28 170 217
3 25 26 253
3 12 25 253
3 204 125 185
