# .PCD v0.7 - Point Cloud Data file format
VERSION 0.7
FIELDS x y z
SIZE 4 4 4
TYPE F F F
COUNT 1 1 1
WIDTH 4800
HEIGHT 1
VIEWPOINT 0 0 0 1 0 0 0
POINTS 4800
DATA ascii
-0 -0 0
-0 -0 0
-0 -0 0
-0 -0 0
-0 -0 0
-0 -0 0
-0 -0 0
-0 -0 0
-0 -0 0
-0 -0 0
-0 -0 0
-0 -0 0
-0 -0 0
-0 -0 0
-0 -0 0
-0 -0 0
-0 -0 0
-0 -0 0
-0 -0 0
-0 -0 0
-0 -0 0
-0 -0 0
-0 -0 0
-0 -0 0
-0 -0 0
-0 -0 0
-0 -0 0
-0 -0 0
-0 -0 0
-0 -0 0
-0 -0 0
-0 -0 0
-0 -0 0
-0 -0 0
-0 -0 0
-0 -0 0
-0 -0 0
-0 -0 0
-0 -0 0
-0 -0 0
-0 -0 0
0 -0 0
0 -0 0
0 -0 0
0 -0 0
0 -0 0
0 -0 0
0 -0 0
0 -0 0
0 -0 0
0 -0 0
0 -0 0
0 -0 0
0 -0 0
0 -0 0
0 -0 0
0 -0 0
0 -0 0
0 -0 0
0 -0 0
0 -0 0
0 -0 0
0 -0 0
0 -0 0
0 -0 0
0 -0 0
0 -0 0
0 -0 0
0 -0 0
0 -0 0
0 -0 0
0 -0 0
0 -0 0
0 -0 0
0 -0 0
0 -0 0
0 -0 0
0 -0 0
0 -0 0
0 -0 0
-0 -0 0
-0 -0 0
-0 -0 0
-0 -0 0
-0 -0 0
-0 -0 0
-0 -0 0
-0 -0 0
-0 -0 0
-0 -0 0
-0 -0 0
-0 -0 0
-0 -0 0
-0 -0 0
-0 -0 0
-0 -0 0
-0 -0 0
-0 -0 0
-0 -0 0
-0 -0 0
-0 -0 0
-0 -0 0
-0 -0 0
-0 -0 0
-0 -0 0
-0 -0 0
-0 -0 0
-0 -0 0
-0 -0 0
-0 -0 0
-0 -0 0
-0 -0 0
-0 -0 0
-0 -0 0
-0 -0 0
-0 -0 0
-0 -0 0
-0 -0 0
-0 -0 0
-0 -0 0
-0 -0 0
0 -0 0
0 -0 0
0 -0 0
0 -0 0
0 -0 0
0 -0 0
0 -0 0
0 -0 0
0 -0 0
0 -0 0
0 -0 0
0 -0 0
0 -0 0
0 -0 0
0 -0 0
0 -0 0
0 -0 0
0 -0 0
0 -0 0
0 -0 0
0 -0 0
0 -0 0
0 -0 0
0 -0 0
0 -0 0
0 -0 0
0 -0 0
0 -0 0
0 -0 0
0 -0 0
0 -0 0
0 -0 0
0 -0 0
0 -0 0
0 -0 0
0 -0 0
0 -0 0
0 -0 0
0 -0 0
-0 -0 0
-0 -0 0
-0 -0 0
-0 -0 0
-0 -0 0
-0 -0 0
-0 -0 0
-0 -0 0
-0 -0 0
-0 -0 0
-0 -0 0
-0 -0 0
-0 -0 0
-0 -0 0
-0 -0 0
-0 -0 0
-0 -0 0
-0 -0 0
-0 -0 0
-0 -0 0
-0 -0 0
-0 -0 0
-0 -0 0
-0 -0 0
-0 -0 0
-0 -0 0
-0 -0 0
-0 -0 0
-0 -0 0
-0 -0 0
-0 -0 0
-0 -0 0
-0 -0 0
-0 -0 0
-0 -0 0
-0 -0 0
-0 -0 0
-0 -0 0
-0 -0 0
-0 -0 0
-0 -0 0
0 -0 0
0 -0 0
0 -0 0
0 -0 0
0 -0 0
0 -0 0
0 -0 0
0 -0 0
0 -0 0
0 -0 0
0 -0 0
0 -0 0
0 -0 0
0 -0 0
0 -0 0
0 -0 0
0 -0 0
0 -0 0
0 -0 0
0 -0 0
0 -0 0
0 -0 0
0 -0 0
0 -0 0
0 -0 0
0 -0 0
0 -0 0
0 -0 0
0 -0 0
0 -0 0
0 -0 0
0 -0 0
0 -0 0
0 -0 0
0 -0 0
0 -0 0
0 -0 0
0 -0 0
0 -0 0
-0 -0 0
-0 -0 0
-0 -0 0
-0 -0 0
-0 -0 0
-0 -0 0
-0 -0 0
-0 -0 0
-0 -0 0
-0 -0 0
-0 -0 0
-0 -0 0
-0 -0 0
-0 -0 0
-0 -0 0
-0 -0 0
-0 -0 0
-0 -0 0
-0 -0 0
-0 -0 0
-0 -0 0
-0 -0 0
-0 -0 0
-0 -0 0
-0 -0 0
-0 -0 0
-0 -0 0
-0 -0 0
-0 -0 0
-0 -0 0
-0 -0 0
-0 -0 0
-0 -0 0
-0 -0 0
-0 -0 0
-0 -0 0
-0 -0 0
-0 -0 0
-0 -0 0
-0 -0 0
-0 -0 0
0 -0 0
0 -0 0
0 -0 0
0 -0 0
0 -0 0
0 -0 0
0 -0 0
0 -0 0
0 -0 0
0 -0 0
0 -0 0
0 -0 0
0 -0 0
0 -0 0
0 -0 0
0 -0 0
0 -0 0
0 -0 0
0 -0 0
0 -0 0
0 -0 0
0 -0 0
0 -0 0
0 -0 0
0 -0 0
0 -0 0
0 -0 0
0 -0 0
0 -0 0
0 -0 0
0 -0 0
0 -0 0
0 -0 0
0 -0 0
0 -0 0
0 -0 0
0 -0 0
0 -0 0
0 -0 0
-0 -0 0
-0 -0 0
-0 -0 0
-0 -0 0
-0 -0 0
-0 -0 0
-0 -0 0
-0 -0 0
-0 -0 0
-0 -0 0
-0 -0 0
-0 -0 0
-0 -0 0
-0 -0 0
-0 -0 0
-0 -0 0
-0 -0 0
-0 -0 0
-0 -0 0
-0 -0 0
-0 -0 0
-0 -0 0
-0 -0 0
-0 -0 0
-0 -0 0
-0 -0 0
-0 -0 0
-0 -0 0
-0 -0 0
-0 -0 0
-0 -0 0
-0 -0 0
-0 -0 0
-0 -0 0
-0 -0 0
-0 -0 0
-0 -0 0
-0 -0 0
-0 -0 0
-0 -0 0
-0 -0 0
0 -0 0
0 -0 0
0 -0 0
0 -0 0
0 -0 0
0 -0 0
0 -0 0
0 -0 0
0 -0 0
0 -0 0
0 -0 0
0 -0 0
0 -0 0
0 -0 0
0 -0 0
0 -0 0
0 -0 0
0 -0 0
0 -0 0
0 -0 0
0 -0 0
0 -0 0
0 -0 0
0 -0 0
0 -0 0
0 -0 0
0 -0 0
0 -0 0
0 -0 0
0 -0 0
0 -0 0
0 -0 0
0 -0 0
0 -0 0
0 -0 0
0 -0 0
0 -0 0
0 -0 0
0 -0 0
-0 -0 0
-0 -0 0
-0 -0 0
-0 -0 0
-0 -0 0
-0 -0 0
-0 -0 0
-0 -0 0
-0 -0 0
-0 -0 0
-0 -0 0
-0 -0 0
-0 -0 0
-0 -0 0
-0 -0 0
-0 -0 0
-0 -0 0
-0 -0 0
-0 -0 0
-0 -0 0
-0 -0 0
-0 -0 0
-0 -0 0
-0 -0 0
-0 -0 0
-0 -0 0
-0 -0 0
-0 -0 0
-0 -0 0
-0 -0 0
-0 -0 0
-0 -0 0
-0 -0 0
-0 -0 0
-0 -0 0
-0 -0 0
-0 -0 0
-0 -0 0
-0 -0 0
-0 -0 0
-0 -0 0
0 -0 0
0 -0 0
0 -0 0
0 -0 0
0 -0 0
0 -0 0
0 -0 0
0 -0 0
0 -0 0
0 -0 0
0 -0 0
0 -0 0
0 -0 0
0 -0 0
0 -0 0
0 -0 0
0 -0 0
0 -0 0
0 -0 0
0 -0 0
0 -0 0
0 -0 0
0 -0 0
0 -0 0
0 -0 0
0 -0 0
0 -0 0
0 -0 0
0 -0 0
0 -0 0
0 -0 0
0 -0 0
0 -0 0
0 -0 0
0 -0 0
0 -0 0
0 -0 0
0 -0 0
0 -0 0
-0 -0 0
-0 -0 0
-0.30915242 -0.19568747 0.46250004
-0 -0 0
-0 -0 0
-0 -0 0
-0 -0 0
-0 -0 0
-0 -0 0
-0 -0 0
-0 -0 0
-0 -0 0
-0 -0 0
-0 -0 0
-0 -0 0
-0 -0 0
-0 -0 0
-0 -0 0
-0 -0 0
-0 -0 0
-0 -0 0
-0 -0 0
-0 -0 0
-0 -0 0
-0 -0 0
-0 -0 0
-0 -0 0
-0 -0 0
-0 -0 0
-0 -0 0
-0 -0 0
-0 -0 0
-0 -0 0
-0 -0 0
-0 -0 0
-0 -0 0
-0 -0 0
-0 -0 0
-0 -0 0
-0 -0 0
-0 -0 0
0 -0 0
0 -0 0
0 -0 0
0 -0 0
0 -0 0
0 -0 0
0 -0 0
0 -0 0
0 -0 0
0 -0 0
0 -0 0
0 -0 0
0 -0 0
0 -0 0
0 -0 0
0 -0 0
0 -0 0
0 -0 0
0 -0 0
0 -0 0
0 -0 0
0 -0 0
0 -0 0
0 -0 0
0 -0 0
0 -0 0
0 -0 0
0 -0 0
0 -0 0
0 -0 0
0 -0 0
0 -0 0
0 -0 0
0 -0 0
0 -0 0
0 -0 0
0 -0 0
0 -0 0
0 -0 0
-0 -0 0
-0 -0 0
-0 -0 0
-0 -0 0
-0 -0 0
-0 -0 0
-0 -0 0
-0 -0 0
-0 -0 0
-0.25652194 -0.19067211 0.47000003
-0.24855125 -0.19087496 0.47050002
-0.24107379 -0.1914835 0.47200003
-0.2326806 -0.19138207 0.47175002
-0.22643687 -0.19310622 0.47600001
-0.21912786 -0.19401902 0.47825003
-0.21118915 -0.1944247 0.47925001
-0.20300384 -0.19462755 0.47975004
-0 -0 0
-0 -0 0
-0 -0 0
-0 -0 0
-0 -0 0
-0 -0 0
-0 -0 0
-0 -0 0
-0 -0 0
-0 -0 0
-0 -0 0
-0 -0 0
-0 -0 0
-0 -0 0
-0 -0 0
-0 -0 0
-0 -0 0
-0 -0 0
-0 -0 0
-0 -0 0
-0 -0 0
-0 -0 0
-0 -0 0
-0 -0 0
0 -0 0
0 -0 0
0 -0 0
0 -0 0
0 -0 0
0 -0 0
0 -0 0
0 -0 0
0 -0 0
0 -0 0
0 -0 0
0 -0 0
0 -0 0
0 -0 0
0 -0 0
0 -0 0
0 -0 0
0 -0 0
0 -0 0
0 -0 0
0 -0 0
0 -0 0
0 -0 0
0 -0 0
0 -0 0
0 -0 0
0 -0 0
0 -0 0
0 -0 0
0 -0 0
0 -0 0
0 -0 0
0 -0 0
0 -0 0
0 -0 0
0 -0 0
0 -0 0
0 -0 0
0 -0 0
-0 -0 0
-0 -0 0
-0 -0 0
-0 -0 0
-0 -0 0
-0 -0 0
-0 -0 0
-0.27124906 -0.18131867 0.46700001
-0.26532003 -0.18287171 0.47100002
-0.25720417 -0.1829688 0.47125003
-0.24881537 -0.18287171 0.47100002
-0.24260603 -0.18442477 0.47500002
-0.23502345 -0.18500717 0.47650003
-0.22762614 -0.18578368 0.47850001
-0.21981515 -0.18626903 0.47975004
-0.21173999 -0.18656021 0.48050001
-0.20469642 -0.18782207 0.48375002
-0.19601788 -0.18762794 0.48325002
-0.18823008 -0.18830739 0.48500001
-0.18056625 -0.18918099 0.48725003
-0.17229399 -0.1894722 0.48800004
-0 -0 0
-0 -0 0
-0 -0 0
-0 -0 0
-0 -0 0
-0 -0 0
-0 -0 0
-0 -0 0
-0 -0 0
-0 -0 0
-0 -0 0
-0 -0 0
-0 -0 0
-0 -0 0
-0 -0 0
-0 -0 0
-0 -0 0
-0 -0 0
-0 -0 0
-0 -0 0
0 -0 0
0 -0 0
0 -0 0
0 -0 0
0 -0 0
0 -0 0
0 -0 0
0 -0 0
0 -0 0
0 -0 0
0 -0 0
0 -0 0
0 -0 0
0 -0 0
0 -0 0
0 -0 0
0 -0 0
0 -0 0
0 -0 0
0 -0 0
0 -0 0
0 -0 0
0 -0 0
0 -0 0
0 -0 0
0 -0 0
0 -0 0
0 -0 0
0 -0 0
0 -0 0
0 -0 0
0 -0 0
0 -0 0
0 -0 0
0 -0 0
0 -0 0
0 -0 0
0 -0 0
0 -0 0
-0 -0 0
-0 -0 0
-0 -0 0
-0.30283901 -0.1725333 0.46525002
-0.29532081 -0.17290415 0.46625003
-0.28715169 -0.17290415 0.46625003
-0.28167516 -0.17457293 0.47075003
-0.27415323 -0.17503649 0.47200003
-0.26630583 -0.17531461 0.47275001
-0.25925088 -0.176149 0.47500002
-0.2511926 -0.17633443 0.47550002
-0.24426597 -0.17735423 0.47825003
-0.2360099 -0.17744693 0.47850001
-0.22810186 -0.17781778 0.47950003
-0.22061698 -0.17855947 0.48150003
-0.21306199 -0.17930114 0.48350003
-0.20511957 -0.17976469 0.48475003
-0.19733615 -0.18041366 0.48650002
-0.1893944 -0.18096992 0.48800004
-0.18149272 -0.1816189 0.48975003
-0.17344144 -0.18217516 0.49125004
-0.1649182 -0.18226786 0.49150002
-0.15710172 -0.18319497 0.49400002
-0.14859664 -0.18338038 0.49450001
-0 -0 0
-0 -0 0
-0 -0 0
-0 -0 0
-0 -0 0
-0 -0 0
-0 -0 0
-0 -0 0
-0 -0 0
-0 -0 0
-0 -0 0
-0 -0 0
-0 -0 0
-0 -0 0
-0 -0 0
-0 -0 0
-0 -0 0
0 -0 0
0 -0 0
0 -0 0
0 -0 0
0 -0 0
0 -0 0
0 -0 0
0 -0 0
0 -0 0
0 -0 0
0 -0 0
0 -0 0
0 -0 0
0 -0 0
0 -0 0
0 -0 0
0 -0 0
0 -0 0
0 -0 0
0 -0 0
0 -0 0
0 -0 0
0 -0 0
0 -0 0
0 -0 0
0 -0 0
0 -0 0
0 -0 0
0 -0 0
0 -0 0
0 -0 0
0 -0 0
0 -0 0
0 -0 0
0 -0 0
0 -0 0
0 -0 0
0 -0 0
0 -0 0
-0 -0 0
-0 -0 0
-0 -0 0
-0.30348992 -0.16478084 0.46625003
-0.29547915 -0.16486919 0.46650001
-0.28822947 -0.16539933 0.46800002
-0.28242311 -0.166813 0.47200003
-0.27487928 -0.16725476 0.47325003
-0.26729164 -0.16769654 0.47450003
-0.26047891 -0.16866843 0.47725001
-0.25224915 -0.16875678 0.47750002
-0.24477671 -0.16937527 0.47925001
-0.23736627 -0.17008209 0.48125002
-0.22976683 -0.17070058 0.48300001
-0.22233517 -0.17149577 0.48525003
-0.21438399 -0.17193754 0.48650002
-0.206389 -0.17237931 0.48775002
-0.19835022 -0.17282109 0.48900002
-0.1905587 -0.17352793 0.49100003
-0.18251182 -0.17405805 0.49250004
-0.1743241 -0.17449982 0.49375004
-0.16617647 -0.17502995 0.49525002
-0.15829429 -0.17591348 0.49775001
-0.15009914 -0.17653197 0.49950004
-0.14191341 -0.17723879 0.50150001
-0.13312668 -0.17723879 0.50150001
-0.12520771 -0.17847575 0.505
-0.11659009 -0.17882919 0.50600004
-0 -0 0
-0 -0 0
-0 -0 0
-0 -0 0
-0 -0 0
-0 -0 0
-0 -0 0
-0 -0 0
-0 -0 0
-0 -0 0
-0 -0 0
-0 -0 0
-0 -0 0
0 -0 0
0 -0 0
0 -0 0
0 -0 0
0 -0 0
0 -0 0
0 -0 0
0 -0 0
0 -0 0
0 -0 0
0 -0 0
0 -0 0
0 -0 0
0 -0 0
0 -0 0
0 -0 0
0 -0 0
0 -0 0
0 -0 0
0 -0 0
0 -0 0
0 -0 0
0 -0 0
0 -0 0
0 -0 0
0 -0 0
0 -0 0
0 -0 0
0 -0 0
0 -0 0
0 -0 0
0 -0 0
0 -0 0
0 -0 0
0 -0 0
0 -0 0
0 -0 0
0 -0 0
0 -0 0
-0 -0 0
-0 -0 0
-0 -0 0
-0 -0 0
-0 -0 0
-0.29038501 -0.15842149 0.47150001
-0.28302145 -0.15892549 0.47300002
-0.27589571 -0.15959747 0.47500002
-0.26869991 -0.16026947 0.47700003
-0.26143408 -0.16094145 0.47900003
-0.2537019 -0.16136144 0.48025003
-0.2459259 -0.16178145 0.48150003
-0.2393392 -0.16304141 0.48525003
-0.23107503 -0.16320941 0.48575002
-0.22279336 -0.1633774 0.48625001
-0.21515515 -0.1640494 0.48825002
-0.20723529 -0.16455339 0.48975003
-0.19926287 -0.16505739 0.49125004
-0.19143192 -0.16572937 0.49325001
-0.18343827 -0.16631737 0.49500003
-0.17520675 -0.16673736 0.49625003
-0.1671831 -0.16740935 0.49825004
-0.15916884 -0.16816534 0.50050002
-0.15077527 -0.16858535 0.50175005
-0.14262085 -0.16934131 0.50400001
-0.13405576 -0.1696773 0.505
-0.12570359 -0.1703493 0.50700003
-0.11728133 -0.17102128 0.509
-0.10868254 -0.17152528 0.51050001
-0.099982336 -0.17194529 0.51175004
-0.09119387 -0.17228127 0.51275003
-0 -0 0
-0 -0 0
-0 -0 0
-0 -0 0
-0 -0 0
-0 -0 0
-0 -0 0
-0 -0 0
-0 -0 0
-0 -0 0
0 -0 0
0 -0 0
0 -0 0
0 -0 0
0 -0 0
0 -0 0
0 -0 0
0 -0 0
0 -0 0
0 -0 0
0 -0 0
0 -0 0
0 -0 0
0 -0 0
0 -0 0
0 -0 0
0 -0 0
0 -0 0
0 -0 0
0 -0 0
0 -0 0
0 -0 0
0 -0 0
0 -0 0
0 -0 0
0 -0 0
0 -0 0
0 -0 0
0 -0 0
0 -0 0
0 -0 0
0 -0 0
0 -0 0
0 -0 0
0 -0 0
0 -0 0
0 -0 0
0 -0 0
0 -0 0
-0 -0 0
-0 -0 0
-0 -0 0
-0 -0 0
-0 -0 0
-0 -0 0
-0.28317103 -0.1507642 0.47325003
-0.27589571 -0.15132169 0.47500002
-0.26926324 -0.15227741 0.47800002
-0.26170695 -0.15275528 0.47950003
-0.25502256 -0.15379064 0.48275003
-0.24720278 -0.15418886 0.48400003
-0.2395858 -0.15474635 0.48575002
-0.23178859 -0.1552242 0.48725003
-0.22382428 -0.15562242 0.48850003
-0.21603648 -0.15617992 0.49025002
-0.20818736 -0.15673742 0.49200001
-0.20027694 -0.15729493 0.49375004
-0.19211112 -0.15769315 0.49500003
-0.18417943 -0.15833028 0.49700001
-0.17608941 -0.15888779 0.49875003
-0.16785417 -0.15936565 0.50025004
-0.15964589 -0.15992315 0.50200003
-0.15137626 -0.16048065 0.50375003
-0.14325756 -0.16127707 0.50625002
-0.13471943 -0.1616753 0.50750005
-0.12619945 -0.16215314 0.509
-0.11768455 -0.16271064 0.51075
-0.10900188 -0.16310887 0.51200002
-0.10032424 -0.16358672 0.51350003
-0.09159404 -0.16406459 0.51500005
-0.082851358 -0.16462208 0.51675004
-0.073940247 -0.16494066 0.51775002
-0.065056734 -0.16541852 0.51925004
-0 -0 0
-0 -0 0
-0 -0 0
-0 -0 0
-0 -0 0
-0 -0 0
-0 -0 0
0 -0 0
0 -0 0
0 -0 0
0 -0 0
0 -0 0
0 -0 0
0 -0 0
0 -0 0
0 -0 0
0 -0 0
0 -0 0
0 -0 0
0 -0 0
0 -0 0
0 -0 0
0 -0 0
0 -0 0
0 -0 0
0 -0 0
0 -0 0
0 -0 0
0 -0 0
0 -0 0
0 -0 0
0 -0 0
0 -0 0
0 -0 0
0 -0 0
0 -0 0
0 -0 0
0 -0 0
0 -0 0
0 -0 0
0 -0 0
0 -0 0
0 -0 0
0 -0 0
0 -0 0
0 -0 0
-0.27629152 -0.11827639 0.39275002
-0.27061063 -0.1188034 0.39450002
-0 -0 0
-0 -0 0
-0 -0 0
-0 -0 0
-0.28436774 -0.14312121 0.47525004
-0.27604094 -0.14312121 0.47525004
-0.26996738 -0.14432581 0.47925001
-0.26184341 -0.1444764 0.47975004
-0.25555083 -0.14568098 0.48375002
-0.24784122 -0.14613271 0.48525003
-0.24069558 -0.14696087 0.48800004
-0.23262107 -0.14726202 0.48900002
-0.22496974 -0.14786431 0.49100003
-0.21702799 -0.14831604 0.49250004
-0.20935102 -0.14899363 0.49475002
-0.20179802 -0.14982179 0.49750003
-0.19385758 -0.15042409 0.49950004
-0.18584704 -0.15102638 0.50150001
-0.17723686 -0.15117696 0.50200003
-0.16877691 -0.15147811 0.50300002
-0.16044092 -0.15192984 0.50450003
-0.15227775 -0.15260743 0.50675005
-0.14375277 -0.15298386 0.50800002
-0.13518398 -0.15336029 0.50925004
-0.12663335 -0.15381201 0.51075
-0.11820299 -0.15448959 0.51300001
-0.10937445 -0.15471546 0.51375002
-0.10071498 -0.15524247 0.51550001
-0.092127591 -0.15599534 0.51800001
-0.083212107 -0.15629651 0.51900005
-0.074368678 -0.15682352 0.52075005
-0.065369956 -0.15712467 0.52175003
-0.05630926 -0.15735053 0.52250004
-0.047244836 -0.15765168 0.52350003
-0.038381737 -0.15893155 0.52775002
-0 -0 0
-0 -0 0
-0 -0 0
-0 -0 0
0 -0 0
0 -0 0
0 -0 0
0 -0 0
0 -0 0
0 -0 0
0 -0 0
0 -0 0
0 -0 0
0 -0 0
0 -0 0
0 -0 0
0 -0 0
0 -0 0
0 -0 0
0 -0 0
0 -0 0
0 -0 0
0 -0 0
0 -0 0
0 -0 0
0 -0 0
0 -0 0
0 -0 0
0 -0 0
0 -0 0
0 -0 0
0 -0 0
0 -0 0
0 -0 0
0 -0 0
0 -0 0
0 -0 0
0 -0 0
0 -0 0
0 -0 0
0 -0 0
0 -0 0
0 -0 0
-0.276995 -0.11171737 0.39375001
-0.27129656 -0.11221389 0.3955
-0.26653948 -0.11313601 0.39875001
-0.26069215 -0.11363254 0.40050003
-0.25494182 -0.11419999 0.40250003
-0.24773568 -0.11412906 0.40225002
-0.28451732 -0.13491203 0.47550002
-0.27967113 -0.1366144 0.48150003
-0.27081233 -0.13640159 0.48075002
-0.26402655 -0.13725278 0.48375002
-0.25607911 -0.13753651 0.48475003
-0.24847965 -0.13803303 0.48650002
-0.24118881 -0.13874234 0.48900002
-0.23345357 -0.13923886 0.49075001
-0.22588612 -0.13987726 0.49300003
-0.21779914 -0.14023191 0.49425003
-0.20998573 -0.14079936 0.49625003
-0.20230506 -0.14150868 0.49875003
-0.19511892 -0.14264359 0.50275004
-0.18890435 -0.14462967 0.50975001
-0.18182665 -0.14611924 0.51500005
-0.17422944 -0.14732508 0.51925004
-0.16425715 -0.14654481 0.5165
-0.1552076 -0.14654481 0.5165
-0.14594586 -0.14633204 0.51575005
-0.13704216 -0.1464739 0.51625001
-0.12793502 -0.14640297 0.51600003
-0.11900944 -0.14654481 0.5165
-0.11011957 -0.14675762 0.51725
-0.1013988 -0.14725415 0.51900005
-0.092483304 -0.14753787 0.52000004
-0.083612934 -0.14796346 0.52150005
-0.074761406 -0.14853092 0.52350003
-0.065714501 -0.14881463 0.52450001
-0.05668645 -0.14924023 0.52600002
-0.047628388 -0.14973675 0.52775002
-0.038436282 -0.14994955 0.52850002
-0.029328305 -0.15072979 0.53125
-0.020114543 -0.1514391 0.53375
-0.010793012 -0.15186469 0.53525001
-0 -0 0
0 -0 0
0 -0 0
0 -0 0
0 -0 0
0 -0 0
0 -0 0
0 -0 0
0 -0 0
0 -0 0
0 -0 0
0 -0 0
0 -0 0
0 -0 0
0 -0 0
0 -0 0
0 -0 0
0 -0 0
0 -0 0
0 -0 0
0 -0 0
0 -0 0
0 -0 0
0 -0 0
0 -0 0
0 -0 0
0 -0 0
0 -0 0
0 -0 0
0 -0 0
0 -0 0
0 -0 0
0 -0 0
0 -0 0
0 -0 0
0 -0 0
0 -0 0
0 -0 0
0 -0 0
0 -0 0
-0.27787435 -0.10519008 0.39500001
-0.27163956 -0.10545639 0.39600003
-0.26620528 -0.10605557 0.39825001
-0.26036668 -0.1065216 0.40000001
-0.25430843 -0.10692105 0.40150002
-0.24804363 -0.10725393 0.40275002
-0.24263255 -0.10798627 0.40550002
-0.2369799 -0.10865203 0.40800002
-0.2319438 -0.10965067 0.41175002
-0.24533321 -0.11970365 0.44950002
-0.25000399 -0.12602837 0.47325003
-0.24707508 -0.12882456 0.48375002
-0.24118881 -0.13022265 0.48900002
-0.23440498 -0.13122129 0.49275002
-0.22645886 -0.13162075 0.49425003
-0.21812965 -0.13182048 0.49500003
-0.21051466 -0.13248624 0.49750003
-0.20250787 -0.13295227 0.49925002
-0.19463378 -0.13355145 0.50150001
-0.1869588 -0.13435037 0.50450003
-0.17997307 -0.13574846 0.50975001
-0.17397779 -0.13807863 0.51850003
-0.1679939 -0.1406751 0.52825004
-0.16084196 -0.14253922 0.53525001
-0.1523836 -0.14340469 0.53850001
-0.14235131 -0.14280553 0.53625005
-0.13221192 -0.14200661 0.53325003
-0.12200484 -0.14100796 0.52950001
-0.11240818 -0.1406085 0.528
-0.10252219 -0.13974303 0.52475005
-0.093328103 -0.13974303 0.52475005
-0.084134012 -0.13974303 0.52475005
-0.075047024 -0.13994275 0.5255
-0.066090375 -0.14047536 0.52750003
-0.057198353 -0.14134085 0.53075004
-0.047944255 -0.14147399 0.53125
-0.038690824 -0.14167373 0.53200001
-0.029438719 -0.14200661 0.53325003
-0.020133387 -0.1422729 0.53425002
-0.010823258 -0.14293867 0.53675002
-0.0014208993 -0.14313839 0.53750002
0.0080486527 -0.14407046 0.54100001
0.017600354 -0.14466965 0.54325002
0 -0 0
0 -0 0
0 -0 0
0 -0 0
0 -0 0
0 -0 0
0 -0 0
0 -0 0
0 -0 0
0 -0 0
0 -0 0
0 -0 0
0 -0 0
0 -0 0
0 -0 0
0 -0 0
0 -0 0
0 -0 0
0 -0 0
0 -0 0
0 -0 0
0 -0 0
0 -0 0
0 -0 0
0 -0 0
0 -0 0
0 -0 0
0 -0 0
0 -0 0
0 -0 0
0 -0 0
0 -0 0
0 -0 0
0 -0 0
0 -0 0
0 -0 0
0 -0 0
-0.2787537 -0.098619223 0.39625001
-0.272497 -0.098868109 0.39725003
-0.26687375 -0.099365868 0.39925003
-0.26085487 -0.099739186 0.40075001
-0.25494182 -0.10017473 0.40250003
-0.2491214 -0.10067249 0.40450001
-0.24367967 -0.10135692 0.40725002
-0.23727033 -0.10166802 0.40850002
-0.23067635 -0.1019169 0.40950003
-0.22500248 -0.10260132 0.41225001
-0.21896811 -0.10316131 0.41450003
-0.21617474 -0.10533902 0.42325002
-0.21689729 -0.10944556 0.43975002
-0.21906342 -0.11460985 0.46050003
-0.2175242 -0.1181564 0.47475001
-0.21625681 -0.12213851 0.49075001
-0.21125516 -0.124254 0.49925002
-0.20291349 -0.12450288 0.50025004
-0.19492486 -0.12500064 0.50225002
-0.18714409 -0.12568507 0.505
-0.17900217 -0.12618282 0.50700003
-0.17079015 -0.12668058 0.509
-0.16234905 -0.12705392 0.51050001
-0.15430611 -0.12780055 0.51350003
-0.15026125 -0.13215598 0.53100002
-0.1444086 -0.13539144 0.54400003
-0.13549706 -0.13601364 0.54650003
-0.12569149 -0.13576476 0.54550004
-0.1167193 -0.13644919 0.54825002
-0.10633197 -0.13545366 0.54425001
-0.096573912 -0.13514256 0.54300004
-0.085977823 -0.13346262 0.53625005
-0.075903893 -0.13228042 0.53150004
-0.066654176 -0.13240486 0.53200001
-0.057440832 -0.13265376 0.53300005
-0.048147317 -0.13277818 0.53350002
-0.038890827 -0.13308929 0.53475004
-0.029576734 -0.13333817 0.53575003
-0.020255864 -0.13377371 0.53750002
-0.010888793 -0.13439591 0.54000002
-0.0014308126 -0.13470702 0.54125005
0.0080821272 -0.13520478 0.54325002
0.017640853 -0.13551588 0.54450005
0.027143542 -0.13532923 0.54375005
0.036923427 -0.13626252 0.54750001
0 -0 0
0 -0 0
0 -0 0
0 -0 0
0 -0 0
0 -0 0
0 -0 0
0 -0 0
0 -0 0
0 -0 0
0 -0 0
0 -0 0
0 -0 0
0 -0 0
0 -0 0
0 -0 0
0 -0 0
0 -0 0
0 -0 0
0 -0 0
0 -0 0
0 -0 0
0 -0 0
0 -0 0
0 -0 0
0 -0 0
0 -0 0
0 -0 0
0 -0 0
0 -0 0
0 -0 0
0 -0 0
0 -0 0
0 -0 0
0 -0 0
-0.27945718 -0.091946952 0.39725003
-0.27386892 -0.092409864 0.39925003
-0.26837772 -0.092930645 0.40150002
-0.26183125 -0.093104243 0.40225002
-0.25589192 -0.093509294 0.40400001
-0.25004521 -0.093972206 0.40600002
-0.24397884 -0.094377257 0.40775001
-0.23799635 -0.094840176 0.40975001
-0.2319438 -0.095303096 0.41175002
-0.22595763 -0.095823884 0.41400003
-0.21962844 -0.096228935 0.41575003
-0.21362101 -0.096807577 0.41825002
-0.20777257 -0.097501956 0.42125002
-0.20122437 -0.097907007 0.42300001
-0.19495851 -0.098485649 0.42550001
-0.18981686 -0.099700809 0.43075001
-0.18734746 -0.10247831 0.44275001
-0.18658711 -0.10647097 0.46000001
-0.18570741 -0.11075296 0.47850001
-0.18251182 -0.11399338 0.49250004
-0.17758991 -0.1164237 0.50300002
-0.1710418 -0.11798604 0.50975001
-0.16266705 -0.11839109 0.5115
-0.15445636 -0.11896974 0.514
-0.14658254 -0.11989558 0.51800001
-0.13949764 -0.12163151 0.5255
-0.13177803 -0.12302028 0.53150004
-0.12453941 -0.1251034 0.54050004
-0.11677252 -0.12695506 0.5485
-0.10804149 -0.12799664 0.55300003
-0.099063851 -0.12892246 0.55700004
-0.089144371 -0.12869102 0.55600005
-0.078795806 -0.1277073 0.55175
-0.068564847 -0.12666574 0.54725003
-0.058060504 -0.12469835 0.53875005
-0.0483955 -0.12411971 0.53625005
-0.039090827 -0.12440902 0.53750002
-0.029742355 -0.12469835 0.53875005
-0.020340657 -0.12492981 0.53975004
-0.01092408 -0.12539272 0.54175001
-0.0014360996 -0.1257399 0.54325002
0.0081267599 -0.1264343 0.54625005
0.017705649 -0.12649214 0.54650003
0.027343219 -0.12678148 0.54775006
0.037024587 -0.1270708 0.54900002
0.046792243 -0.12747584 0.55075002
0.056723699 -0.12811235 0.5535
0 -0 0
0 -0 0
0 -0 0
0 -0 0
0 -0 0
0 -0 0
0 -0 0
0 -0 0
0 -0 0
0 -0 0
0 -0 0
0 -0 0
0 -0 0
0 -0 0
0 -0 0
0 -0 0
0 -0 0
0 -0 0
0 -0 0
0 -0 0
0 -0 0
0 -0 0
0 -0 0
0 -0 0
0 -0 0
0 -0 0
0 -0 0
0 -0 0
0 -0 0
0 -0 0
0 -0 0
0 -0 0
0 -0 0
-0.28051239 -0.085346848 0.39875001
-0.27472639 -0.085721411 0.40050003
-0.26887903 -0.086095974 0.40225002
-0.26313308 -0.086524047 0.40425003
-0.25731707 -0.08695212 0.40625003
-0.25127697 -0.087326683 0.40800002
-0.24487638 -0.087594226 0.40925002
-0.2387224 -0.087968789 0.41100001
-0.23250711 -0.088343352 0.41275001
-0.22609407 -0.088664405 0.41425002
-0.22042084 -0.089306511 0.41725001
-0.21413174 -0.089734584 0.41925001
-0.2082658 -0.090376697 0.42225003
-0.201819 -0.090804763 0.42425001
-0.19541669 -0.091286346 0.42650002
-0.18893552 -0.091767922 0.42875001
-0.18226972 -0.092195995 0.43075001
-0.17563526 -0.092677586 0.43300003
-0.17018329 -0.093854778 0.43850002
-0.16240773 -0.093801275 0.43825004
-0.15711235 -0.09524601 0.44500002
-0.15258709 -0.097332865 0.45475003
-0.14915122 -0.10038287 0.46900001
-0.1469439 -0.1046636 0.48900002
-0.14247938 -0.10776712 0.50350004
-0.13763945 -0.11097766 0.51850003
-0.12967056 -0.11194082 0.523
-0.12114079 -0.11252942 0.52575004
-0.11278076 -0.11338557 0.52975005
-0.1046713 -0.11466978 0.53575003
-0.096262671 -0.11584698 0.54125005
-0.088222466 -0.1177733 0.55025005
-0.07929565 -0.11884348 0.55525005
-0.069943033 -0.11948559 0.55825001
-0.059380669 -0.11793382 0.551
-0.049523599 -0.11745225 0.54875004
-0.039599918 -0.1165426 0.54450005
-0.029921774 -0.11600751 0.54200006
-0.020472554 -0.11627505 0.54325002
-0.010974491 -0.11648908 0.54425001
-0.001445352 -0.11702417 0.54675001
0.008152795 -0.11729172 0.54800004
0.017819041 -0.11771978 0.55000001
0.027517935 -0.11798734 0.55125004
0.03717633 -0.11798734 0.55125004
0.047089603 -0.11862944 0.55425
0.056749325 -0.11852243 0.55375004
0 -0 0
0 -0 0
0 -0 0
0 -0 0
0 -0 0
0 -0 0
0 -0 0
0 -0 0
0 -0 0
0 -0 0
0 -0 0
0 -0 0
0 -0 0
0 -0 0
0 -0 0
0 -0 0
0 -0 0
0 -0 0
0 -0 0
0 -0 0
0 -0 0
0 -0 0
0 -0 0
0 -0 0
0 -0 0
0 -0 0
0 -0 0
0 -0 0
0 -0 0
0 -0 0
0 -0 0
0 -0 0
0 -0 0
-0.28156763 -0.078694478 0.40025002
-0.27575532 -0.079038545 0.40200001
-0.26954746 -0.07928431 0.40325001
-0.26394674 -0.079726696 0.40550002
-0.25779209 -0.080021612 0.40700001
-0.25189283 -0.080414839 0.40900001
-0.24577391 -0.080758914 0.41075003
-0.23930325 -0.081004687 0.41200003
-0.23335208 -0.081447065 0.41425002
-0.2270492 -0.081791133 0.41600001
-0.22121325 -0.082331821 0.41875002
-0.21489787 -0.082725048 0.42075002
-0.20851241 -0.083118275 0.42275003
-0.20193793 -0.08346235 0.42450002
-0.19587487 -0.084052183 0.42750001
-0.18948635 -0.08454372 0.43000001
-0.18269287 -0.084887795 0.43175003
-0.17604089 -0.085330173 0.43400002
-0.16940707 -0.085821703 0.43650001
-0.16268565 -0.08631324 0.43900001
-0.15587662 -0.08680477 0.44150001
-0.14889613 -0.087247156 0.44375002
-0.1422343 -0.087935299 0.44725001
-0.13529958 -0.088525146 0.45025003
-0.12840122 -0.089213289 0.45375001
-0.12197749 -0.090343811 0.45950001
-0.11770765 -0.093342163 0.47475001
-0.11347949 -0.096832059 0.49250004
-0.10777774 -0.099535488 0.50625002
-0.10149648 -0.10214061 0.51950002
-0.094261825 -0.10420506 0.53000003
-0.085456744 -0.1047949 0.53300005
-0.076689348 -0.10558134 0.537
-0.06728062 -0.10558134 0.537
-0.058141325 -0.10607287 0.5395
-0.049365666 -0.10754748 0.54700005
-0.039872643 -0.10779324 0.54825002
-0.030308217 -0.1079407 0.54900002
-0.020642141 -0.10769495 0.54775006
-0.011055149 -0.10779324 0.54825002
-0.0014513 -0.1079407 0.54900002
0.0081825489 -0.10813732 0.55000001
0.017875738 -0.10848138 0.55175
0.027630253 -0.10882546 0.5535
0.03746295 -0.10921869 0.55550003
0.047323249 -0.10951362 0.55700004
0.056851804 -0.10907123 0.55475003
0.066721529 -0.109317 0.55600005
0.076531909 -0.1094153 0.55650002
0 -0 0
0 -0 0
0 -0 0
0 -0 0
0 -0 0
0 -0 0
0 -0 0
0 -0 0
0 -0 0
0 -0 0
0 -0 0
0 -0 0
0 -0 0
0 -0 0
0 -0 0
0 -0 0
0 -0 0
0 -0 0
0 -0 0
0 -0 0
0 -0 0
0 -0 0
0 -0 0
0 -0 0
0 -0 0
0 -0 0
0 -0 0
0 -0 0
0 -0 0
0 -0 0
0 -0 0
-0.28227109 -0.071900241 0.40125
-0.27626976 -0.072169028 0.40275002
-0.27021593 -0.072437815 0.40425003
-0.26427218 -0.072751403 0.40600002
-0.2584255 -0.073109783 0.40800002
-0.25281665 -0.073557757 0.41050002
-0.24682103 -0.073916145 0.41250002
-0.24046491 -0.074184932 0.41400003
-0.23419705 -0.074498512 0.41575003
-0.22800435 -0.074856892 0.41775003
-0.22147737 -0.075125679 0.41925001
-0.21591938 -0.075752847 0.42275003
-0.20912895 -0.075976834 0.42400002
-0.2026515 -0.076335214 0.42600003
-0.19610398 -0.076693594 0.42800003
-0.19014736 -0.077320762 0.43150002
-0.18343338 -0.077679142 0.43350002
-0.17675072 -0.078082323 0.43575001
-0.17028031 -0.078619897 0.43875003
-0.16342682 -0.079023071 0.44100001
-0.15658276 -0.079471052 0.44350001
-0.1496511 -0.079919025 0.44600001
-0.14271133 -0.080411799 0.44875002
-0.13582544 -0.080994174 0.45200002
-0.12854271 -0.081397347 0.45425001
-0.12138021 -0.081934921 0.45725003
-0.11411258 -0.082472496 0.46025002
-0.10702785 -0.083234049 0.46450001
-0.099528089 -0.083771631 0.46750003
-0.092216246 -0.084577985 0.47200003
-0.084746718 -0.085384347 0.47650003
-0.078722812 -0.08798261 0.49100003
-0.072083704 -0.090446472 0.50475001
-0.064962767 -0.092910349 0.51850003
-0.057144467 -0.095015839 0.53025001
-0.048756488 -0.096807741 0.54025
-0.039527185 -0.097390115 0.54350001
-0.030101191 -0.097703695 0.54525
-0.02065156 -0.098196477 0.54800004
-0.011095479 -0.098599657 0.55025005
-0.001457248 -0.098778844 0.55125004
0.0082309004 -0.099137224 0.55325001
0.017972935 -0.099406011 0.55475003
0.027780009 -0.099719591 0.55650002
0.037614688 -0.099943586 0.55775005
0.047514409 -0.10021237 0.55925
0.057441074 -0.10043635 0.56050003
0.067381538 -0.10061555 0.56150001
0.077185147 -0.10057075 0.56125003
0.087522641 -0.10115312 0.56450003
0 -0 0
0 -0 0
0 -0 0
0 -0 0
0 -0 0
0 -0 0
0 -0 0
0 -0 0
0 -0 0
0 -0 0
0 -0 0
0 -0 0
0 -0 0
0 -0 0
0 -0 0
0 -0 0
0 -0 0
0 -0 0
0 -0 0
0 -0 0
0 -0 0
0 -0 0
0 -0 0
0 -0 0
0 -0 0
0 -0 0
0 -0 0
0 -0 0
0 -0 0
0 -0 0
-0.28279871 -0.065030724 0.40200001
-0.27678424 -0.065273374 0.40350002
-0.2715528 -0.065718241 0.40625003
-0.26557404 -0.066001333 0.40800002
-0.25953394 -0.066284426 0.40975001
-0.25374046 -0.066648401 0.41200003
-0.24726979 -0.066850618 0.41325003
-0.24133615 -0.067214593 0.41550002
-0.23560533 -0.067659453 0.41825002
-0.22855012 -0.067740336 0.41875002
-0.22213772 -0.068023428 0.42050001
-0.21655782 -0.06858962 0.42400002
-0.2099921 -0.068872713 0.42575002
-0.20384076 -0.069317572 0.42850003
-0.19702034 -0.069560222 0.43000001
-0.19058803 -0.069964647 0.43250003
-0.18396232 -0.070328623 0.43475002
-0.17766339 -0.070854373 0.43800002
-0.17066841 -0.071137466 0.43975002
-0.16398269 -0.071582325 0.44250003
-0.15737714 -0.072108075 0.44575003
-0.15015441 -0.072391167 0.44750002
-0.14318836 -0.072836027 0.45025003
-0.13612594 -0.073280886 0.45300001
-0.12910867 -0.073806636 0.45625001
-0.12204385 -0.074372821 0.45975003
-0.11485638 -0.074939013 0.46325001
-0.10720067 -0.075262547 0.46525002
-0.099740982 -0.075788289 0.46850002
-0.092069715 -0.076233156 0.47125003
-0.08430209 -0.076678015 0.47400004
-0.076558337 -0.077244207 0.47750002
-0.06872765 -0.077850834 0.48125002
-0.06057762 -0.078214817 0.48350003
-0.052779827 -0.079225861 0.48975003
-0.044605084 -0.07995382 0.49425003
-0.036490832 -0.08116708 0.50175005
-0.028527817 -0.083593599 0.51675004
-0.019926118 -0.085534811 0.52875
-0.010929123 -0.087678246 0.54200006
-0.0014532827 -0.08893194 0.54975003
0.0082457783 -0.089659892 0.55425
0.01805393 -0.0901452 0.55725002
0.027879851 -0.090347417 0.55850005
0.03774957 -0.090549618 0.55975002
0.047705572 -0.09083271 0.56150001
0.05779976 -0.091237128 0.56400001
0.06780155 -0.091398895 0.565
0.077872761 -0.091601111 0.56625003
0.08814282 -0.091965094 0.56850004
0 -0 0
0 -0 0
0 -0 0
0 -0 0
0 -0 0
0 -0 0
0 -0 0
0 -0 0
0 -0 0
0 -0 0
0 -0 0
0 -0 0
0 -0 0
0 -0 0
0 -0 0
0 -0 0
0 -0 0
0 -0 0
0 -0 0
0 -0 0
0 -0 0
0 -0 0
0 -0 0
0 -0 0
0 -0 0
0 -0 0
0 -0 0
0 -0 0
0 -0 0
0 -0 0
-0.28385392 -0.058243323 0.40350002
-0.27815616 -0.058532014 0.40550002
-0.27222124 -0.058784619 0.40725002
-0.26622492 -0.059037223 0.40900001
-0.26016733 -0.059289828 0.41075003
-0.25435632 -0.059614606 0.41300002
-0.24816732 -0.059867207 0.41475001
-0.241917 -0.060119815 0.41650003
-0.23574615 -0.060408503 0.41850001
-0.22909594 -0.060588937 0.41975003
-0.22293013 -0.060913712 0.42200002
-0.21681318 -0.061274577 0.42450002
-0.21060863 -0.061635438 0.42700002
-0.20419756 -0.061960217 0.42925003
-0.19759308 -0.062248904 0.43125001
-0.19135919 -0.062681943 0.43425003
-0.18459703 -0.062970631 0.43625003
-0.17817041 -0.063403666 0.43925002
-0.17115353 -0.063656271 0.44100001
-0.16453858 -0.064089313 0.44400004
-0.15781847 -0.064522348 0.44700003
-0.15065773 -0.064811036 0.44900003
-0.1438244 -0.065280162 0.45225003
-0.13665181 -0.065641023 0.45475003
-0.12946238 -0.066037968 0.45750001
-0.1223093 -0.066507094 0.46075001
-0.11504234 -0.066976212 0.46400002
-0.10754629 -0.067373164 0.46675003
-0.10021999 -0.067950547 0.47075003
-0.092362769 -0.068239234 0.47275001
-0.084613331 -0.06867227 0.47575003
-0.076838918 -0.069177479 0.47925001
-0.068906166 -0.069646604 0.48250002
-0.06085952 -0.070115723 0.48575002
-0.052806765 -0.070729189 0.49000001
-0.04444715 -0.071090057 0.49250004
-0.036072649 -0.071595266 0.49600002
-0.02758931 -0.072136559 0.49975002
-0.018955721 -0.072605677 0.50300002
-0.01024353 -0.073327407 0.50800002
-0.0013614199 -0.074337825 0.51500005
0.0077882996 -0.075564757 0.52350003
0.017219676 -0.076719522 0.53150004
0.026993785 -0.078054719 0.54075003
0.037075169 -0.079353824 0.54975003
0.04753565 -0.080761194 0.55950004
0.057697281 -0.081266396 0.56300002
0.066931531 -0.08050859 0.55775005
0.076600671 -0.080400325 0.55700004
0.088181578 -0.082096383 0.56875002
0.098923139 -0.082745939 0.57325006
0 -0 0
0 -0 0
0 -0 0
0 -0 0
0 -0 0
0 -0 0
0 -0 0
0 -0 0
0 -0 0
0 -0 0
0 -0 0
0 -0 0
0 -0 0
0 -0 0
0 -0 0
0 -0 0
0 -0 0
0 -0 0
0 -0 0
0 -0 0
0 -0 0
0 -0 0
0 -0 0
0 -0 0
0 -0 0
0 -0 0
0 -0 0
0 -0 0
0 -0 0
-0.28526089 -0.051467128 0.40550002
-0.27918509 -0.051657509 0.40700001
-0.27305678 -0.051847894 0.40850002
-0.2672013 -0.052101739 0.41050002
-0.26111743 -0.052323852 0.41225001
-0.25512618 -0.052577697 0.41425002
-0.24891526 -0.052799813 0.41600001
-0.24264304 -0.05302193 0.41775003
-0.23602782 -0.053180583 0.41900003
-0.23005106 -0.053497888 0.42150003
-0.2238546 -0.053783461 0.42375001
-0.21732393 -0.054005578 0.42550001
-0.2117184 -0.05448154 0.42925003
-0.2049111 -0.054671921 0.43075001
-0.19828036 -0.054925766 0.43275002
-0.19202018 -0.055306535 0.43575001
-0.18576068 -0.055719033 0.43900001
-0.17877886 -0.05594115 0.44075003
-0.17173569 -0.056163263 0.44250003
-0.16537237 -0.056639224 0.44625002
-0.1585246 -0.056988262 0.44900003
-0.15141268 -0.057273835 0.45125002
-0.14453994 -0.057686333 0.45450002
-0.13717769 -0.057940181 0.45650002
-0.13016982 -0.058384407 0.46000001
-0.12303931 -0.058828637 0.46350002
-0.11529028 -0.059019025 0.46500003
-0.10806472 -0.059526712 0.46900001
-0.10059256 -0.059970941 0.47250003
-0.09265583 -0.060193054 0.47425002
-0.084924571 -0.060605556 0.47750002
-0.077199668 -0.061113246 0.48150003
-0.06915608 -0.061462279 0.48425001
-0.061172746 -0.061969973 0.48825002
-0.053022303 -0.062445931 0.49200001
-0.044672769 -0.062826701 0.49500003
-0.036272649 -0.063302658 0.49875003
-0.02768592 -0.063651696 0.50150001
-0.018993406 -0.063969001 0.50400001
-0.010268737 -0.064635351 0.50925004
-0.001354811 -0.065047853 0.51250005
0.0076767192 -0.065492079 0.51600003
0.016806597 -0.065841109 0.51875001
0.026032841 -0.066190153 0.52150005
0.035490327 -0.066793032 0.52625
0.044986822 -0.067205526 0.52950001
0.054443479 -0.067427643 0.53125
0.064051464 -0.067744948 0.53375
0.073850192 -0.068157449 0.537
0 -0 0
0 -0 0
0.10830168 -0.072314166 0.56975001
0 -0 0
0.13068688 -0.073678583 0.58050001
0 -0 0
0 -0 0
0 -0 0
0 -0 0
0 -0 0
0.19683108 -0.075645886 0.59600002
0 -0 0
0 -0 0
0 -0 0
0 -0 0
0 -0 0
0 -0 0
0 -0 0
0 -0 0
0 -0 0
0 -0 0
0 -0 0
0 -0 0
0 -0 0
0 -0 0
0 -0 0
0 -0 0
0 -0 0
0 -0 0
0 -0 0
0 -0 0
-0.28596437 -0.044511728 0.40650001
-0.27969956 -0.044648603 0.40775001
-0.27389231 -0.044867605 0.40975001
-0.26801497 -0.045086604 0.41175002
-0.26159248 -0.045223478 0.41300002
-0.25620395 -0.045551978 0.41600001
-0.2496632 -0.045688853 0.41725001
-0.24351427 -0.045907855 0.41925001
-0.23701361 -0.046072103 0.42075002
-0.23114264 -0.046373229 0.42350003
-0.22438288 -0.046510104 0.42475003
-0.21847312 -0.046838604 0.42775002
-0.21221162 -0.047112353 0.43025002
-0.20550573 -0.047303978 0.43200001
-0.19908218 -0.047577728 0.43450001
-0.19290152 -0.047933605 0.43775001
-0.18618383 -0.04817998 0.44000003
-0.17918448 -0.048371602 0.44175002
-0.17222083 -0.048590604 0.44375002
-0.1658356 -0.049001228 0.44750002
-0.15914245 -0.049357105 0.45075002
-0.15199988 -0.049603477 0.45300001
-0.14493747 -0.049904604 0.45575002
-0.1378538 -0.0502331 0.45875001
-0.13052355 -0.050506853 0.46125001
-0.12323841 -0.050835352 0.46425003
-0.11584813 -0.051163852 0.46725002
-0.10846795 -0.051547103 0.47075003
-0.10080545 -0.051848225 0.47350001
-0.092948891 -0.052094601 0.47575003
-0.085235812 -0.052477852 0.47925001
-0.077359997 -0.052833725 0.48250002
-0.069406003 -0.053216979 0.48600003
-0.061423328 -0.05368235 0.49025002
-0.053210903 -0.054065604 0.49375004
-0.044740453 -0.054284599 0.49575001
-0.036418103 -0.054832097 0.50075001
-0.027796334 -0.055133227 0.50350004
-0.019087618 -0.055461723 0.50650001
-0.010288901 -0.055872351 0.51025003
-0.0013581153 -0.056255598 0.51375002
0.0076915966 -0.056611475 0.51700002
0.016879493 -0.057049476 0.52100003
0.026170118 -0.057405349 0.52425003
0.035540905 -0.057706472 0.52700001
0.045093026 -0.058117099 0.53075004
0.054494724 -0.0582266 0.53175002
0.064111464 -0.05850035 0.53425002
0.073884577 -0.058828849 0.53725004
0.087328829 -0.061675847 0.56325001
0.097240627 -0.061703224 0.56350005
0.10454748 -0.060224973 0.55000001
0 -0 0
0 -0 0
0 -0 0
0 -0 0
0 -0 0
0 -0 0
0 -0 0
0 -0 0
0 -0 0
0 -0 0
0 -0 0
0 -0 0
0 -0 0
0 -0 0
0 -0 0
0 -0 0
0 -0 0
0 -0 0
0 -0 0
0 -0 0
0 -0 0
0 -0 0
0 -0 0
0 -0 0
0 -0 0
0 -0 0
0 -0 0
0 -0 0
-0.28701958 -0.03756753 0.40800002
-0.28072852 -0.037682626 0.40925002
-0.27472785 -0.037843764 0.41100001
-0.2688286 -0.038027916 0.41300002
-0.26254258 -0.038166035 0.41450003
-0.25681984 -0.038396228 0.41700003
-0.25085992 -0.038603399 0.41925001
-0.24467595 -0.038787555 0.42125002
-0.23799939 -0.038902652 0.42250001
-0.23196132 -0.039132845 0.42500001
-0.22530735 -0.03927096 0.42650002
-0.21936692 -0.039547194 0.42950001
-0.21270484 -0.039708328 0.43125001
-0.20645715 -0.039961539 0.43400002
-0.19988403 -0.040168714 0.43625003
-0.19345234 -0.040421925 0.43900001
-0.18639539 -0.040560044 0.44050002
-0.17959009 -0.040767215 0.44275001
-0.17299703 -0.041043449 0.44575003
-0.16620618 -0.041296661 0.44850001
-0.1594955 -0.04159591 0.45175001
-0.15258709 -0.041872144 0.45475003
-0.1454145 -0.042102337 0.45725003
-0.13815431 -0.04233253 0.45975003
-0.13101877 -0.042631783 0.46300003
-0.12363659 -0.042884994 0.46575001
-0.11609607 -0.043115187 0.46825004
-0.10858316 -0.043391421 0.47125003
-0.10123124 -0.043782748 0.47550002
-0.093388483 -0.044012941 0.47800002
-0.085591517 -0.04431219 0.48125002
-0.077600494 -0.044565406 0.48400003
-0.069691628 -0.044933714 0.48800004
-0.061548617 -0.045232967 0.49125004
-0.053264786 -0.045509197 0.49425003
-0.044898387 -0.045808449 0.49750003
-0.036490832 -0.04619978 0.50175005
-0.027865341 -0.046476007 0.50475001
-0.019172411 -0.046844319 0.50875002
-0.010324189 -0.047143567 0.51200002
-0.0013640634 -0.047511879 0.51600003
0.0077213519 -0.047788113 0.51900005
0.01695239 -0.04817944 0.52325004
0.026244998 -0.048409633 0.52575004
0.035675786 -0.048708882 0.52900004
0.045199223 -0.048985112 0.53200001
0.054648444 -0.049100213 0.53325003
0.064591475 -0.049560599 0.53825003
0.074572198 -0.049928907 0.54225004
0.08767768 -0.052069701 0.56550002
0.095342405 -0.050872698 0.55250001
0.10464253 -0.050688546 0.55050004
0 -0 0
0 -0 0
0 -0 0
0 -0 0
0 -0 0
0 -0 0
0 -0 0
0 -0 0
0 -0 0
0 -0 0
0 -0 0
0 -0 0
0 -0 0
0 -0 0
0 -0 0
0 -0 0
0 -0 0
0 -0 0
0 -0 0
0 -0 0
0 -0 0
0 -0 0
0 -0 0
0 -0 0
0 -0 0
0 -0 0
0 -0 0
0 -0 0
-0.28789893 -0.0305524 0.40925002
-0.28158596 -0.030645719 0.41050002
-0.27539632 -0.030757701 0.41200003
-0.26947954 -0.030907011 0.41400003
-0.26380935 -0.031093648 0.41650003
-0.2575897 -0.031224292 0.41825002
-0.25145829 -0.031373601 0.42025003
-0.24511157 -0.031504247 0.42200002
-0.23884438 -0.031653557 0.42400002
-0.23278001 -0.031840194 0.42650002
-0.22609976 -0.031952176 0.42800003
-0.21987769 -0.032138813 0.43050003
-0.21307477 -0.032250792 0.43200001
-0.20705178 -0.03249342 0.43525001
-0.20034221 -0.03264273 0.43725002
-0.19400318 -0.032866694 0.44025001
-0.18713589 -0.033016004 0.44225001
-0.18060416 -0.033239968 0.44525003
-0.17357919 -0.033389274 0.44725001
-0.16676205 -0.033594575 0.45000002
-0.16055471 -0.033949185 0.45475003
-0.15376146 -0.034210477 0.45825002
-0.14573251 -0.034210477 0.45825002
-0.13875531 -0.034471769 0.46175003
-0.13158472 -0.034714397 0.46500003
-0.12383568 -0.034826376 0.46650001
-0.11665393 -0.035124995 0.47050002
-0.10938961 -0.035442278 0.47475001
-0.10165703 -0.035647579 0.47750002
-0.093779229 -0.035834216 0.48000002
-0.085813835 -0.036020849 0.48250002
-0.07792116 -0.036282141 0.48600003
-0.06990584 -0.036543433 0.48950002
-0.061579939 -0.036692742 0.49150002
-0.053480323 -0.037047353 0.49625003
-0.04516913 -0.037364632 0.50050002
-0.03656356 -0.037532609 0.50275004
-0.02794815 -0.037793897 0.50625002
-0.019228939 -0.038092516 0.51025003
-0.010359476 -0.038353808 0.51375002
-0.0013686896 -0.038652427 0.51775002
0.0077511063 -0.038895052 0.52100003
0.016984787 -0.03913768 0.52425003
0.026344834 -0.039398972 0.52775002
0.03577695 -0.039604273 0.53050005
0.045262944 -0.039772242 0.53275001
0.054827787 -0.039940219 0.53500003
0.064681478 -0.040238839 0.53900003
0.074640952 -0.04051879 0.54275
0 -0 0
0.095169842 -0.04117202 0.55150002
0 -0 0
0 -0 0
0 -0 0
0 -0 0
0 -0 0
0 -0 0
0 -0 0
0 -0 0
0 -0 0
0 -0 0
0 -0 0
0 -0 0
0 -0 0
0 -0 0
0 -0 0
0 -0 0
0 -0 0
0 -0 0
0 -0 0
0 -0 0
0 -0 0
0 -0 0
0 -0 0
0 -0 0
0 -0 0
0 -0 0
0 -0 0
0 -0 0
0 -0 0
-0.28895417 -0.023508022 0.41075003
-0.28278637 -0.023593867 0.41225001
-0.27656606 -0.023679717 0.41375002
-0.27013046 -0.023751257 0.41500002
-0.26444274 -0.023894336 0.41750002
-0.25835952 -0.024008801 0.41950002
-0.25190705 -0.024094649 0.42100003
-0.24554721 -0.024194805 0.42275003
-0.23954852 -0.024337884 0.42525002
-0.23305291 -0.02443804 0.42700002
-0.22689216 -0.024581119 0.42950001
-0.22026074 -0.024681274 0.43125001
-0.21369131 -0.024795739 0.43325001
-0.20776536 -0.024996052 0.43675002
-0.20114402 -0.025124822 0.43900001
-0.19444385 -0.025253596 0.44125003
-0.18777062 -0.025396675 0.44375002
-0.18090838 -0.025525445 0.44600001
-0.17396729 -0.025654219 0.44825003
-0.16722529 -0.025825914 0.45125002
-0.16099602 -0.026097767 0.45600003
-0.15460032 -0.026369616 0.46075001
-0.14652756 -0.026369616 0.46075001
-0.1393563 -0.026541315 0.46375003
-0.13179696 -0.026655776 0.46575001
-0.12456569 -0.026856089 0.46925002
-0.11727376 -0.027070709 0.47300002
-0.10979284 -0.027271021 0.47650003
-0.10186992 -0.027385484 0.47850001
-0.094121128 -0.027571488 0.48175001
-0.086169541 -0.027728876 0.48450002
-0.078241825 -0.027929189 0.48800004
-0.070048653 -0.028072268 0.49050003
-0.061830517 -0.028243965 0.49350002
-0.053695861 -0.028515816 0.49825004
-0.045304503 -0.028730435 0.50200003
-0.036690831 -0.028873516 0.50450003
-0.028072365 -0.029102445 0.50850004
-0.019304309 -0.029317062 0.51225001
-0.010389723 -0.029488759 0.51525003
-0.0013739766 -0.029746301 0.51975
0.0077808606 -0.029932305 0.523
0.017033385 -0.030089695 0.52575004
0.026444675 -0.030318623 0.52975005
0.035861246 -0.030433085 0.53175002
0.045390386 -0.030576166 0.53425002
0.055032749 -0.030733552 0.537
0.064801484 -0.030905249 0.54000002
0 -0 0
0 -0 0
0 -0 0
0 -0 0
0 -0 0
0 -0 0
0 -0 0
0 -0 0
0 -0 0
0 -0 0
0 -0 0
0 -0 0
0 -0 0
0 -0 0
0 -0 0
0 -0 0
0 -0 0
0 -0 0
0 -0 0
0 -0 0
0 -0 0
0 -0 0
0 -0 0
0 -0 0
0 -0 0
0 -0 0
0 -0 0
0 -0 0
0 -0 0
0 -0 0
0 -0 0
0 -0 0
-0.28895417 -0.016351659 0.41075003
-0.28381532 -0.016471086 0.41375002
-0.27723449 -0.016510895 0.41475001
-0.27094409 -0.016570609 0.41625002
-0.26475945 -0.016640274 0.41800001
-0.25897539 -0.016739797 0.42050001
-0.25280458 -0.016819416 0.42250001
-0.24612802 -0.016869178 0.42375001
-0.24039349 -0.016988607 0.42675003
-0.23387159 -0.017058272 0.42850003
-0.22768457 -0.017157795 0.43100002
-0.22089918 -0.017217509 0.43250003
-0.21467777 -0.017326985 0.43525001
-0.20812213 -0.017416555 0.43750003
-0.20137313 -0.017496174 0.43950003
-0.19532518 -0.01764546 0.44325003
-0.18819375 -0.017705172 0.44475001
-0.18131401 -0.017794743 0.44700003
-0.17464647 -0.01791417 0.45000002
-0.16759588 -0.018003743 0.45225003
-0.16090776 -0.018143075 0.45575002
-0.15401313 -0.018272454 0.45900002
-0.14668657 -0.018362025 0.46125001
-0.13980705 -0.018521262 0.46525002
-0.13257514 -0.018650644 0.46850002
-0.12489751 -0.018730262 0.47050002
-0.1175217 -0.018869594 0.47400004
-0.10990804 -0.018989023 0.47700003
-0.10224249 -0.019118402 0.48025003
-0.094316505 -0.019217925 0.48275003
-0.086302929 -0.019317448 0.48525003
-0.078402154 -0.019466734 0.48900002
-0.070262864 -0.019586161 0.49200001
-0.062206388 -0.019765303 0.49650002
-0.053911399 -0.019914588 0.50025004
-0.045484997 -0.020063872 0.50400001
-0.036872648 -0.020183301 0.50700003
-0.028127572 -0.020282824 0.50950003
-0.019360837 -0.020452011 0.51375002
-0.010430052 -0.020591345 0.51725
-0.0013779419 -0.020750582 0.52125001
0.0078031765 -0.020879962 0.52450001
0.017065782 -0.020969532 0.52675003
0.026482115 -0.02111882 0.53050005
0.035979267 -0.021238245 0.53350002
0.045560312 -0.021347722 0.53625005
0.055160854 -0.021427339 0.53825003
0.065251492 -0.021646291 0.54375005
0 -0 0
0.089460693 -0.022969948 0.57700002
0 -0 0
0 -0 0
0 -0 0
0 -0 0
0 -0 0
0 -0 0
0 -0 0
0 -0 0
0 -0 0
0 -0 0
0 -0 0
0 -0 0
0 -0 0
0 -0 0
0 -0 0
0 -0 0
0 -0 0
0 -0 0
0 -0 0
0 -0 0
0 -0 0
0 -0 0
0 -0 0
0 -0 0
0 -0 0
0 -0 0
0 -0 0
0 -0 0
0 -0 0
0 -0 0
-0.28983352 -0.0092232795 0.41200003
-0.28398681 -0.0092680529 0.41400003
-0.27756873 -0.0092960363 0.41525003
-0.27175772 -0.009346406 0.41750002
-0.26586792 -0.0093967756 0.41975003
-0.26005319 -0.0094527425 0.42225003
-0.2537021 -0.0094919186 0.42400002
-0.24699928 -0.0095199021 0.42525002
-0.24081595 -0.0095702717 0.42750001
-0.23441738 -0.009615045 0.42950001
-0.2279487 -0.0096598184 0.43150002
-0.22115456 -0.0096933981 0.43300003
-0.2152943 -0.0097717512 0.43650001
-0.20883569 -0.0098277172 0.43900001
-0.20228949 -0.0098836841 0.44150001
-0.19554552 -0.0099340538 0.44375002
-0.18893427 -0.009995617 0.44650003
-0.18212526 -0.010051584 0.44900003
-0.17522863 -0.01010755 0.45150003
-0.16805911 -0.010152323 0.45350003
-0.16143735 -0.010236274 0.45725003
-0.1541809 -0.010286643 0.45950001
-0.14732261 -0.010370593 0.46325001
-0.14018267 -0.010443349 0.46650001
-0.13264589 -0.010493719 0.46875003
-0.12516296 -0.010555282 0.47150001
-0.1179556 -0.010650425 0.47575003
-0.11019607 -0.010706392 0.47825003
-0.10261505 -0.010790342 0.48200002
-0.094658412 -0.010846308 0.48450002
-0.086658634 -0.010907872 0.48725003
-0.078642651 -0.010980627 0.49050003
-0.070512787 -0.011053384 0.49375004
-0.062425647 -0.011154124 0.49825004
-0.054046109 -0.011226879 0.50150001
-0.045575246 -0.011305233 0.505
-0.036999922 -0.011389183 0.50875002
-0.028293191 -0.011473133 0.51250005
-0.01944563 -0.011551486 0.51600003
-0.010465341 -0.011618646 0.51900005
-0.0013805854 -0.011691402 0.52225
0.0078329323 -0.011786546 0.52650005
0.01713868 -0.011842512 0.52900004
0.026569473 -0.011915268 0.53225005
0.036012989 -0.011954444 0.53400004
0.04568775 -0.012038394 0.53775001
0.055391442 -0.012099958 0.54050004
0.065551504 -0.012228681 0.54625005
0.079385519 -0.012922664 0.57725
0.088685475 -0.012805135 0.57200003
0.097111203 -0.01259806 0.56275004
0 -0 0
0 -0 0
0 -0 0
0 -0 0
0 -0 0
0 -0 0
0 -0 0
0 -0 0
0 -0 0
0 -0 0
0 -0 0
0 -0 0
0 -0 0
0 -0 0
0 -0 0
0 -0 0
0 -0 0
0 -0 0
0 -0 0
0 -0 0
0 -0 0
0 -0 0
0 -0 0
0 -0 0
0 -0 0
0 -0 0
0 -0 0
0 -0 0
0 -0 0
-0.29124048 -0.0020550671 0.41400003
-0.2843298 -0.0020575491 0.41450003
-0.2784043 -0.002067477 0.41650003
-0.27257138 -0.0020786456 0.41875002
-0.26665965 -0.0020898145 0.42100003
-0.26066905 -0.0021009834 0.42325002
-0.25459963 -0.0021121521 0.42550001
-0.24772532 -0.0021171162 0.42650002
-0.24166094 -0.0021295259 0.42900002
-0.23523608 -0.0021394538 0.43100002
-0.22860904 -0.0021481407 0.43275002
-0.22192067 -0.0021568276 0.43450001
-0.21615745 -0.0021754424 0.43825004
-0.20990604 -0.002190334 0.44125003
-0.20297678 -0.0021990209 0.44300002
-0.19576585 -0.0022052259 0.44425002
-0.18967476 -0.0022250817 0.44825003
-0.18253088 -0.0022337686 0.45000002
-0.17581077 -0.0022486602 0.45300001
-0.16880026 -0.0022610703 0.45550004
-0.16187868 -0.0022759619 0.45850003
-0.15485197 -0.0022908538 0.46150002
-0.14787915 -0.0023082276 0.46500003
-0.14033292 -0.0023181553 0.46700001
-0.13285813 -0.0023305651 0.46950004
-0.12556115 -0.0023479389 0.47300002
-0.11814155 -0.0023653128 0.47650003
-0.11042648 -0.0023789634 0.47925001
-0.1029344 -0.0024000602 0.48350003
-0.094804943 -0.0024087471 0.48525003
-0.087058797 -0.0024298436 0.48950002
-0.078883149 -0.0024422535 0.49200001
-0.070691302 -0.0024571454 0.49500003
-0.062488291 -0.0024757602 0.49875003
-0.054207765 -0.0024968567 0.50300002
-0.045688059 -0.0025129896 0.50625002
-0.037163559 -0.0025365683 0.51100004
-0.028431207 -0.0025564241 0.51500005
-0.019530423 -0.0025725567 0.51825005
-0.010515751 -0.0025886896 0.52150005
-0.0013858725 -0.0026023404 0.52425003
0.0078478092 -0.002618473 0.52750003
0.017171077 -0.0026308829 0.53000003
0.026619392 -0.0026470157 0.53325003
0.036114149 -0.0026581846 0.53550005
0.045793951 -0.0026755582 0.53900003
0.055647645 -0.002695414 0.54300004
0 -0 0
0.079282373 -0.0028617056 0.5765
0.087367594 -0.0027971747 0.56350005
0.10060564 -0.002893971 0.583
0 -0 0
0 -0 0
0 -0 0
0 -0 0
0 -0 0
0 -0 0
0 -0 0
0 -0 0
0 -0 0
0 -0 0
0 -0 0
0 -0 0
0 -0 0
0 -0 0
0 -0 0
0 -0 0
0 -0 0
0 -0 0
0 -0 0
0 -0 0
0 -0 0
0 -0 0
0 -0 0
0 -0 0
0 -0 0
0 -0 0
0 -0 0
0 -0 0
0 -0 0
-0.29159221 0.0051641478 0.41450003
-0.28570172 0.0051890654 0.41650003
-0.27957404 0.0052108681 0.41825002
-0.27338502 0.0052326708 0.42000002
-0.26713467 0.0052544735 0.42175001
-0.26082304 0.0052762767 0.42350003
-0.25504839 0.0053105378 0.42625001
-0.24859658 0.005332341 0.42800003
-0.24236508 0.0053603728 0.43025002
-0.23564543 0.0053790612 0.43175003
-0.22900525 0.0054008639 0.43350002
-0.22243142 0.0054257815 0.43550003
-0.21665068 0.0054725017 0.43925002
-0.21026282 0.0055067632 0.44200003
-0.2035495 0.0055347956 0.44425002
-0.196537 0.0055565983 0.44600001
-0.18999213 0.0055939746 0.44900003
-0.1829365 0.0056188921 0.45100003
-0.17648996 0.0056656124 0.45475003
-0.16954142 0.0056998734 0.45750001
-0.16249654 0.0057341354 0.46025002
-0.15569083 0.0057808557 0.46400002
-0.14827667 0.005808888 0.46625003
-0.1408588 0.0058400347 0.46875003
-0.13342407 0.0058742957 0.47150001
-0.12595934 0.0059116725 0.47450003
-0.11838948 0.0059490483 0.47750002
-0.1107145 0.0059864246 0.48050001
-0.10309406 0.0060331449 0.48425001
-0.095342219 0.0060798656 0.48800004
-0.087281115 0.0061141266 0.49075001
-0.079123646 0.0061483886 0.49350002
-0.07097692 0.0061919936 0.49700001
-0.062738866 0.0062387139 0.50075001
-0.054369416 0.0062854346 0.50450003
-0.045868553 0.0063321544 0.50825
-0.037254464 0.0063819895 0.51225001
-0.028472612 0.0064255958 0.51575005
-0.019577527 0.0064723156 0.51950002
-0.010540957 0.0065128063 0.52275002
-0.0013911595 0.0065564117 0.52625
0.0078775631 0.0065969029 0.52950001
0.017243974 0.0066311648 0.53225005
0.02669427 0.0066623115 0.53475004
0.036316466 0.0067090313 0.53850001
0.045900151 0.006730834 0.54025
0.055775743 0.0067806691 0.54425001
0 0 0
0 0 0
0.087135032 0.0070018121 0.56200004
0 0 0
0 0 0
0 0 0
0 0 0
0 0 0
0 0 0
0 0 0
0 0 0
0 0 0
0 0 0
0 0 0
0 0 0
0 0 0
0 0 0
0 0 0
0 0 0
0 0 0
0 0 0
0 0 0
0 0 0
0 0 0
0 0 0
0 0 0
0 0 0
0 0 0
0 0 0
0 0 0
0 0 0
0 0 0
0 0 0
-0.29176807 0.012393315 0.41475001
-0.28604469 0.012460548 0.41700003
-0.28007537 0.012520311 0.41900003
-0.27419868 0.012587545 0.42125002
-0.26808479 0.012647307 0.42325002
-0.26190081 0.01270707 0.42525002
-0.25564677 0.012766833 0.42725003
-0.2491774 0.012819125 0.42900002
-0.24292837 0.012886358 0.43125001
-0.23632766 0.012938651 0.43300003
-0.22979765 0.012998414 0.43500003
-0.22319755 0.013058176 0.43700001
-0.21677399 0.01313288 0.43950003
-0.21050067 0.013222525 0.44250003
-0.2040077 0.013304699 0.44525003
-0.19719802 0.013371931 0.44750002
-0.19030949 0.013439165 0.44975004
-0.18354493 0.013521339 0.45250002
-0.17707211 0.013633394 0.45625001
-0.16991201 0.013700628 0.45850003
-0.16311438 0.013805212 0.46200001
-0.15594248 0.013887386 0.46475002
-0.1487537 0.01397703 0.46775001
-0.14130954 0.014051734 0.47025001
-0.13370706 0.014118968 0.47250003
-0.1262248 0.014208611 0.47550002
-0.11857543 0.014290785 0.47825003
-0.11088731 0.014380429 0.48125002
-0.10336018 0.014507426 0.48550004
-0.095342219 0.014582129 0.48800004
-0.087236658 0.014656832 0.49050003
-0.079283975 0.014776357 0.49450001
-0.071119733 0.014880943 0.49800003
-0.062864162 0.014992999 0.50175005
-0.054558013 0.015127465 0.50625002
-0.045981362 0.01522458 0.50950003
-0.03730901 0.015329164 0.51300001
-0.028555417 0.01545616 0.51725
-0.019634057 0.015568215 0.52100003
-0.010576244 0.015672799 0.52450001
-0.0013951248 0.015769916 0.52775002
0.0079073189 0.015881971 0.53150004
0.017284472 0.015941733 0.53350002
0.02676915 0.016023908 0.53625005
0.036400769 0.016128492 0.53975004
0.046027593 0.016188255 0.54175001
0.056236915 0.016397426 0.54875004
0 0 0
0 0 0
0 0 0
0 0 0
0 0 0
0 0 0
0 0 0
0 0 0
0 0 0
0 0 0
0 0 0
0 0 0
0 0 0
0 0 0
0 0 0
0 0 0
0 0 0
0 0 0
0 0 0
0 0 0
0 0 0
0 0 0
0 0 0
0 0 0
0 0 0
0 0 0
0 0 0
0 0 0
0 0 0
0 0 0
0 0 0
0 0 0
0 0 0
-0.29317504 0.019713975 0.41675001
-0.28690213 0.019784933 0.41825002
-0.28124514 0.019903192 0.42075002
-0.27566323 0.020033279 0.42350003
-0.26935157 0.020116061 0.42525002
-0.26251668 0.020163365 0.42625001
-0.25654426 0.020281624 0.42875001
-0.25004867 0.020364407 0.43050003
-0.24363254 0.020459015 0.43250003
-0.2370099 0.020541798 0.43425003
-0.23085418 0.020671884 0.43700001
-0.22383599 0.020731015 0.43825004
-0.21726722 0.020837449 0.44050002
-0.2110953 0.020991186 0.44375002
-0.20435134 0.021097619 0.44600001
-0.19763868 0.02121588 0.44850001
-0.19094419 0.021345966 0.45125002
-0.1844576 0.021511531 0.45475003
-0.17726617 0.02160614 0.45675004
-0.1709311 0.021819007 0.46125001
-0.16346745 0.02190179 0.46300003
-0.15611026 0.022008223 0.46525002
-0.14891271 0.022150137 0.46825004
-0.14168516 0.022303874 0.47150001
-0.13427301 0.022445787 0.47450003
-0.12662299 0.022564046 0.47700003
-0.11944321 0.022788741 0.48175001
-0.11134814 0.022859696 0.48325002
-0.10351985 0.023001609 0.48625001
-0.095586434 0.023143522 0.48925003
-0.087725744 0.023332737 0.49325001
-0.079684801 0.023510128 0.49700001
-0.071441062 0.023663867 0.50025004
-0.063146062 0.023841256 0.50400001
-0.054827433 0.024065951 0.50875002
-0.046094172 0.024160558 0.51075
-0.037527192 0.024408907 0.51600003
-0.028693434 0.024586296 0.51975
-0.019709427 0.024740033 0.523
-0.010591367 0.024846468 0.52525002
-0.0013990902 0.025035685 0.52925003
0.0079184771 0.025177598 0.53225005
0.017300671 0.02526038 0.53400004
0.026806585 0.025402291 0.537
0.036468208 0.025579682 0.54075003
0.046176273 0.025709767 0.54350001
0.055955086 0.025828028 0.546
0 0 0
0 0 0
0 0 0
0 0 0
0 0 0
0 0 0
0 0 0
0 0 0
0 0 0
0 0 0
0 0 0
0 0 0
0 0 0
0 0 0
0 0 0
0 0 0
0 0 0
0 0 0
0 0 0
0 0 0
0 0 0
0 0 0
0 0 0
0 0 0
0 0 0
0 0 0
0 0 0
0 0 0
0 0 0
0 0 0
0 0 0
0 0 0
0 0 0
-0.29405439 0.027055781 0.41800001
-0.28758809 0.027136689 0.41925001
-0.28191358 0.027298506 0.42175001
-0.2759887 0.027444143 0.42400002
-0.26998496 0.027589777 0.42625001
-0.26313257 0.027654504 0.42725003
-0.25699306 0.027800139 0.42950001
-0.25048426 0.02791341 0.43125001
-0.244055 0.028042864 0.43325001
-0.23769213 0.028188501 0.43550003
-0.23151453 0.028366499 0.43825004
-0.2246021 0.028463589 0.43975002
-0.21788375 0.028593043 0.44175002
-0.2114521 0.028771041 0.44450003
-0.20503862 0.028965222 0.44750002
-0.19840986 0.02914322 0.45025003
-0.19200206 0.029369762 0.45375001
-0.18486321 0.029499216 0.45575002
-0.17784832 0.029661033 0.45825002
-0.17111641 0.029887578 0.46175003
-0.16399704 0.030065576 0.46450001
-0.1569491 0.030275937 0.46775001
-0.14970776 0.030470118 0.47075003
-0.14243641 0.030680481 0.47400004
-0.13498046 0.03087466 0.47700003
-0.12708753 0.030987931 0.47875002
-0.11975312 0.03126302 0.48300001
-0.11175136 0.031392474 0.48500001
-0.10394564 0.031602837 0.48825002
-0.096026026 0.031813197 0.49150002
-0.088036992 0.032039743 0.49500003
-0.079885222 0.032250103 0.49825004
-0.07172668 0.03250901 0.50225002
-0.06339664 0.032751735 0.50600004
-0.054962147 0.033010643 0.51000005
-0.046387479 0.033269547 0.514
-0.037581738 0.033447549 0.51675004
-0.028734839 0.033690274 0.5205
-0.019728269 0.033884455 0.52350003
-0.010636738 0.034143362 0.52750003
-0.0014004121 0.034288999 0.52975005
0.0079296352 0.034499358 0.53300005
0.017341167 0.034644991 0.53525001
0.026881466 0.034855355 0.53850001
0.036535647 0.035065718 0.54175001
0.046388675 0.035340805 0.546
0 0 0
0 0 0
0 0 0
0 0 0
0 0 0
0 0 0
0 0 0
0 0 0
0 0 0
0 0 0
0 0 0
0 0 0
0 0 0
0 0 0
0 0 0
0 0 0
0 0 0
0 0 0
0 0 0
0 0 0
0 0 0
0 0 0
0 0 0
0 0 0
0 0 0
0 0 0
0 0 0
0 0 0
0 0 0
0 0 0
0 0 0
0 0 0
0 0 0
0 0 0
-0.29405439 0.034338456 0.41800001
-0.28827405 0.034523293 0.42025003
-0.28274912 0.034749202 0.42300001
-0.27663961 0.034913503 0.42500001
-0.27014333 0.035036728 0.42650002
-0.26359448 0.035159953 0.42800003
-0.25744182 0.035344787 0.43025002
-0.25077471 0.035468012 0.43175003
-0.2444775 0.035652846 0.43400002
-0.23864727 0.035919834 0.43725002
-0.23191072 0.036063593 0.43900001
-0.22524054 0.036227893 0.44100001
-0.21887021 0.036453806 0.44375002
-0.21252243 0.036700252 0.44675002
-0.20561135 0.036864553 0.44875002
-0.19951151 0.037193149 0.45275003
-0.19263679 0.037398525 0.45525002
-0.18577588 0.037624434 0.45800003
-0.17901263 0.037891418 0.46125001
-0.17157963 0.03803518 0.46300003
-0.16470316 0.038322702 0.46650001
-0.15762019 0.03858969 0.46975002
-0.15026429 0.038815603 0.47250003
-0.14266178 0.039000437 0.47475001
-0.13540491 0.039308496 0.47850001
-0.12755208 0.039472796 0.48050001
-0.11993908 0.03973978 0.48375002
-0.11203939 0.039945155 0.48625001
-0.10437143 0.040273752 0.49025002
-0.096367925 0.040520202 0.49325001
-0.08825931 0.040766649 0.49625003
-0.080125719 0.041054171 0.49975002
-0.071833789 0.041321158 0.50300002
-0.063490614 0.041629221 0.50675005
-0.055123795 0.042019427 0.5115
-0.046477731 0.042306952 0.51500005
-0.037636284 0.042512327 0.51750004
-0.028776243 0.042820383 0.52125001
-0.019765954 0.043087371 0.52450001
-0.010661943 0.043436505 0.52875
-0.0014023947 0.043580271 0.53050005
0.0079631079 0.043970477 0.53525001
0.017446462 0.044237461 0.53850001
0.026981305 0.044401765 0.54050004
0.03661995 0.044607136 0.54300004
0.046431158 0.044894658 0.54650003
0 0 0
0 0 0
0 0 0
0 0 0
0 0 0
0 0 0
0 0 0
0 0 0
0 0 0
0 0 0
0 0 0
0 0 0
0 0 0
0 0 0
0 0 0
0 0 0
0 0 0
0 0 0
0 0 0
0 0 0
0 0 0
0 0 0
0 0 0
0 0 0
0 0 0
0 0 0
0 0 0
0 0 0
0 0 0
0 0 0
0 0 0
0 0 0
0 0 0
0 0 0
-0.29458198 0.041695815 0.41875002
-0.28930297 0.041994531 0.42175001
-0.28274912 0.042118996 0.42300001
-0.2771278 0.04239282 0.42575002
-0.27046001 0.042517286 0.42700002
-0.2639024 0.042666644 0.42850003
-0.25818977 0.04296536 0.43150002
-0.25150073 0.043114718 0.43300003
-0.24518164 0.043338753 0.43525001
-0.23892017 0.043587685 0.43775001
-0.23230693 0.043786827 0.43975002
-0.22613436 0.044085544 0.44275001
-0.21948674 0.044309583 0.44500002
-0.21323599 0.044633191 0.44825003
-0.20618409 0.044807442 0.45000002
-0.2001725 0.045230623 0.45425001
-0.19358885 0.045554232 0.45750001
-0.18678993 0.045852952 0.46050003
-0.17949776 0.046052095 0.46250004
-0.17250609 0.046350811 0.46550003
-0.16532104 0.046624634 0.46825004
-0.15787184 0.046848673 0.47050002
-0.15058231 0.047147386 0.47350001
-0.14318767 0.047446106 0.47650003
-0.1356879 0.047744822 0.47950003
-0.12814936 0.04806843 0.48275003
-0.12055892 0.048416931 0.48625001
-0.11273064 0.048715651 0.48925003
-0.10479722 0.049014363 0.49225003
-0.096514456 0.049188614 0.49400002
-0.088214844 0.04938776 0.49600002
-0.080566622 0.050034977 0.5025
-0.072155111 0.050308805 0.50525004
-0.063741185 0.050657306 0.50875002
-0.055123795 0.050931126 0.5115
-0.046477731 0.051279631 0.51500005
-0.037690829 0.051603243 0.51825005
-0.028762443 0.051877063 0.52100003
-0.019831903 0.052399814 0.52625
-0.010677066 0.052723423 0.52950001
-0.001411647 0.053171501 0.53400004
0.007989144 0.053470213 0.537
0.01751126 0.053818721 0.54050004
0.027118582 0.054092541 0.54325002
0.036855988 0.05441615 0.54650003
0.04651612 0.054515723 0.54750001
0 0 0
0 0 0
0 0 0
0.094034508 0.060390476 0.60650003
0.10509235 0.060639407 0.60900003
0 0 0
0 0 0
0 0 0
0 0 0
0 0 0
0 0 0
0 0 0
0 0 0
0 0 0
0 0 0
0 0 0
0 0 0
0 0 0
0 0 0
0 0 0
0 0 0
0 0 0
0 0 0
0 0 0
0 0 0
0 0 0
0 0 0
0 0 0
0 0 0
0 0 0
0 0 0
0 0 0
0 0 0
0 0 0
-0.2951096 0.049079306 0.41950002
-0.28947449 0.04937179 0.42200002
-0.28308335 0.049547285 0.42350003
-0.27729052 0.049839772 0.42600003
-0.27109343 0.050073761 0.42800003
-0.26451826 0.050249252 0.42950001
-0.25908729 0.050658736 0.43300003
-0.25222677 0.050804976 0.43425003
-0.24574496 0.051038969 0.43625003
-0.2393295 0.051302206 0.43850002
-0.2332314 0.051653188 0.44150001
-0.22715585 0.052033421 0.44475001
-0.22010328 0.052208915 0.44625002
-0.21418741 0.052676894 0.45025003
-0.2074441 0.052969381 0.45275003
-0.20061317 0.053261869 0.45525002
-0.19464672 0.053817593 0.46000001
-0.18729696 0.054022335 0.46175003
-0.18075909 0.054490309 0.46575001
-0.17343254 0.054753549 0.46800002
-0.16576235 0.054929044 0.46950004
-0.15812349 0.055133786 0.47125003
-0.15082082 0.055484768 0.47425002
-0.14393891 0.056040496 0.47900003
-0.13611238 0.056274485 0.48100004
-0.12894572 0.056830209 0.48575002
-0.12130273 0.057239689 0.48925003
-0.11313386 0.057444431 0.49100003
-0.10532945 0.057883162 0.49475002
-0.099347375 0.059491839 0.50850004
-0.0912828 0.060047567 0.51325005
-0 0 0
-0 0 0
-0 0 0
-0 0 0
-0 0 0
-0 0 0
-0.029424919 0.062358215 0.53300005
-0.019850748 0.061626993 0.52675003
-0.010687148 0.062007226 0.53000003
-0.0014103252 0.062416706 0.53350002
0.0079779867 0.062738448 0.53625005
0.01749506 0.063177176 0.54000002
0.027180983 0.063703656 0.54450005
0.036990866 0.064171627 0.5485
0 0 0
0 0 0
0 0 0
0 0 0
0.094615929 0.07139606 0.61025006
0.10530806 0.07139606 0.61025006
0 0 0
0 0 0
0 0 0
0 0 0
0 0 0
0 0 0
0 0 0
0 0 0
0 0 0
0 0 0
0 0 0
0 0 0
0 0 0
0 0 0
0 0 0
0 0 0
0 0 0
0 0 0
0 0 0
0 0 0
0 0 0
0 0 0
0 0 0
0 0 0
0 0 0
0 0 0
0 0 0
0 0 0
0 0 0
-0.29563722 0.056488927 0.42025003
-0.28981745 0.056791365 0.42250001
-0.28391889 0.057093807 0.42475003
-0.27810419 0.05742985 0.42725003
-0.27156845 0.057631474 0.42875001
-0.26528811 0.05790031 0.43075001
-0.25953606 0.058303565 0.43375003
-0.25309801 0.058572397 0.43575001
-0.2464491 0.05880763 0.43750003
-0.24069399 0.05927809 0.44100001
-0.23428793 0.059614133 0.44350001
-0.22804968 0.060017388 0.44650003
-0.22145966 0.060353432 0.44900003
-0.2150199 0.06075668 0.45200002
-0.20790228 0.060991909 0.45375001
-0.20193517 0.061596788 0.45825002
-0.19528143 0.062033646 0.46150002
-0.18820961 0.062369689 0.46400002
-0.18105017 0.062705733 0.46650001
-0.17398842 0.063108988 0.46950004
-0.16673326 0.063478634 0.47225001
-0.16005285 0.064117119 0.47700003
-0.15416004 0.065158851 0.48475003
-0 0 0
-0 0 0
-0 0 0
-0 0 0
-0 0 0
-0 0 0
-0 0 0
-0 0 0
-0 0 0
-0 0 0
-0 0 0
-0 0 0
-0 0 0
-0 0 0
-0 0 0
-0.011635344 0.041501381 0.30875
-0.006119905 0.040795695 0.30350003
-0.00079768623 0.040560462 0.30175
0.0044818055 0.040493254 0.30125001
0.0096951788 0.040224418 0.29925001
0.015075586 0.040594067 0.30200002
0.020299457 0.040459651 0.30100003
0 0 0
0 0 0
0 0 0
0 0 0
0 0 0
0 0 0
0 0 0
0 0 0
0 0 0
0 0 0
0 0 0
0 0 0
0 0 0
0 0 0
0 0 0
0 0 0
0 0 0
0 0 0
0 0 0
0 0 0
0 0 0
0 0 0
0 0 0
0 0 0
0 0 0
0 0 0
0 0 0
0 0 0
0 0 0
0 0 0
0 0 0
0 0 0
0 0 0
0 0 0
0 0 0
-0.29669243 0.064038567 0.42175001
-0.29084641 0.064380206 0.42400002
-0.28442019 0.064607963 0.42550001
-0.27891782 0.065063491 0.42850003
-0.27236021 0.065291248 0.43000001
-0.26590401 0.065556973 0.43175003
-0.25983524 0.065936573 0.43425003
-0.25367886 0.066316172 0.43675002
-0.24729405 0.066657811 0.43900001
-0.24123979 0.067113332 0.44200003
-0.23508035 0.067568853 0.44500002
-0.22843273 0.067910485 0.44725001
-0.22232281 0.068441927 0.45075002
-0.21573347 0.068859495 0.45350003
-0.2089332 0.069239095 0.45600003
-0.20259617 0.069808491 0.45975003
-0.19570459 0.070226051 0.46250004
-0.1895279 0.070947289 0.46725002
-0.18221448 0.071288936 0.46950004
-0 0 0
-0 0 0
-0 0 0
-0 0 0
-0 0 0
-0 0 0
-0 0 0
-0 0 0
-0 0 0
-0 0 0
-0 0 0
-0 0 0
-0 0 0
-0 0 0
-0 0 0
-0.033785556 0.047601875 0.31350002
-0.027999446 0.047108393 0.31025001
-0.022054499 0.046045516 0.30325001
-0.016755089 0.046083476 0.30350003
-0.011286756 0.045476116 0.29950002
-0.0059384252 0.044716913 0.29450002
-0.00077785976 0.044678953 0.29425001
0.0043516289 0.044413235 0.29250002
0.0094683906 0.044375271 0.29225001
0.014551434 0.044261392 0.2915
0.019844234 0.044678953 0.29425001
0.025190923 0.045020595 0.29650003
0 0 0
0 0 0
0.041188333 0.045476116 0.29950002
0 0 0
0 0 0
0 0 0
0 0 0
0 0 0
0 0 0
0 0 0
0 0 0
0 0 0
0 0 0
0 0 0
0 0 0
0 0 0
0 0 0
0 0 0
0 0 0
0 0 0
0 0 0
0 0 0
0 0 0
0 0 0
0 0 0
0 0 0
0 0 0
0 0 0
0 0 0
0 0 0
0 0 0
0 0 0
0 0 0
0 0 0
-0.29739591 0.071555838 0.42275003
-0.29136088 0.071894363 0.42475003
-0.28558999 0.072317518 0.42725003
-0.27924326 0.072613731 0.42900002
-0.27315193 0.072994567 0.43125001
-0.26682779 0.073333092 0.43325001
-0.26088235 0.073798567 0.43600002
-0.25513095 0.074348673 0.43925002
-0.24842067 0.074644886 0.44100001
-0.24233137 0.075152673 0.44400004
-0.23600481 0.07561814 0.44675002
-0.22932655 0.075998984 0.44900003
-0.22244613 0.076337516 0.45100003
-0.2163281 0.076972246 0.45475003
-0.21007867 0.077606983 0.45850003
-0.206452 0.079299606 0.46850002
-0 0 0
-0 0 0
-0 0 0
-0 0 0
-0 0 0
-0 0 0
-0 0 0
-0 0 0
-0 0 0
-0 0 0
-0 0 0
-0 0 0
-0 0 0
-0 0 0
-0 0 0
-0 0 0
-0.043557264 0.051625144 0.30500001
-0.038589261 0.052132938 0.30800003
-0.032546211 0.051117357 0.30200002
-0.027051842 0.050736513 0.29975
-0.0214545 0.049932521 0.29500002
-0.016092613 0.049340095 0.2915
-0.010891059 0.04891694 0.289
-0.0057821507 0.048536103 0.28675002
-0.00075538969 0.048366837 0.28575
0.004254926 0.048409153 0.28600001
0.0093064001 0.048620731 0.28725001
0.014351758 0.04866305 0.28750002
0.019490175 0.04891694 0.289
0.024702396 0.049213152 0.29075003
0.03007842 0.049678624 0.29350001
0.035310809 0.04980557 0.29425001
0.04074138 0.050144099 0.29625002
0 0 0
0 0 0
0 0 0
0 0 0
0 0 0
0 0 0
0 0 0
0 0 0
0 0 0
0 0 0
0 0 0
0 0 0
0 0 0
0 0 0
0 0 0
0 0 0
0 0 0
0 0 0
0 0 0
0 0 0
0 0 0
0 0 0
0 0 0
0 0 0
0 0 0
0 0 0
0 0 0
0 0 0
0 0 0
0 0 0
0 0 0
-0.29809937 0.079107963 0.42375001
-0.29187533 0.079434656 0.42550001
-0.28642553 0.079994716 0.42850003
-0.28005692 0.080321416 0.43025002
-0.27473545 0.080974817 0.43375003
-0.26821354 0.081301518 0.43550003
-0.26237825 0.08186157 0.43850002
-0.25527614 0.08204826 0.43950003
-0.24912481 0.082561642 0.44225001
-0.24355939 0.083308384 0.44625002
-0.23745757 0.083915114 0.44950002
-0.23060343 0.084288485 0.45150003
-0.22343257 0.084568508 0.45300001
-0 0 0
-0 0 0
-0 0 0
-0 0 0
-0 0 0
-0 0 0
-0 0 0
-0 0 0
-0 0 0
-0 0 0
-0 0 0
-0 0 0
-0 0 0
-0 0 0
-0 0 0
-0 0 0
-0 0 0
-0.055267666 0.058012504 0.31075001
-0.04910155 0.057172418 0.30625001
-0.042664699 0.055772278 0.29875001
-0.036803879 0.054838851 0.29375002
-0.03130687 0.054232124 0.29050002
-0.025765808 0.053298697 0.28550002
-0.02043632 0.052458614 0.28100002
-0.015388734 0.052038569 0.27875
-0.010448257 0.051758543 0.27725002
-0.0055704238 0.051571853 0.27625
-0.00072961533 0.051525187 0.27600002
0.004124749 0.051758543 0.27725002
0.0089662177 0.051665194 0.27675
0.013877526 0.051898558 0.27800003
0.018916935 0.05236527 0.28050002
0.02415015 0.053065341 0.28425002
0.029412288 0.053578723 0.287
0.034740798 0.054045442 0.28950003
0.040500715 0.054978866 0.29450002
0.045931943 0.055305567 0.29625002
0 0 0
0 0 0
0 0 0
0 0 0
0 0 0
0 0 0
0 0 0
0 0 0
0 0 0
0 0 0
0 0 0
0 0 0
0 0 0
0 0 0
0 0 0
0 0 0
0 0 0
0 0 0
0 0 0
0 0 0
0 0 0
0 0 0
0 0 0
0 0 0
0 0 0
0 0 0
0 0 0
0 0 0
0 0 0
0 0 0
-0.29897875 0.086745948 0.42500001
-0.29307577 0.087205194 0.42725003
-0.28692687 0.087613411 0.42925003
-0.28070784 0.088021621 0.43125001
-0.27505213 0.088633947 0.43425003
-0.26867545 0.089042164 0.43625003
-0.26282701 0.08965449 0.43925002
-0.25629261 0.090062708 0.44125003
-0.25067392 0.090828113 0.44500002
-0.24451452 0.091440432 0.44800001
-0.23838204 0.092103787 0.45125002
-0 0 0
-0 0 0
-0 0 0
-0 0 0
-0 0 0
-0 0 0
-0 0 0
-0 0 0
-0 0 0
-0 0 0
-0 0 0
-0 0 0
-0 0 0
-0 0 0
-0 0 0
-0 0 0
-0 0 0
-0 0 0
-0.060175009 0.062865302 0.30800003
-0.053933773 0.061895784 0.30325001
-0.047377989 0.060313947 0.29550001
-0.041557916 0.059395459 0.29100001
-0.035613626 0.058017734 0.28425002
-0.030013643 0.056844112 0.27850002
-0.024840767 0.05618076 0.27525002
-0.019963594 0.056027677 0.27450001
-0.015181711 0.056129731 0.27500001
-0.010354045 0.056078706 0.27475002
-0.0055300952 0.055976648 0.27425
-0.00072498905 0.055976648 0.27425
0.0040875557 0.056078706 0.27475002
0.0088933222 0.056027677 0.27450001
0.013715289 0.056078706 0.27475002
0.018562874 0.05618076 0.27525002
0.023427982 0.056282811 0.27575001
0.028515574 0.056793083 0.27825001
0.033960778 0.057762597 0.28300002
0.039641187 0.058834162 0.28825
0.045001674 0.059242379 0.29025
0.050691098 0.059956759 0.29375002
0 0 0
0 0 0
0 0 0
0 0 0
0 0 0
0 0 0
0 0 0
0 0 0
0 0 0
0 0 0
0 0 0
0 0 0
0 0 0
0 0 0
0 0 0
0 0 0
0 0 0
0 0 0
0 0 0
0 0 0
0 0 0
0 0 0
0 0 0
0 0 0
0 0 0
0 0 0
0 0 0
0 0 0
0 0 0
-0.29933047 0.094261348 0.42550001
-0.2937617 0.09487056 0.42825001
-0.28792951 0.095424384 0.43075001
-0.28217241 0.096033596 0.43350002
-0.27631894 0.096642807 0.43625003
-0.26944527 0.096919723 0.43750003
-0.26252782 0.097196639 0.43875003
-0.25672823 0.097916611 0.44200003
-0.2520822 0.099135026 0.44750002
-0 0 0
-0 0 0
-0 0 0
-0 0 0
-0 0 0
-0 0 0
-0 0 0
-0 0 0
-0 0 0
-0 0 0
-0 0 0
-0 0 0
-0 0 0
-0 0 0
-0 0 0
-0 0 0
-0 0 0
-0 0 0
-0 0 0
-0 0 0
-0.059246983 0.06717921 0.30325001
-0.052599881 0.065517731 0.29575002
-0.045975085 0.063523956 0.28675002
-0.039986998 0.06202862 0.28
-0.034579989 0.0611425 0.27600002
-0.029609511 0.060865588 0.27475002
-0.024705393 0.060644053 0.27375001
-0.019872684 0.060533289 0.27325001
-0.015098902 0.060588673 0.27350003
-0.010288094 0.060477905 0.273
-0.0054948074 0.060367141 0.27250001
-0.00071970205 0.060311761 0.27225003
0.0040578009 0.060422525 0.27275002
0.0088285254 0.060367141 0.27250001
0.013640409 0.060533289 0.27325001
0.018461714 0.060644053 0.27375001
0.02330054 0.060754817 0.27425
0.028131267 0.060810201 0.27450001
0.033150759 0.061197881 0.27625
0.038369097 0.061807092 0.27900001
0.044265214 0.06324704 0.28550002
0.050043978 0.064243928 0.29000002
0.055790335 0.065019287 0.29350001
0.061399836 0.065517731 0.29575002
0 0 0
0 0 0
0 0 0
0 0 0
0 0 0
0 0 0
0 0 0
0 0 0
0 0 0
0 0 0
0 0 0
0 0 0
0 0 0
0 0 0
0 0 0
0 0 0
0 0 0
0 0 0
0 0 0
0 0 0
0 0 0
0 0 0
0 0 0
0 0 0
0 0 0
0 0 0
0 0 0
-0.30003396 0.10191365 0.42650002
-0.29496214 0.10274998 0.43000001
-0.28943351 0.10346685 0.43300003
-0.28298604 0.10388501 0.43475002
-0.27695233 0.1044824 0.43725002
-0.26990718 0.10472135 0.43825004
-0.26237825 0.10478109 0.43850002
-0 0 0
-0 0 0
-0 0 0
-0 0 0
-0 0 0
-0 0 0
-0 0 0
-0 0 0
-0 0 0
-0 0 0
-0 0 0
-0 0 0
-0 0 0
-0 0 0
-0 0 0
-0 0 0
-0 0 0
-0 0 0
-0 0 0
-0 0 0
-0 0 0
-0.064932764 0.072880805 0.30500001
-0.057781681 0.070670485 0.29575002
-0.051088132 0.068639375 0.28725001
-0.044612266 0.066488795 0.27825001
-0.039272945 0.065712199 0.27500001
-0.034329407 0.065473251 0.27400002
-0.029447855 0.065294035 0.27325001
-0.024592584 0.065114811 0.27250001
-0.01972723 0.064816125 0.27125001
-0.014933283 0.064636908 0.2705
-0.010203303 0.064696647 0.27075002
-0.0054443963 0.064517431 0.27000001
-0.00071309315 0.064457692 0.26975
0.0040094494 0.064397953 0.26950002
0.0087556299 0.06457717 0.27025002
0.013553051 0.064875863 0.27150002
0.018343695 0.064995341 0.27200001
0.023151858 0.065114811 0.27250001
0.028003165 0.065294035 0.27325001
0.032880753 0.065473251 0.27400002
0.037819002 0.065712199 0.27500001
0.042986099 0.066249847 0.27725002
0.04913801 0.068041995 0.28475001
0.055362646 0.069595195 0.29125002
0.061296035 0.070551008 0.29525003
0.066075101 0.070132837 0.29350001
0 0 0
0 0 0
0 0 0
0 0 0
0 0 0
0 0 0
0 0 0
0 0 0
0 0 0
0 0 0
0 0 0
0 0 0
0 0 0
0 0 0
0 0 0
0 0 0
0 0 0
0 0 0
0 0 0
0 0 0
0 0 0
0 0 0
0 0 0
0 0 0
0 0 0
0 0 0
-0.30196854 0.11004946 0.42925003
-0.29530513 0.11036993 0.43050003
-0.29043615 0.11139543 0.43450001
-0.28331149 0.11158771 0.43525001
-0.27711067 0.11216456 0.43750003
-0 0 0
-0 0 0
-0 0 0
-0 0 0
-0 0 0
-0 0 0
-0 0 0
-0 0 0
-0 0 0
-0 0 0
-0 0 0
-0 0 0
-0 0 0
-0 0 0
-0 0 0
-0 0 0
-0 0 0
-0 0 0
-0 0 0
-0 0 0
-0 0 0
-0 0 0
-0.069988616 0.077874251 0.30375001
-0.063868292 0.076912835 0.30000001
-0.056755971 0.074477263 0.29050002
-0.049442999 0.071272567 0.27800003
-0.043930858 0.070247062 0.27400002
-0.03905873 0.070118874 0.27350003
-0.034172796 0.06992659 0.27275002
-0.029286202 0.069670208 0.27175
-0.024389528 0.069285654 0.27025002
-0.01952723 0.068836987 0.2685
-0.014795267 0.0687088 0.26800001
-0.010109089 0.068772897 0.26825002
-0.005429273 0.069029272 0.26925001
-0.00071309315 0.069157459 0.26975
0.0040094494 0.069093369 0.26950002
0.0086989319 0.068836987 0.2685
0.013378333 0.0687088 0.26800001
0.018107653 0.068836987 0.2685
0.022918215 0.069157459 0.26975
0.027772581 0.069477938 0.27100003
0.032730751 0.06992659 0.27275002
0.037681479 0.070247062 0.27400002
0.042559724 0.070375249 0.27450001
0.047930051 0.07120847 0.27775002
0.054459732 0.073451757 0.28650001
0.060517501 0.074733637 0.2915
0.065906256 0.075054109 0.29275
0.071035497 0.075054109 0.29275
0.076229781 0.075118206 0.29300001
0 0 0
0.19114959 0.16600354 0.64750004
0 0 0
0 0 0
0 0 0
0 0 0
0 0 0
0 0 0
0 0 0
0 0 0
0 0 0
0 0 0
0 0 0
0 0 0
0 0 0
0 0 0
0 0 0
0 0 0
0 0 0
0 0 0
0 0 0
0 0 0
0 0 0
0 0 0
-0.30319962 0.11800729 0.43100002
-0.29633406 0.11828108 0.43200001
-0.28993484 0.11876024 0.43375003
-0 0 0
-0 0 0
-0 0 0
-0 0 0
-0 0 0
-0 0 0
-0 0 0
-0 0 0
-0 0 0
-0 0 0
-0 0 0
-0 0 0
-0 0 0
-0 0 0
-0 0 0
-0 0 0
-0 0 0
-0 0 0
-0 0 0
-0 0 0
-0 0 0
-0 0 0
-0 0 0
-0 0 0
-0.069758199 0.082892589 0.30275002
-0.062857047 0.080839105 0.29525003
-0.054655708 0.076595217 0.27975002
-0.048820514 0.075157769 0.27450001
-0.04381061 0.074815527 0.27325001
-0.038880218 0.074541725 0.27225003
-0.033890892 0.074062578 0.2705
-0.028962895 0.073583432 0.26875001
-0.02420903 0.073446535 0.26825002
-0.01972723 0.074267924 0.27125001
-0.015305926 0.075910725 0.27725002
-0.01053305 0.076526769 0.27950001
-0.0056662052 0.076937467 0.28100002
-0.00074283296 0.076937467 0.28100002
0.0041768197 0.076869011 0.28075001
0.0090634134 0.076595217 0.27975002
0.013840087 0.075910725 0.27725002
0.018411133 0.074747071 0.273
0.022833254 0.073583432 0.26875001
0.027516374 0.073514976 0.2685
0.032310739 0.073720329 0.26925001
0.037303288 0.074267924 0.27125001
0.042327154 0.074747071 0.273
0.04728293 0.075020872 0.27400002
0.052939042 0.076252967 0.27850002
0.059738975 0.078785606 0.28775001
0.065624848 0.079812348 0.2915
0.070914172 0.080017701 0.29225001
0.076424912 0.080428399 0.29375002
0 0 0
0 0 0
0 0 0
0 0 0
0 0 0
0 0 0
0 0 0
0 0 0
0 0 0
0 0 0
0 0 0
0 0 0
0 0 0
0 0 0
0 0 0
0 0 0
0 0 0
0 0 0
0 0 0
0 0 0
0 0 0
0 0 0
0 0 0
0 0 0
-0.30355135 0.12566207 0.43150002
-0 0 0
-0 0 0
-0 0 0
-0 0 0
-0 0 0
-0 0 0
-0 0 0
-0 0 0
-0 0 0
-0 0 0
-0 0 0
-0 0 0
-0 0 0
-0 0 0
-0 0 0
-0 0 0
-0 0 0
-0 0 0
-0 0 0
-0 0 0
-0 0 0
-0 0 0
-0 0 0
-0 0 0
-0 0 0
-0.075868443 0.089113779 0.30600002
-0.068433315 0.086492784 0.29700002
-0.060940996 0.083362155 0.28625003
-0.053727683 0.080085903 0.27500001
-0.048553731 0.079503462 0.273
-0.043530032 0.079066634 0.27150002
-0.038523186 0.078556992 0.26975
-0.033577666 0.078047357 0.26800001
-0.02901678 0.078411385 0.26925001
-0.0249987 0.080668353 0.27700001
-0.020418137 0.081760429 0.28075001
-0.015499147 0.081760429 0.28075001
-0.010570736 0.081687629 0.28050002
-0.0056409999 0.081469215 0.27975002
-0.00073688495 0.081177987 0.27875
0.004158223 0.081396401 0.27950001
0.0090472139 0.081323601 0.27925003
0.013952404 0.081396401 0.27950001
0.018849494 0.081396401 0.27950001
0.023640383 0.081032373 0.27825001
0.0277982 0.078993827 0.27125001
0.032130737 0.077974558 0.26775002
0.036993861 0.078338586 0.26900002
0.04213335 0.079139434 0.27175
0.047153506 0.079576269 0.27325001
0.052273739 0.080085903 0.27500001
0.058233827 0.081687629 0.28050002
0.064555489 0.083507761 0.28675002
0.070732184 0.084891059 0.2915
0 0 0
0 0 0
0 0 0
0 0 0
0 0 0
0 0 0
0 0 0
0 0 0
0 0 0
0 0 0
0 0 0
0 0 0
0 0 0
0 0 0
0 0 0
0 0 0
0 0 0
0 0 0
0 0 0
0 0 0
0 0 0
0 0 0
0 0 0
0 0 0
0 0 0
-0 0 0
-0 0 0
-0 0 0
-0 0 0
-0 0 0
-0 0 0
-0 0 0
-0 0 0
-0 0 0
-0 0 0
-0 0 0
-0 0 0
-0 0 0
-0 0 0
-0 0 0
-0 0 0
-0 0 0
-0 0 0
-0 0 0
-0 0 0
-0 0 0
-0 0 0
-0 0 0
-0 0 0
-0 0 0
-0 0 0
-0.074380822 0.092593238 0.30000001
-0.066993222 0.089738287 0.29075003
-0.058918495 0.085417256 0.27675
-0.053336933 0.084259845 0.273
-0.048286956 0.083796881 0.27150002
-0.043289531 0.083333917 0.27000001
-0.038166162 0.082485139 0.26725
-0.033890892 0.083488233 0.2705
-0.030040583 0.086034551 0.27875
-0.025292005 0.086497515 0.28025001
-0.020363592 0.08642035 0.28
-0.015430139 0.086266033 0.27950001
-0.010504785 0.086034551 0.27875
-0.005575465 0.085340105 0.27650002
-0.00072895439 0.085108615 0.27575001
0.0041284682 0.085648745 0.2775
0.0090067163 0.085803069 0.27800003
0.013914964 0.086034551 0.27875
0.018798914 0.086034551 0.27875
0.023704104 0.086111709 0.27900001
0.028592436 0.086111709 0.27900001
0.032910753 0.084645651 0.27425
0.036890719 0.082793787 0.26825002
0.04182326 0.083256751 0.26975
0.046980944 0.084028371 0.27225003
0.052036133 0.084491327 0.27375001
0.057143889 0.084954299 0.27525002
0.063992672 0.087732099 0.28425002
0.070186228 0.089275315 0.28925002
0.075319193 0.089352481 0.28950003
0 0 0
0 0 0
0 0 0
0 0 0
0 0 0
0 0 0
0 0 0
0 0 0
0 0 0
0 0 0
0 0 0
0 0 0
0 0 0
0 0 0
0 0 0
0 0 0
0 0 0
0 0 0
0 0 0
0 0 0
0 0 0
0 0 0
0 0 0
0 0 0
-0 0 0
-0 0 0
-0 0 0
-0 0 0
-0 0 0
-0 0 0
-0 0 0
-0 0 0
-0 0 0
-0 0 0
-0 0 0
-0 0 0
-0 0 0
-0 0 0
-0 0 0
-0 0 0
-0 0 0
-0 0 0
-0 0 0
-0 0 0
-0 0 0
-0 0 0
-0 0 0
-0 0 0
-0 0 0
-0.079504371 0.09765701 0.29950002
-0.073822968 0.097086392 0.29775003
-0.065380313 0.092521459 0.28375003
-0.058120143 0.089016236 0.273
-0.053092718 0.088608652 0.27175
-0.048064642 0.088119559 0.27025002
-0.042848617 0.08714135 0.26725
-0.038416084 0.087711975 0.26900002
-0.034830566 0.09064658 0.27800003
-0.03012141 0.091135673 0.27950001
-0.02520176 0.091054156 0.27925003
-0.020290866 0.09097264 0.27900001
-0.015361131 0.090728089 0.27825001
-0.010457679 0.090483539 0.2775
-0.0055855475 0.090320505 0.27700001
-0.00073159789 0.090238981 0.27675
0.0041210293 0.090320505 0.27700001
0.0089986166 0.090565056 0.27775002
0.013877526 0.09064658 0.27800003
0.018731475 0.090565056 0.27775002
0.023640383 0.090728089 0.27825001
0.028566813 0.090891115 0.27875
0.033510767 0.091054156 0.27925003
0.03775024 0.089505337 0.27450001
0.041513175 0.087304391 0.26775002
0.04663581 0.088119559 0.27025002
0.051751006 0.088771693 0.27225003
0.056936279 0.08942382 0.27425
0.062979594 0.09121719 0.27975002
0.069700927 0.093662687 0.28725001
0.075189099 0.094233304 0.289
0 0 0
0 0 0
0 0 0
0 0 0
0 0 0
0 0 0
0 0 0
0 0 0
0 0 0
0 0 0
0 0 0
0 0 0
0 0 0
0 0 0
0 0 0
0 0 0
0 0 0
0 0 0
0 0 0
0 0 0
0 0 0
0 0 0
0 0 0
0 0 0
-0 0 0
-0 0 0
-0 0 0
-0 0 0
-0 0 0
-0 0 0
-0 0 0
-0 0 0
-0 0 0
-0 0 0
-0 0 0
-0 0 0
-0 0 0
-0 0 0
-0 0 0
-0 0 0
-0 0 0
-0 0 0
-0 0 0
-0 0 0
-0 0 0
-0 0 0
-0 0 0
-0 0 0
-0 0 0
-0.079106182 0.10235986 0.29800001
-0.072397336 0.10029893 0.29200003
-0.063652195 0.09488897 0.27625
-0.058013696 0.093600884 0.27250001
-0.052946191 0.093085654 0.27100003
-0.047708936 0.092141055 0.26825002
-0.042688288 0.091454074 0.26625001
-0.03952286 0.095060706 0.27675
-0.0350185 0.096005306 0.27950001
-0.030094471 0.095919445 0.27925003
-0.025156634 0.095747687 0.27875
-0.020199956 0.095404208 0.27775002
-0.015250719 0.09488897 0.27625
-0.010391729 0.094717227 0.27575001
-0.0055603418 0.094717227 0.27575001
-0.0007282935 0.094631352 0.2755
0.0040987134 0.094631352 0.2755
0.0089338198 0.094717227 0.27575001
0.013815126 0.095060706 0.27675
0.018680895 0.095146589 0.27700001
0.023597904 0.095404208 0.27775002
0.028541194 0.095661826 0.27850002
0.033480767 0.09583357 0.27900001
0.038369097 0.09583357 0.27900001
0.04205583 0.093171522 0.27125001
0.046247538 0.092055179 0.26800001
0.051418349 0.092913903 0.2705
0.056832474 0.094030246 0.27375001
0.062247928 0.094974846 0.27650002
0.069458283 0.098323867 0.28625003
0.075644404 0.099869572 0.29075003
0 0 0
0 0 0
0 0 0
0 0 0
0 0 0
0 0 0
0 0 0
0 0 0
0 0 0
0 0 0
0 0 0
0 0 0
0 0 0
0 0 0
0 0 0
0 0 0
0 0 0
0 0 0
0 0 0
0 0 0
0 0 0
0 0 0
0 0 0
0 0 0
-0 0 0
-0 0 0
-0 0 0
-0 0 0
-0 0 0
-0 0 0
-0 0 0
-0 0 0
-0 0 0
-0 0 0
-0 0 0
-0 0 0
-0 0 0
-0 0 0
-0 0 0
-0 0 0
-0 0 0
-0 0 0
-0 0 0
-0 0 0
-0 0 0
-0 0 0
-0 0 0
-0 0 0
-0 0 0
-0.078508906 0.10673977 0.29575002
-0.071653523 0.10430361 0.289
-0.063076161 0.098799706 0.27375001
-0.057960477 0.098258339 0.27225003
-0.052701972 0.097356051 0.26975
-0.04735323 0.096092865 0.26625001
-0.04381061 0.098619245 0.27325001
-0.039915591 0.10087495 0.27950001
-0.034924533 0.10060426 0.27875
-0.029932816 0.10024335 0.27775002
-0.025021262 0.1000629 0.27725002
-0.020072686 0.099611759 0.27600002
-0.015154108 0.099070385 0.27450001
-0.010297516 0.098619245 0.27325001
-0.0055149724 0.098709479 0.27350003
-0.00071904116 0.098168105 0.27200001
0.0040503624 0.098258339 0.27225003
0.0088447239 0.098529018 0.273
0.013690328 0.098980159 0.27425
0.018596593 0.099521525 0.27575001
0.023555424 0.1000629 0.27725002
0.028515574 0.10042381 0.27825001
0.033450764 0.10060426 0.27875
0.038369097 0.10069449 0.27900001
0.043024857 0.10015312 0.2775
0.046204399 0.096634239 0.26775002
0.051133223 0.097085372 0.26900002
0.056572966 0.098348565 0.27250001
0.061853956 0.099160619 0.27475002
0.068487689 0.10186746 0.28225002
0.075319193 0.10448407 0.28950003
0.080599755 0.10475475 0.29025
0 0 0
0 0 0
0 0 0
0 0 0
0 0 0
0 0 0
0 0 0
0 0 0
0 0 0
0 0 0
0 0 0
0 0 0
0 0 0
0 0 0
0 0 0
0 0 0
0 0 0
0 0 0
0 0 0
0 0 0
0 0 0
0 0 0
0 0 0
-0 0 0
-0 0 0
-0 0 0
-0 0 0
-0 0 0
-0 0 0
-0 0 0
-0 0 0
-0 0 0
-0 0 0
-0 0 0
-0 0 0
-0 0 0
-0 0 0
-0 0 0
-0 0 0
-0 0 0
-0 0 0
-0 0 0
-0 0 0
-0 0 0
-0 0 0
-0 0 0
-0 0 0
-0 0 0
-0.078708 0.11217628 0.29650003
-0.070661783 0.10782544 0.28500003
-0.062903345 0.10328541 0.273
-0.057694357 0.10252874 0.27100003
-0.052457754 0.1015829 0.2685
-0.04735323 0.10073165 0.26625001
-0.044492017 0.10498791 0.2775
-0.039879892 0.10565001 0.27925003
-0.034893211 0.10536625 0.27850002
-0.029851988 0.10479875 0.27700001
-0.024885889 0.10432583 0.27575001
-0.019945411 0.10375833 0.27425
-0.015002291 0.10281249 0.27175
-0.01018446 0.102245 0.27025002
-0.005439355 0.10205582 0.26975
-0.00071309315 0.10205582 0.26975
0.003994572 0.1015829 0.2685
0.0087637287 0.10233957 0.2705
0.013553051 0.10271791 0.27150002
0.018411133 0.10328541 0.273
0.023385502 0.10413667 0.27525002
0.028413093 0.10489333 0.27725002
0.033420764 0.10536625 0.27850002
0.038403478 0.10565001 0.27925003
0.043334946 0.10574459 0.27950001
0.046808373 0.10262332 0.27125001
0.050895616 0.10129916 0.26775002
0.056365363 0.10271791 0.27150002
0.061572544 0.10347458 0.27350003
0.067881063 0.10583917 0.27975002
0.074538678 0.10839293 0.28650001
0.080460913 0.10962252 0.28975001
0 0 0
0 0 0
0 0 0
0 0 0
0 0 0
0 0 0
0 0 0
0 0 0
0 0 0
0 0 0
0 0 0
0 0 0
0 0 0
0 0 0
0 0 0
0 0 0
0 0 0
0 0 0
0 0 0
0 0 0
0 0 0
0 0 0
0 0 0
-0 0 0
-0 0 0
-0 0 0
-0 0 0
-0 0 0
-0 0 0
-0 0 0
-0 0 0
-0 0 0
-0 0 0
-0 0 0
-0 0 0
-0 0 0
-0 0 0
-0 0 0
-0 0 0
-0 0 0
-0 0 0
-0 0 0
-0 0 0
-0 0 0
-0 0 0
-0 0 0
-0 0 0
-0 0 0
-0.078508906 0.11704528 0.29575002
-0.069732018 0.11130679 0.28125
-0.062672935 0.10764603 0.27200001
-0.057534687 0.10695346 0.27025002
-0.052164696 0.10566725 0.26700002
-0.047842328 0.10645877 0.26900002
-0.044692431 0.11031739 0.27875
-0.039844189 0.11041634 0.27900001
-0.034861889 0.11011952 0.27825001
-0.029771162 0.109328 0.27625
-0.024750518 0.10853648 0.27425
-0.019836321 0.10794286 0.27275002
-0.014850475 0.10645877 0.26900002
-0.010043141 0.10546938 0.26650003
-0.0053334921 0.10467786 0.26450002
-0.00069524936 0.10408422 0.26300001
0.0039239046 0.10438104 0.26375002
0.0085855387 0.10487574 0.26500002
0.013378333 0.106063 0.26800001
0.018276256 0.10725028 0.27100003
0.023215579 0.10814074 0.27325001
0.028284991 0.10922907 0.27600002
0.033330761 0.10992164 0.27775002
0.038334712 0.11031739 0.27875
0.043296188 0.11051528 0.27925003
0.047326069 0.10853648 0.27425
0.050610486 0.10537043 0.26625001
0.056157753 0.10705239 0.2705
0.061572544 0.10823968 0.27350003
0.067577749 0.11021847 0.27850002
0.074603721 0.11348346 0.28675002
0.080322064 0.11447285 0.28925002
0 0 0
0 0 0
0 0 0
0 0 0
0 0 0
0 0 0
0 0 0
0 0 0
0 0 0
0 0 0
0 0 0
0 0 0
0 0 0
0 0 0
0 0 0
0 0 0
0 0 0
0 0 0
0 0 0
0 0 0
0 0 0
0 0 0
0 0 0
-0 0 0
-0 0 0
-0 0 0
-0 0 0
-0 0 0
-0 0 0
-0 0 0
-0 0 0
-0 0 0
-0 0 0
-0 0 0
-0 0 0
-0 0 0
-0 0 0
-0 0 0
-0 0 0
-0 0 0
-0 0 0
-0 0 0
-0 0 0
-0 0 0
-0 0 0
-0 0 0
-0 0 0
-0 0 0
-0.077778898 0.12106179 0.29300001
-0.068926238 0.11486409 0.27800003
-0.062615328 0.1122817 0.27175
-0.05748146 0.11155865 0.27000001
-0.052018166 0.11000922 0.26625001
-0.048198033 0.11197183 0.27100003
-0.044612266 0.11496738 0.27825001
-0.03970138 0.11486409 0.27800003
-0.034705274 0.1144509 0.27700001
-0.029663393 0.11372785 0.27525002
-0.024615146 0.11269489 0.27275002
-0.019563595 0.11114547 0.26900002
-0.014671055 0.10980263 0.26575002
-0.0098076062 0.10753013 0.26025
-0.005157053 0.10567082 0.25575
-0.00066815311 0.10443129 0.25275001
0.0037788502 0.10494776 0.25400001
0.0083020544 0.10587742 0.25625002
0.013091299 0.1083565 0.26225001
0.018090794 0.11083558 0.26825002
0.023003178 0.11186853 0.27075002
0.028156888 0.11352126 0.27475002
0.033210758 0.11434761 0.27675
0.038300335 0.11507068 0.27850002
0.043218661 0.11517397 0.27875
0.047714345 0.11424432 0.27650002
0.050610486 0.11000922 0.26625001
0.056002043 0.11145534 0.26975
0.061516259 0.11290148 0.27325001
0.067274444 0.1145542 0.27725002
0.074668758 0.1185827 0.287
0 0 0
0 0 0
0 0 0
0 0 0
0 0 0
0 0 0
0 0 0
0 0 0
0 0 0
0 0 0
0 0 0
0 0 0
0 0 0
0 0 0
0 0 0
0 0 0
0 0 0
0 0 0
0 0 0
0 0 0
0 0 0
0 0 0
0 0 0
0 0 0
-0 0 0
-0 0 0
-0 0 0
-0 0 0
-0 0 0
-0 0 0
-0 0 0
-0 0 0
-0 0 0
-0 0 0
-0 0 0
-0 0 0
-0 0 0
-0 0 0
-0 0 0
-0 0 0
-0 0 0
-0 0 0
-0 0 0
-0 0 0
-0 0 0
-0 0 0
-0 0 0
-0 0 0
-0 0 0
-0.077447079 0.12562838 0.29175001
-0.06917417 0.12013819 0.27900001
-0.062788136 0.11733927 0.27250001
-0.05748146 0.11626276 0.27000001
-0.05177395 0.11410975 0.26500002
-0.048553731 0.11755457 0.273
-0.044532102 0.11959994 0.27775002
-0.03959427 0.11938464 0.27725002
-0.034611307 0.11895403 0.27625
-0.029528683 0.11798518 0.27400002
-0.024479775 0.11680102 0.27125001
-0.019399958 0.11486331 0.26675001
-0.014312213 0.11163379 0.25925002
-0.0094495956 0.10797366 0.25075001
-0.0051217652 0.10937312 0.25400001
-0.00066749222 0.10872721 0.2525
0.0037304987 0.10797366 0.25075001
0.008140062 0.10818896 0.25125
0.012729386 0.10980373 0.25500003
0.017770452 0.11346384 0.26350001
0.022918215 0.11615511 0.26975
0.028054405 0.11787753 0.27375001
0.033150759 0.11895403 0.27625
0.038197193 0.11959994 0.27775002
0.043141142 0.11981524 0.27825001
0.047757484 0.11916933 0.27675
0.05065801 0.11475566 0.26650003
0.055950146 0.11604746 0.26950002
0.061122287 0.11690868 0.27150002
0.067213774 0.11927699 0.27700001
0.074798852 0.12379832 0.28750002
0 0 0
0 0 0
0 0 0
0 0 0
0 0 0
0 0 0
0 0 0
0 0 0
0 0 0
0 0 0
0 0 0
0 0 0
0 0 0
0 0 0
0 0 0
0 0 0
0 0 0
0 0 0
0 0 0
0 0 0
0 0 0
0 0 0
0 0 0
0 0 0
-0 0 0
-0 0 0
-0 0 0
-0 0 0
-0 0 0
-0 0 0
-0 0 0
-0 0 0
-0 0 0
-0 0 0
-0 0 0
-0 0 0
-0 0 0
-0 0 0
-0 0 0
-0 0 0
-0 0 0
-0 0 0
-0 0 0
-0 0 0
-0 0 0
-0 0 0
-0 0 0
-0 0 0
-0 0 0
-0.076717064 0.12947936 0.289
-0.06917417 0.12499912 0.27900001
-0.062730536 0.12197495 0.27225003
-0.057162117 0.12029485 0.2685
-0.05177395 0.11872676 0.26500002
-0.048553731 0.12231096 0.273
-0.044451937 0.12421508 0.27725002
-0.039558567 0.12410307 0.27700001
-0.034579989 0.12365504 0.27600002
-0.029555622 0.12287099 0.27425
-0.024254154 0.12040686 0.26875001
-0.019199958 0.11827873 0.264
-0.013898167 0.11279043 0.25175002
-0.0096191801 0.11435851 0.25525001
-0.0052225874 0.11603861 0.259
-0.00064898754 0.10999026 0.24550001
0.0037304987 0.11234239 0.25075001
0 0 0
0.012167795 0.10920621 0.24375001
0.017332092 0.11514255 0.257
0.022769533 0.12007084 0.26800001
0.027926303 0.12208695 0.27250001
0.033090755 0.12354303 0.27575001
0.038128432 0.12421508 0.27725002
0.043063618 0.12443909 0.27775002
0.047757484 0.12399106 0.27675
0.05065801 0.1193988 0.26650003
0.056105852 0.1210789 0.27025002
0.061291136 0.12197495 0.27225003
0.067092456 0.12387906 0.27650002
0.074148424 0.12768728 0.28500003
0 0 0
0 0 0
0 0 0
0 0 0
0 0 0
0 0 0
0 0 0
0 0 0
0 0 0
0 0 0
0 0 0
0 0 0
0 0 0
0 0 0
0 0 0
0 0 0
0 0 0
0 0 0
0 0 0
0 0 0
0 0 0
0 0 0
0 0 0
0 0 0
-0 0 0
-0 0 0
-0 0 0
-0 0 0
-0 0 0
-0 0 0
-0 0 0
-0 0 0
-0 0 0
-0 0 0
-0 0 0
-0 0 0
-0 0 0
-0 0 0
-0 0 0
-0 0 0
-0 0 0
-0 0 0
-0 0 0
-0 0 0
-0 0 0
-0 0 0
-0 0 0
-0 0 0
-0 0 0
-0.07625252 0.1337 0.28725001
-0.069360122 0.13020913 0.27975002
-0.062557727 0.12636919 0.27150002
-0.057268567 0.12520556 0.26900002
-0.051871635 0.12357649 0.26550001
-0.048509274 0.12695099 0.27275002
-0.044451937 0.12904552 0.27725002
-0.03959427 0.12904552 0.27725002
-0.034579989 0.1284637 0.27600002
-0.029555622 0.12764916 0.27425
-0.02423159 0.12497284 0.2685
-0.018890869 0.12090017 0.25975001
-0.013801555 0.11636204 0.25
-0 0 0
-0.004486586 0.10356222 0.22250001
-0.00059413421 0.10460948 0.22475001
0 0 0
0 0 0
0.012354991 0.11519843 0.24750002
0.017062334 0.11775839 0.25300002
0.022769533 0.12474012 0.26800001
0.027849441 0.12648554 0.27175
0.033030756 0.12811461 0.27525002
0.038059667 0.12881278 0.27675
0.042947337 0.12892915 0.27700001
0.047584921 0.12834734 0.27575001
0.050610486 0.12392558 0.26625001
0.056105852 0.12578738 0.27025002
0.061459977 0.12706736 0.273
0.067941718 0.13032548 0.28
0.074148424 0.13265274 0.28500003
0 0 0
0 0 0
0 0 0
0 0 0
0 0 0
0 0 0
0 0 0
0 0 0
0 0 0
0 0 0
0 0 0
0 0 0
0 0 0
0 0 0
0 0 0
0 0 0
0 0 0
0 0 0
0 0 0
0 0 0
0 0 0
0 0 0
0 0 0
0 0 0
-0 0 0
-0 0 0
-0 0 0
-0 0 0
-0 0 0
-0 0 0
-0 0 0
-0 0 0
-0 0 0
-0 0 0
-0 0 0
-0 0 0
-0 0 0
-0 0 0
-0 0 0
-0 0 0
-0 0 0
-0 0 0
-0 0 0
-0 0 0
-0 0 0
-0 0 0
-0 0 0
-0 0 0
-0 0 0
-0.076849803 0.13979112 0.28950003
-0.069855995 0.13604887 0.28175002
-0.062903345 0.13182373 0.273
-0.057641134 0.13073727 0.27075002
-0.052018166 0.12856436 0.26625001
-0.048020177 0.13037513 0.27000001
-0.044371769 0.13363449 0.27675
-0.039558567 0.13375522 0.27700001
-0.034548663 0.13315164 0.27575001
-0.029393971 0.13170302 0.27275002
-0.024254154 0.12977153 0.26875001
-0.018945415 0.12578785 0.26050001
-0.01382916 0.12095915 0.25050002
-0 0 0
-0 0 0
-0 0 0
0 0 0
0 0 0
0 0 0
0.017079193 0.12228703 0.25325
0.022833254 0.12977153 0.26875001
0.027849441 0.13122015 0.27175
0.033000752 0.13278948 0.27500001
0.037956528 0.13327235 0.27600002
0.042831052 0.13339306 0.27625
0.047196649 0.13206518 0.27350003
0.050610486 0.12856436 0.26625001
0.056157753 0.13061656 0.2705
0.061628822 0.13218589 0.27375001
0.068184376 0.13568671 0.28100002
0.074473642 0.13822179 0.28625003
0 0 0
0 0 0
0 0 0
0 0 0
0 0 0
0 0 0
0 0 0
0 0 0
0 0 0
0 0 0
0 0 0
0 0 0
0 0 0
0 0 0
0 0 0
0 0 0
0 0 0
0 0 0
0 0 0
0 0 0
0 0 0
0 0 0
0 0 0
0 0 0
-0 0 0
-0 0 0
-0 0 0
-0 0 0
-0 0 0
-0 0 0
-0 0 0
-0 0 0
-0 0 0
-0 0 0
-0 0 0
-0 0 0
-0 0 0
-0 0 0
-0 0 0
-0 0 0
-0 0 0
-0 0 0
-0 0 0
-0 0 0
-0 0 0
-0 0 0
-0 0 0
-0 0 0
-0 0 0
-0 0 0
-0.0690502 0.13933174 0.27850002
-0.062903345 0.13658012 0.273
-0.05790725 0.13607983 0.27200001
-0.052067012 0.13332823 0.26650003
-0.047264304 0.132953 0.26575002
-0.04421144 0.13795593 0.27575001
-0.039380051 0.13795593 0.27575001
-0.034423374 0.13745564 0.27475002
-0.029313145 0.13607983 0.27200001
-0.024321841 0.1348291 0.26950002
-0.019599959 0.1348291 0.26950002
-0 0 0
-0 0 0
-0 0 0
-0 0 0
0 0 0
0 0 0
0 0 0
0.017551273 0.13020138 0.26025
0.02323682 0.13683029 0.27350003
0.027926303 0.13632998 0.27250001
0.032820754 0.13683029 0.27350003
0.037853383 0.13770579 0.27525002
0.042714767 0.13783085 0.2755
0.046851519 0.13582969 0.27150002
0.05075305 0.13357837 0.26700002
0.056365363 0.13582969 0.27150002
0.061572544 0.13683029 0.27350003
0.068851665 0.1419583 0.28375003
0.073823214 0.1419583 0.28375003
0 0 0
0 0 0
0 0 0
0 0 0
0 0 0
0 0 0
0 0 0
0 0 0
0 0 0
0 0 0
0 0 0
0 0 0
0 0 0
0 0 0
0 0 0
0 0 0
0 0 0
0 0 0
0 0 0
0 0 0
0 0 0
0 0 0
0 0 0
0 0 0
