# .PCD v0.7 - Point Cloud Data file format
VERSION 0.7
FIELDS x y z
SIZE 4 4 4
TYPE F F F
COUNT 1 1 1
WIDTH 4800
HEIGHT 1
VIEWPOINT 0 0 0 1 0 0 0
POINTS 4800
DATA ascii
-0 -0 0
-0 -0 0
-0 -0 0
-0 -0 0
-0 -0 0
-0 -0 0
-0 -0 0
-0 -0 0
-0 -0 0
-0 -0 0
-0 -0 0
-0 -0 0
-0 -0 0
-0 -0 0
-0 -0 0
-0 -0 0
-0 -0 0
-0 -0 0
-0 -0 0
-0 -0 0
-0 -0 0
-0 -0 0
-0 -0 0
-0 -0 0
-0 -0 0
-0 -0 0
-0 -0 0
-0 -0 0
-0 -0 0
-0 -0 0
-0 -0 0
-0 -0 0
-0 -0 0
-0 -0 0
-0 -0 0
-0 -0 0
-0 -0 0
-0 -0 0
-0 -0 0
-0 -0 0
-0 -0 0
0 -0 0
0 -0 0
0 -0 0
0 -0 0
0 -0 0
0 -0 0
0 -0 0
0 -0 0
0 -0 0
0 -0 0
0 -0 0
0 -0 0
0 -0 0
0 -0 0
0 -0 0
0 -0 0
0 -0 0
0 -0 0
0 -0 0
0 -0 0
0 -0 0
0.14872408 -0.20498972 0.38850001
0.15563104 -0.20512162 0.38875002
0.16160658 -0.20406634 0.38675001
0.16772972 -0.20327488 0.38525003
0.17425318 -0.20301105 0.38475001
0.18064153 -0.20261531 0.384
0.18724759 -0.20248342 0.38375002
0.19308668 -0.20156004 0.38200003
0.19886443 -0.20063666 0.38025001
0.20539162 -0.20050475 0.38000003
0.21191005 -0.20037283 0.37975001
0.21798807 -0.19984519 0.37875003
0.22492065 -0.200109 0.37925002
0.23095487 -0.19958137 0.37825003
0.23585485 -0.19813035 0.37550002
0.24178828 -0.19760269 0.37450001
0.24818408 -0.1974708 0.37425002
0.25320977 -0.19628359 0.37200001
-0 -0 0
-0 -0 0
-0 -0 0
-0 -0 0
-0 -0 0
-0 -0 0
-0 -0 0
-0 -0 0
-0 -0 0
-0 -0 0
-0 -0 0
-0 -0 0
-0 -0 0
-0 -0 0
-0 -0 0
-0 -0 0
-0 -0 0
-0 -0 0
-0 -0 0
-0 -0 0
-0 -0 0
-0 -0 0
-0 -0 0
-0 -0 0
-0 -0 0
-0 -0 0
-0 -0 0
-0 -0 0
-0 -0 0
-0 -0 0
-0 -0 0
-0 -0 0
-0 -0 0
-0 -0 0
-0 -0 0
-0 -0 0
-0 -0 0
-0 -0 0
-0 -0 0
-0 -0 0
-0 -0 0
0 -0 0
0 -0 0
0 -0 0
0 -0 0
0 -0 0
0 -0 0
0 -0 0
0 -0 0
0 -0 0
0 -0 0
0 -0 0
0 -0 0
0 -0 0
0 -0 0
0 -0 0
0 -0 0
0 -0 0
0 -0 0
0 -0 0
0.13615368 -0.19975168 0.39150003
0.14246517 -0.19898634 0.39000002
0.14872408 -0.198221 0.38850001
0.15503053 -0.19758323 0.38725001
0.16171105 -0.19745567 0.38700002
0.16762087 -0.19643523 0.38500002
0.17413996 -0.19618012 0.38450003
0.18064153 -0.195925 0.384
0.18675964 -0.19528723 0.38275
0.19333941 -0.19515969 0.38250002
0.19925667 -0.19439435 0.38100001
0.20620236 -0.19464946 0.38150001
0.21121252 -0.1931188 0.37850001
0.21784417 -0.1931188 0.37850001
0.22477238 -0.1933739 0.37900001
0.23095487 -0.19299124 0.37825003
0.23679699 -0.19235346 0.377
0.24275674 -0.19184324 0.37600002
0.24785252 -0.19069526 0.37375003
0.25508162 -0.19120547 0.37475002
-0 -0 0
-0 -0 0
-0 -0 0
-0 -0 0
-0 -0 0
-0 -0 0
-0 -0 0
-0 -0 0
-0 -0 0
-0 -0 0
-0 -0 0
-0 -0 0
-0 -0 0
-0 -0 0
-0 -0 0
-0 -0 0
-0 -0 0
-0 -0 0
-0 -0 0
-0 -0 0
-0 -0 0
-0 -0 0
-0 -0 0
-0 -0 0
-0 -0 0
-0 -0 0
-0 -0 0
-0 -0 0
-0 -0 0
-0 -0 0
-0 -0 0
-0 -0 0
-0 -0 0
-0 -0 0
-0 -0 0
-0 -0 0
-0 -0 0
-0 -0 0
-0 -0 0
-0 -0 0
-0 -0 0
0 -0 0
0 -0 0
0 -0 0
0 -0 0
0 -0 0
0 -0 0
0 -0 0
0 -0 0
0 -0 0
0 -0 0
0 -0 0
0 -0 0
0 -0 0
0 -0 0
0 -0 0
0.1097573 -0.1947787 0.39525002
0.1159444 -0.1935467 0.39275002
0.12235664 -0.1928075 0.39125001
0.12945937 -0.19317709 0.39200002
0.13606673 -0.1928075 0.39125001
0.14246517 -0.1921915 0.39000002
0.14872408 -0.19145229 0.38850001
0.15503053 -0.1908363 0.38725001
0.16150212 -0.1904667 0.38650003
0.16762087 -0.1897275 0.38500002
0.17436641 -0.1897275 0.38500002
0.18052393 -0.1891115 0.38375002
0.18663765 -0.1884955 0.38250002
0.19359213 -0.18874191 0.38300002
0.19977966 -0.18824911 0.38200003
0.20606725 -0.18787952 0.38125002
0.21149153 -0.18677071 0.37900001
0.21784417 -0.18652432 0.37850001
0.22403105 -0.18615471 0.37775001
0.23049693 -0.18603152 0.37750003
0.23742512 -0.18627791 0.37800002
0.24356377 -0.18590832 0.37725002
0.24851565 -0.18467632 0.37475002
0.25457111 -0.18430671 0.37400001
-0 -0 0
-0 -0 0
-0 -0 0
-0 -0 0
-0 -0 0
-0 -0 0
-0 -0 0
-0 -0 0
-0 -0 0
-0 -0 0
-0 -0 0
-0 -0 0
-0 -0 0
-0 -0 0
-0 -0 0
-0 -0 0
-0 -0 0
-0 -0 0
-0 -0 0
-0 -0 0
-0 -0 0
-0 -0 0
-0 -0 0
-0 -0 0
-0 -0 0
-0 -0 0
-0 -0 0
-0 -0 0
-0 -0 0
-0 -0 0
-0 -0 0
-0 -0 0
-0 -0 0
-0 -0 0
-0 -0 0
-0 -0 0
-0 -0 0
-0 -0 0
-0 -0 0
-0 -0 0
-0 -0 0
0 -0 0
0 -0 0
0 -0 0
0 -0 0
0 -0 0
0 -0 0
0 -0 0
0 -0 0
0 -0 0
0 -0 0
0 -0 0
0.083821416 -0.19193308 0.40375003
0.090782911 -0.19169538 0.40325001
0.096816957 -0.18967503 0.39900002
0.10328745 -0.18872428 0.39700001
0.11003498 -0.18836775 0.39625001
0.11660863 -0.18777353 0.39500001
0.12321665 -0.18729816 0.39400002
0.12970707 -0.18670394 0.39275002
0.13624062 -0.18622856 0.39175001
0.1425565 -0.18551551 0.39025003
0.14881979 -0.18480243 0.38875002
0.15533079 -0.1844459 0.38800001
0.16160658 -0.18385167 0.38675001
0.1679474 -0.18337631 0.38575003
0.17425318 -0.18290092 0.38475001
0.18017112 -0.18206902 0.38300002
0.18639369 -0.18159366 0.38200003
0.19321303 -0.18171248 0.38225001
0.19964892 -0.1814748 0.38175002
0.205797 -0.18099943 0.38075003
0.21177055 -0.18040521 0.37950003
0.21741252 -0.1795733 0.37775001
0.2232897 -0.17897907 0.37650001
0.23064956 -0.1795733 0.37775001
0.23742512 -0.17969215 0.37800002
0.24227251 -0.17838486 0.37525001
0.2491788 -0.17862254 0.37575001
0.25474128 -0.17790948 0.37425002
-0 -0 0
-0 -0 0
-0 -0 0
-0 -0 0
-0 -0 0
-0 -0 0
-0 -0 0
-0 -0 0
-0 -0 0
-0 -0 0
-0 -0 0
-0 -0 0
-0 -0 0
-0 -0 0
-0 -0 0
-0 -0 0
-0 -0 0
-0 -0 0
-0 -0 0
-0 -0 0
-0 -0 0
-0 -0 0
-0 -0 0
-0 -0 0
-0 -0 0
-0 -0 0
-0 -0 0
-0 -0 0
-0 -0 0
-0 -0 0
-0 -0 0
-0 -0 0
-0 -0 0
-0 -0 0
-0 -0 0
-0 -0 0
-0 -0 0
-0 -0 0
-0 -0 0
-0 -0 0
-0 -0 0
0 -0 0
0 -0 0
0 -0 0
0 -0 0
0 -0 0
0 -0 0
0 -0 0
0 -0 0
0.063451976 -0.18741742 0.40925002
0.07014785 -0.18615803 0.40650001
0.077080004 -0.18570009 0.40550002
0.083925217 -0.18512765 0.40425003
0.090557791 -0.18421175 0.40225002
0.0970596 -0.18318133 0.40000001
0.10374275 -0.1826089 0.39875001
0.11031268 -0.18192197 0.39725003
0.11690384 -0.18134953 0.39600003
0.1234512 -0.18077709 0.39475003
0.13003731 -0.18031913 0.39375001
0.13658839 -0.17986119 0.39275002
0.14246517 -0.1786018 0.39000002
0.1489155 -0.17814386 0.38900003
0.15513062 -0.17745693 0.38750002
0.16150212 -0.17699897 0.38650003
0.16805623 -0.17676999 0.38600001
0.17425318 -0.17619754 0.38475001
0.18064153 -0.17585409 0.384
0.18700361 -0.17551063 0.38325003
0.19321303 -0.17505267 0.38225001
0.19964892 -0.17482369 0.38175002
0.20566186 -0.17425126 0.38050002
0.21163104 -0.17367882 0.37925002
0.21741252 -0.17299187 0.37775001
0.2232897 -0.17241943 0.37650001
0.22973369 -0.17230496 0.37625003
0.23632593 -0.17230496 0.37625003
0.24259531 -0.17207597 0.37575001
0.2491788 -0.17207597 0.37575001
0.25491145 -0.17150353 0.37450001
-0 -0 0
-0 -0 0
-0 -0 0
-0 -0 0
-0 -0 0
-0 -0 0
-0 -0 0
-0 -0 0
-0 -0 0
-0 -0 0
-0 -0 0
-0 -0 0
-0 -0 0
-0 -0 0
-0 -0 0
-0 -0 0
-0 -0 0
-0 -0 0
-0 -0 0
-0 -0 0
-0 -0 0
-0 -0 0
-0 -0 0
-0 -0 0
-0 -0 0
-0 -0 0
-0 -0 0
-0 -0 0
-0 -0 0
-0 -0 0
-0 -0 0
-0 -0 0
-0 -0 0
-0 -0 0
-0 -0 0
-0 -0 0
-0 -0 0
-0 -0 0
-0 -0 0
-0 -0 0
-0 -0 0
0 -0 0
0 -0 0
0 -0 0
0 -0 0
0 -0 0
0.042658068 -0.1833709 0.41625002
0.049801141 -0.18282025 0.41500002
0.05669412 -0.18160878 0.41225001
0.063568257 -0.1806176 0.41000003
0.070406698 -0.17973652 0.40800002
0.077317618 -0.17918587 0.40675002
0.084132828 -0.17852506 0.40525001
0.090726636 -0.17753388 0.40300003
0.097484246 -0.17698322 0.40175003
0.10393788 -0.17599201 0.39950001
0.11059036 -0.17544135 0.39825001
0.11734665 -0.17511095 0.39750001
0.12376393 -0.17434002 0.39575002
0.13036758 -0.1738995 0.39475003
0.13676229 -0.17323869 0.39325002
0.14301312 -0.17246777 0.39150003
0.1492026 -0.17169684 0.38975
0.15553096 -0.17114617 0.38850001
0.16191997 -0.17070565 0.38750002
0.16849163 -0.17048539 0.38700002
0.17493254 -0.17015499 0.38625002
0.18099435 -0.16949418 0.38475001
0.18700361 -0.1688334 0.38325003
0.19321303 -0.16839287 0.38225001
0.19977966 -0.16828273 0.38200003
0.20552674 -0.16751179 0.38025001
0.21107303 -0.16663074 0.37825003
0.21741252 -0.16641048 0.37775001
0.22358623 -0.16608007 0.377
0.22973369 -0.16574968 0.37625003
0.23569781 -0.16530915 0.37525001
0.24227251 -0.16530915 0.37525001
0.24901302 -0.16541928 0.37550002
0.2552518 -0.16519903 0.37500003
-0 -0 0
-0 -0 0
-0 -0 0
-0 -0 0
-0 -0 0
-0 -0 0
-0 -0 0
-0 -0 0
-0 -0 0
-0 -0 0
-0 -0 0
-0 -0 0
-0 -0 0
-0 -0 0
-0 -0 0
-0 -0 0
-0 -0 0
-0 -0 0
-0 -0 0
-0 -0 0
-0 -0 0
-0 -0 0
-0 -0 0
-0 -0 0
-0 -0 0
-0 -0 0
-0 -0 0
-0 -0 0
-0 -0 0
-0 -0 0
-0 -0 0
-0 -0 0
-0 -0 0
-0 -0 0
-0 -0 0
-0 -0 0
-0 -0 0
-0 -0 0
-0 -0 0
-0 -0 0
-0 -0 0
0 -0 0
0.013850255 -0.18087868 0.42750001
0.02129052 -0.18045558 0.42650002
0.028628301 -0.17960936 0.42450002
0.035747319 -0.17802271 0.42075002
0.042863034 -0.17696494 0.41825002
0.049861141 -0.17580138 0.41550002
0.056934789 -0.17516673 0.41400003
0.06387835 -0.17432052 0.41200003
0.070881255 -0.17379163 0.41075003
0.077507697 -0.17252229 0.40775001
0.084496133 -0.17220496 0.40700001
0.091289453 -0.17157032 0.40550002
0.097787552 -0.17051254 0.40300003
0.10445821 -0.16987787 0.40150002
0.11086806 -0.16892588 0.39925003
0.11764187 -0.16860855 0.39850003
0.12407667 -0.16786812 0.39675003
0.13061525 -0.16733922 0.3955
0.13702312 -0.16670457 0.39400002
0.14328709 -0.16596413 0.39225003
0.14958543 -0.16532947 0.39075002
0.15613146 -0.16501214 0.39000002
0.1624423 -0.16448325 0.38875002
0.16860045 -0.16384858 0.38725001
0.17493254 -0.16342548 0.38625002
0.18087676 -0.16268504 0.38450003
0.18712559 -0.16226193 0.38350001
0.19346575 -0.1619446 0.38275
0.19951816 -0.16141571 0.38150001
0.20512137 -0.1605695 0.37950003
0.21135204 -0.16025217 0.37875003
0.21755642 -0.15993483 0.37800002
0.22373451 -0.1596175 0.37725002
0.23003899 -0.15940595 0.37675002
0.23616889 -0.15908863 0.37600002
0.24194969 -0.15855974 0.37475002
0.24834986 -0.15845396 0.37450001
0.25491145 -0.15845396 0.37450001
-0 -0 0
-0 -0 0
-0 -0 0
-0 -0 0
-0 -0 0
-0 -0 0
-0 -0 0
-0 -0 0
-0 -0 0
-0 -0 0
-0 -0 0
-0 -0 0
-0 -0 0
-0 -0 0
-0 -0 0
-0 -0 0
-0 -0 0
-0 -0 0
-0 -0 0
-0 -0 0
-0 -0 0
-0 -0 0
-0 -0 0
-0 -0 0
-0 -0 0
-0 -0 0
-0 -0 0
-0 -0 0
-0 -0 0
-0 -0 0
-0 -0 0
-0 -0 0
-0 -0 0
-0 -0 0
-0 -0 0
-0 -0 0
-0 -0 0
-0.024221731 -0.17799446 0.43875003
-0.016581545 -0.17850156 0.44000003
-0.0088370619 -0.17779161 0.43825004
-0.0011499372 -0.17647314 0.43500003
0.0064121434 -0.17485039 0.43100002
0.013923152 -0.17434329 0.42975003
0.02131548 -0.17322764 0.42700002
0.02866202 -0.17241627 0.42500001
0.035874762 -0.17130065 0.42225003
0.043016758 -0.17028643 0.41975003
0.050101146 -0.16937363 0.41750002
0.057244215 -0.16886653 0.41625002
0.064227201 -0.16805516 0.41425002
0.071140103 -0.16724378 0.41225001
0.077935398 -0.16633099 0.41000003
0.084651843 -0.16541819 0.40775001
0.091458306 -0.16480967 0.40625003
0.098151527 -0.16409972 0.40450001
0.10478343 -0.16338977 0.40275002
0.11135402 -0.16267984 0.40100002
0.11801089 -0.16217272 0.39975002
0.1243894 -0.16136135 0.39775002
0.13094552 -0.16085425 0.39650002
0.13745783 -0.16034713 0.39525002
0.14374371 -0.1596372 0.39350003
0.14996824 -0.15892723 0.39175001
0.15643172 -0.15852155 0.39075002
0.16286014 -0.15811586 0.38975
0.16881816 -0.1573045 0.38775003
0.17515899 -0.15689881 0.38675001
0.18122958 -0.15629029 0.38525003
0.18736956 -0.15578318 0.384
0.19359213 -0.15537749 0.38300002
0.19951816 -0.15476896 0.38150001
0.205797 -0.15446471 0.38075003
0.21135204 -0.15365334 0.37875003
0.21784417 -0.15355191 0.37850001
0.22447585 -0.15355191 0.37850001
0.23034427 -0.1530448 0.37725002
0.23648295 -0.15274054 0.37650001
0.24178828 -0.15192915 0.37450001
0.24801829 -0.15172632 0.37400001
0.25457111 -0.15172632 0.37400001
-0 -0 0
-0 -0 0
-0 -0 0
-0 -0 0
-0 -0 0
-0 -0 0
-0 -0 0
-0 -0 0
-0 -0 0
-0 -0 0
-0 -0 0
-0 -0 0
-0 -0 0
-0 -0 0
-0 -0 0
-0 -0 0
-0 -0 0
-0 -0 0
-0 -0 0
-0 -0 0
-0 -0 0
-0 -0 0
-0 -0 0
-0 -0 0
-0 -0 0
-0 -0 0
-0 -0 0
-0 -0 0
-0 -0 0
-0 -0 0
-0 -0 0
-0.074674442 -0.18083334 0.46575001
-0.06640698 -0.18054216 0.46500003
-0.057320084 -0.17763017 0.45750001
-0.049088743 -0.17685366 0.45550004
-0.040882349 -0.175883 0.45300001
-0.032581747 -0.17394167 0.44800001
-0.024580572 -0.17287396 0.44525003
-0.016704023 -0.17209743 0.44325003
-0.008877391 -0.17093264 0.44025001
-0.0011539024 -0.16947666 0.43650001
0.0064642141 -0.16870013 0.43450001
0.013979848 -0.16753535 0.43150002
0.021452758 -0.16685589 0.42975003
0.028780043 -0.16569111 0.42675003
0.036087163 -0.16491458 0.42475003
0.043247338 -0.16384685 0.42200002
0.050461154 -0.16326445 0.42050001
0.057519265 -0.16239087 0.41825002
0.064459763 -0.16142021 0.41575003
0.071398951 -0.16064368 0.41375002
0.078173004 -0.15967304 0.41125003
0.084963255 -0.15889651 0.40925002
0.091683425 -0.15811998 0.40725002
0.098454833 -0.15753758 0.40575001
0.10517368 -0.1569552 0.40425003
0.11177056 -0.15627573 0.40250003
0.1183799 -0.15569334 0.40100002
0.12478032 -0.15491681 0.39900002
0.13135833 -0.15443148 0.39775002
0.13789254 -0.15394615 0.39650002
0.14401767 -0.15307255 0.39425001
0.15035106 -0.15249017 0.39275002
0.15653181 -0.15181071 0.39100003
0.16296461 -0.15142244 0.39000002
0.16968891 -0.15132537 0.38975
0.17583834 -0.15074299 0.38825002
0.18193519 -0.1501606 0.38675001
0.18785751 -0.14948113 0.38500002
0.19371851 -0.14880167 0.38325003
0.19977966 -0.14831635 0.38200003
0.20606725 -0.14802516 0.38125002
0.21191005 -0.14744274 0.37975001
0.21827585 -0.14724863 0.37925002
0.22477238 -0.14715154 0.37900001
0.23064956 -0.14666623 0.37775001
0.23663998 -0.14627796 0.37675002
0.24243392 -0.14579263 0.37550002
0.24851565 -0.14550143 0.37475002
0.25457111 -0.14521024 0.37400001
-0 -0 0
-0 -0 0
-0 -0 0
-0 -0 0
-0 -0 0
-0 -0 0
-0 -0 0
-0 -0 0
-0 -0 0
-0 -0 0
-0 -0 0
-0 -0 0
-0 -0 0
-0 -0 0
-0 -0 0
-0 -0 0
-0 -0 0
-0 -0 0
-0 -0 0
-0 -0 0
-0 -0 0
-0 -0 0
-0 -0 0
-0 -0 0
-0 -0 0
-0 -0 0
-0 -0 0
-0 -0 0
-0 -0 0
-0 -0 0
-0 -0 0
-0.074874856 -0.17318228 0.46700001
-0.06640698 -0.1724406 0.46500003
-0.057821244 -0.17114265 0.46150002
-0.049250394 -0.16947387 0.45700002
-0.040995158 -0.16845407 0.45425001
-0.032727204 -0.166878 0.45000002
-0.024732387 -0.16613632 0.44800001
-0.016751129 -0.16483839 0.44450003
-0.0088975551 -0.16363315 0.44125003
-0.0011572068 -0.1623352 0.43775001
0.0064865304 -0.16168624 0.43600002
0.014052745 -0.16085185 0.43375003
0.021540117 -0.16001746 0.43150002
0.028931782 -0.15909036 0.42900002
0.036299568 -0.15844139 0.42725003
0.043529164 -0.15751429 0.42475003
0.05076116 -0.15686531 0.42300001
0.057622407 -0.15538196 0.41900003
0.064731091 -0.1548257 0.41750002
0.071744084 -0.15417673 0.41575003
0.078648217 -0.15343505 0.41375002
0.085326567 -0.15241523 0.41100001
0.092133686 -0.15176627 0.40925002
0.098940134 -0.15121001 0.40775001
0.1054989 -0.15037562 0.40550002
0.11218709 -0.14981936 0.40400001
0.11867511 -0.14907768 0.40200001
0.12524942 -0.14852142 0.40050003
0.13177115 -0.14796516 0.39900002
0.13841422 -0.14759432 0.39800003
0.14483958 -0.14703806 0.39650002
0.15054247 -0.14583284 0.39325002
0.15723239 -0.14564741 0.39275002
0.16348694 -0.14509115 0.39125001
0.17001544 -0.14481302 0.39050001
0.17629123 -0.14434947 0.38925001
0.18217041 -0.14360778 0.38725001
0.18785751 -0.1427734 0.38500002
0.19447669 -0.14268069 0.38475001
0.20030265 -0.14203171 0.38300002
0.20647262 -0.14166088 0.38200003
0.21246809 -0.14119734 0.38075003
0.21856362 -0.14082649 0.37975001
0.22477238 -0.14054836 0.37900001
0.23064956 -0.1400848 0.37775001
0.23679699 -0.13980667 0.377
0.24275674 -0.13943584 0.37600002
0.24884723 -0.13915771 0.37525001
0.25440097 -0.13860145 0.37375003
-0 -0 0
-0 -0 0
-0 -0 0
-0 -0 0
-0 -0 0
-0 -0 0
-0 -0 0
-0 -0 0
-0 -0 0
-0 -0 0
-0 -0 0
-0 -0 0
-0 -0 0
-0 -0 0
-0 -0 0
-0 -0 0
-0 -0 0
-0 -0 0
-0 -0 0
-0 -0 0
-0 -0 0
-0 -0 0
-0 -0 0
-0 -0 0
-0 -0 0
-0 -0 0
-0 -0 0
-0 -0 0
-0 -0 0
-0 -0 0
-0 -0 0
-0.075917013 -0.16734311 0.47350001
-0.066585496 -0.16478084 0.46625003
-0.058071826 -0.16380894 0.46350002
-0.049600642 -0.16266033 0.46025002
-0.041107971 -0.16098161 0.45550004
-0.032945383 -0.16009806 0.45300001
-0.024815198 -0.1588611 0.44950002
-0.016854763 -0.1580659 0.44725001
-0.0089530079 -0.1569173 0.44400004
-0.0011651375 -0.15576871 0.44075003
0.0065311622 -0.15515022 0.43900001
0.014133741 -0.15417832 0.43625003
0.021627475 -0.15311806 0.43325001
0.029049801 -0.15223452 0.43075001
0.036448248 -0.15161605 0.42900002
0.043657269 -0.15055579 0.42600003
0.050851163 -0.1497606 0.42375001
0.058000594 -0.14905377 0.42175001
0.065002419 -0.14817022 0.41925001
0.072046071 -0.14755175 0.41750002
0.07902839 -0.14693327 0.41575003
0.08568988 -0.14587301 0.41275001
0.092527658 -0.14525454 0.41100001
0.099243447 -0.1445477 0.40900001
0.10582411 -0.14375252 0.40675002
0.11246478 -0.14313403 0.40500003
0.11919174 -0.14269227 0.40375003
0.12587489 -0.14225049 0.40250003
0.1321014 -0.14136694 0.40000001
0.13876198 -0.14101352 0.39900002
0.14520489 -0.14048339 0.39750001
0.15121239 -0.13959984 0.39500001
0.15753265 -0.13906974 0.39350003
0.1639048 -0.13862796 0.39225003
0.17012429 -0.13809784 0.39075002
0.17617802 -0.13747935 0.38900003
0.18252322 -0.13712592 0.38800001
0.18846744 -0.13650745 0.38625002
0.19472943 -0.13615404 0.38525003
0.20095637 -0.13580061 0.38425002
0.20701313 -0.13535884 0.38300002
0.21302611 -0.13491708 0.38175002
0.21885139 -0.13438694 0.38025001
0.22492065 -0.13403353 0.37925002
0.23049693 -0.13341506 0.37750003
0.23695403 -0.13332669 0.37725002
0.24307954 -0.13306163 0.37650001
0.24901302 -0.13270822 0.37550002
0.25440097 -0.13208973 0.37375003
-0 -0 0
-0 -0 0
-0 -0 0
-0 -0 0
-0 -0 0
-0 -0 0
-0 -0 0
-0 -0 0
-0 -0 0
-0 -0 0
-0 -0 0
-0 -0 0
-0 -0 0
-0 -0 0
-0 -0 0
-0 -0 0
-0 -0 0
-0 -0 0
-0 -0 0
-0 -0 0
-0 -0 0
-0 -0 0
-0 -0 0
-0 -0 0
-0 -0 0
-0 -0 0
-0 -0 0
-0 -0 0
-0 -0 0
-0 -0 0
-0.086347394 -0.16312543 0.48550004
-0.079484388 -0.16656935 0.49575001
-0.06822782 -0.16052146 0.47775003
-0.058322404 -0.15640552 0.46550003
-0.04981618 -0.15531354 0.46225002
-0.041401275 -0.15413755 0.45875001
-0.033127204 -0.15304558 0.45550004
-0.024994617 -0.15212159 0.45275003
-0.01696782 -0.15128161 0.45025003
-0.008993336 -0.14985362 0.44600001
-0.0011717463 -0.14892964 0.44325003
0.006560917 -0.14817365 0.44100001
0.014198537 -0.14724967 0.43825004
0.021714834 -0.14615768 0.43500003
0.029150963 -0.14523371 0.43225002
0.03657569 -0.14464571 0.43050003
0.043862231 -0.14380573 0.42800003
0.051061165 -0.14296573 0.42550001
0.058310024 -0.14246175 0.42400002
0.065428793 -0.14178975 0.42200002
0.072391205 -0.14094977 0.41950002
0.079361044 -0.14027777 0.41750002
0.086156994 -0.13943779 0.41500002
0.09292163 -0.1386818 0.41275001
0.099728741 -0.13809381 0.41100001
0.10634445 -0.13733783 0.40875003
0.11281189 -0.13649784 0.40625003
0.11963455 -0.13616183 0.40525001
0.12618761 -0.13557385 0.40350002
0.13259678 -0.13490187 0.40150002
0.13928366 -0.13456587 0.40050003
0.14557019 -0.13389388 0.39850003
0.15188232 -0.13330589 0.39675003
0.15813315 -0.13271789 0.39500001
0.16421819 -0.13204591 0.39300001
0.17055967 -0.13162591 0.39175001
0.17651768 -0.13095392 0.38975
0.18275844 -0.13053393 0.38850001
0.18907736 -0.13019794 0.38750002
0.19498216 -0.12960994 0.38575003
0.20108712 -0.12918995 0.38450003
0.20714825 -0.12876996 0.38325003
0.21344462 -0.12851797 0.38250002
0.21957082 -0.12818196 0.38150001
0.22610678 -0.12809797 0.38125002
0.2311075 -0.12717399 0.37850001
0.23742512 -0.12700599 0.37800002
0.24340236 -0.12666999 0.377
0.2493446 -0.126334 0.37600002
0.2552518 -0.12599801 0.37500003
-0 -0 0
-0 -0 0
-0 -0 0
-0 -0 0
-0 -0 0
-0 -0 0
-0 -0 0
-0 -0 0
-0 -0 0
-0 -0 0
-0 -0 0
-0 -0 0
-0 -0 0
-0 -0 0
-0 -0 0
-0 -0 0
-0 -0 0
-0 -0 0
-0 -0 0
-0 -0 0
-0 -0 0
-0 -0 0
-0 -0 0
-0 -0 0
-0 -0 0
-0 -0 0
-0 -0 0
-0 -0 0
-0 -0 0
-0 -0 0
-0 -0 0
-0.080205888 -0.15936565 0.50025004
-0.07161957 -0.15976386 0.50150001
-0.059575301 -0.15148099 0.47550002
-0.050139487 -0.14821562 0.46525002
-0.041694582 -0.14718026 0.46200001
-0.033454474 -0.14654312 0.46000001
-0.025146436 -0.14510955 0.45550004
-0.017080875 -0.14439276 0.45325002
-0.0090689529 -0.14327776 0.44975004
-0.0011796769 -0.14216276 0.44625002
0.0065981103 -0.14128669 0.44350001
0.014279533 -0.14041062 0.44075003
0.021839632 -0.13937525 0.43750003
0.029319562 -0.13849917 0.43475002
0.036766849 -0.13786203 0.43275002
0.044169676 -0.13730453 0.43100002
0.051271174 -0.13610989 0.42725003
0.058447547 -0.1353931 0.42500001
0.065622598 -0.1348356 0.42325002
0.072606906 -0.13403916 0.42075002
0.079551123 -0.13332237 0.41850001
0.086572215 -0.13284452 0.41700003
0.093315609 -0.1320481 0.41450003
0.10009272 -0.13141096 0.41250002
0.1067347 -0.13069417 0.41025001
0.11350612 -0.1302163 0.40875003
0.12007736 -0.12957916 0.40675002
0.12657852 -0.12894201 0.40475002
0.13317472 -0.12846416 0.40325001
0.13963142 -0.12790665 0.40150002
0.14611812 -0.1274288 0.40000001
0.15216944 -0.12663236 0.39750001
0.15843341 -0.12607487 0.39575002
0.16484497 -0.12567665 0.39450002
0.17143042 -0.12543772 0.39375001
0.17776316 -0.1250395 0.39250001
0.18334645 -0.12416343 0.38975
0.18944332 -0.12368558 0.38825002
0.19548762 -0.12320772 0.38675001
0.2016101 -0.12280951 0.38550001
0.20755363 -0.12233164 0.384
0.21386315 -0.12209272 0.38325003
0.2198586 -0.12169451 0.38200003
0.22610678 -0.12145558 0.38125002
0.23263398 -0.12137593 0.38100001
0.23883836 -0.121137 0.38025001
0.24388658 -0.12034057 0.37775001
0.24951039 -0.11986272 0.37625003
0.25559214 -0.11962379 0.37550002
-0 -0 0
-0 -0 0
-0 -0 0
-0 -0 0
-0 -0 0
-0 -0 0
-0 -0 0
-0 -0 0
-0 -0 0
-0 -0 0
-0 -0 0
-0 -0 0
-0 -0 0
-0 -0 0
-0 -0 0
-0 -0 0
-0 -0 0
-0 -0 0
-0 -0 0
-0 -0 0
-0 -0 0
-0 -0 0
-0 -0 0
-0 -0 0
-0 -0 0
-0 -0 0
-0 -0 0
-0 -0 0
-0 -0 0
-0 -0 0
-0 -0 0
-0.080486462 -0.15117696 0.50200003
-0.071940891 -0.15170397 0.50375003
-0.062801518 -0.1509511 0.50125003
-0.051432714 -0.14372352 0.47725001
-0.041942764 -0.13995914 0.46475002
-0.033599928 -0.13913098 0.46200001
-0.025394863 -0.13852869 0.46000001
-0.017222196 -0.13762523 0.45700002
-0.0091344872 -0.13642064 0.45300001
-0.0011889293 -0.13544191 0.44975004
0.0066501815 -0.13461375 0.44700003
0.014344329 -0.13333386 0.44275001
0.021951949 -0.13243042 0.43975002
0.029505024 -0.13175283 0.43750003
0.037000492 -0.13115053 0.43550003
0.04440026 -0.13047294 0.43325001
0.051661182 -0.12964478 0.43050003
0.058860119 -0.12889192 0.42800003
0.066010207 -0.12821433 0.42575002
0.072995178 -0.12738615 0.42300001
0.080121391 -0.12693444 0.42150003
0.08693552 -0.12610628 0.41875002
0.093709581 -0.12535341 0.41625002
0.10045669 -0.12467583 0.41400003
0.10725504 -0.12414881 0.41225001
0.1140615 -0.12369709 0.41075003
0.12074159 -0.12317007 0.40900001
0.12736036 -0.12264306 0.40725002
0.13391779 -0.12211605 0.40550002
0.14024003 -0.12143846 0.40325001
0.14648342 -0.12076088 0.40100002
0.15274365 -0.12015858 0.39900002
0.15893382 -0.11955628 0.39700001
0.16536731 -0.11917984 0.39575002
0.17175697 -0.1188034 0.39450002
0.1779896 -0.11835168 0.39300001
0.18393449 -0.11774939 0.39100003
0.19029722 -0.11744823 0.39000002
0.19649854 -0.1170718 0.38875002
0.20265606 -0.11669536 0.38750002
0.20849952 -0.11616835 0.38575003
0.21456067 -0.11579192 0.38450003
0.22043414 -0.11534019 0.38300002
0.22640331 -0.11496376 0.38175002
0.23278663 -0.11481318 0.38125002
0.23930943 -0.11473789 0.38100001
0.24533926 -0.11443675 0.38000003
0.25033933 -0.11368387 0.37750003
0.25610262 -0.11330744 0.37625003
-0 -0 0
-0 -0 0
-0 -0 0
-0 -0 0
-0 -0 0
-0 -0 0
-0 -0 0
-0 -0 0
-0 -0 0
-0 -0 0
-0 -0 0
-0 -0 0
-0 -0 0
-0 -0 0
-0 -0 0
-0 -0 0
-0 -0 0
-0 -0 0
-0 -0 0
-0 -0 0
-0 -0 0
-0 -0 0
-0 -0 0
-0 -0 0
-0 -0 0
-0 -0 0
-0 -0 0
-0 -0 0
-0 -0 0
-0 -0 0
-0 -0 0
-0 -0 0
-0.072297923 -0.14363663 0.50625002
-0.063553251 -0.14392035 0.50725001
-0.054234702 -0.14278544 0.50325
-0.042822685 -0.13462831 0.47450003
-0.033781745 -0.13179104 0.46450001
-0.025450069 -0.130798 0.46100003
-0.017278723 -0.13008869 0.45850003
-0.0091647338 -0.12895377 0.45450002
-0.0011935554 -0.1281026 0.45150003
0.0066836551 -0.12746421 0.44925001
0.014449623 -0.12654209 0.44600001
0.022126667 -0.12576185 0.44325003
0.029639903 -0.12469788 0.43950003
0.037170418 -0.12413042 0.43750003
0.044605222 -0.12349203 0.43525001
0.051901188 -0.12271179 0.43250003
0.05920393 -0.12214433 0.43050003
0.066281535 -0.12129315 0.42750001
0.073340312 -0.12058383 0.42500001
0.080454037 -0.12008732 0.42325002
0.087454543 -0.11951986 0.42125002
0.094328687 -0.11888148 0.41900003
0.10112397 -0.11824309 0.41675001
0.10771035 -0.11746285 0.41400003
0.11440862 -0.11689539 0.41200003
0.12133201 -0.11661166 0.41100001
0.12806401 -0.11618607 0.40950003
0.13424805 -0.11533489 0.40650001
0.14067474 -0.11476744 0.40450001
0.14703137 -0.11419999 0.40250003
0.15312646 -0.11349066 0.40000001
0.1597345 -0.11320695 0.39900002
0.16609855 -0.11278135 0.39750001
0.1720835 -0.11214297 0.39525002
0.17832929 -0.11171737 0.39375001
0.18464011 -0.11136272 0.39250001
0.19078517 -0.11093713 0.39100003
0.19687764 -0.11051154 0.38950002
0.20291756 -0.11008595 0.38800001
0.20917514 -0.10980222 0.38700002
0.21525821 -0.10944757 0.38575003
0.22115357 -0.10902198 0.38425002
0.22729293 -0.10873825 0.38325003
0.23309192 -0.10831266 0.38175002
0.23930943 -0.10809986 0.38100001
0.24533926 -0.10781614 0.38000003
0.25116825 -0.10746148 0.37875003
0.25661311 -0.10696495 0.377
-0 -0 0
-0 -0 0
-0 -0 0
-0 -0 0
-0 -0 0
-0 -0 0
-0 -0 0
-0 -0 0
-0 -0 0
-0 -0 0
-0 -0 0
-0 -0 0
-0 -0 0
-0 -0 0
-0 -0 0
-0 -0 0
-0 -0 0
-0 -0 0
-0 -0 0
-0 -0 0
-0 -0 0
-0 -0 0
-0 -0 0
-0 -0 0
-0 -0 0
-0 -0 0
-0 -0 0
-0 -0 0
-0 -0 0
-0 -0 0
-0 -0 0
-0 -0 0
-0 -0 0
-0.06427367 -0.13661395 0.51300001
-0.055177685 -0.13634765 0.51200002
-0.04516913 -0.13328515 0.50050002
-0.034472656 -0.12622809 0.47400004
-0.025670893 -0.12383136 0.46500003
-0.017391779 -0.12289929 0.46150002
-0.0092302682 -0.12190066 0.45775002
-0.001202147 -0.12110174 0.45475003
0.0067134099 -0.12016968 0.45125002
0.014546819 -0.1195705 0.44900003
0.022238985 -0.11863843 0.44550002
0.029892804 -0.11803925 0.44325003
0.037361577 -0.11710718 0.43975002
0.044861428 -0.11657457 0.43775001
0.052231193 -0.11590882 0.43525001
0.059444595 -0.11510991 0.43225002
0.06655287 -0.11431099 0.42925003
0.073685445 -0.1137118 0.42700002
0.08078669 -0.1131792 0.42500001
0.087765954 -0.11258002 0.42275003
0.094553813 -0.11184768 0.42000002
0.10136663 -0.1112485 0.41775003
0.10823068 -0.11078246 0.41600001
0.11482514 -0.1101167 0.41350001
0.12170102 -0.10978382 0.41225001
0.12845492 -0.10938437 0.41075003
0.1345783 -0.10851888 0.40750003
0.1411964 -0.10811942 0.40600002
0.14748798 -0.10752025 0.40375003
0.15370069 -0.10692105 0.40150002
0.16023491 -0.10658818 0.40025002
0.16672534 -0.10625529 0.39900002
0.1730631 -0.10585584 0.39750001
0.17923509 -0.1053898 0.39575002
0.18558095 -0.10505693 0.39450002
0.19139509 -0.10445774 0.39225003
0.19738309 -0.10399171 0.39050001
0.20344055 -0.10359226 0.38900003
0.20958053 -0.10325938 0.38775003
0.21581623 -0.10299307 0.38675001
0.22158523 -0.10252704 0.38500002
0.22788598 -0.10232731 0.38425002
0.23354986 -0.10186128 0.38250002
0.23978052 -0.10166155 0.38175002
0.24598488 -0.10146182 0.38100001
0.2519972 -0.10119552 0.38000003
0.25695348 -0.10052976 0.37750003
-0 -0 0
-0 -0 0
-0 -0 0
-0 -0 0
-0 -0 0
-0 -0 0
-0 -0 0
-0 -0 0
-0 -0 0
-0 -0 0
-0 -0 0
-0 -0 0
-0 -0 0
-0 -0 0
-0 -0 0
-0 -0 0
-0 -0 0
-0 -0 0
-0 -0 0
-0 -0 0
-0 -0 0
-0 -0 0
-0 -0 0
-0 -0 0
-0 -0 0
-0 -0 0
-0 -0 0
-0 -0 0
-0 -0 0
-0 -0 0
-0 -0 0
-0 -0 0
-0 -0 0
-0 -0 0
-0.055258512 -0.1276139 0.51275003
-0.046229545 -0.12748945 0.51225001
-0.036290832 -0.12419178 0.49900001
-0.026071139 -0.11753421 0.47225001
-0.017523678 -0.11572982 0.46500003
-0.0092907613 -0.11467206 0.46075001
-0.0012107384 -0.11398765 0.45800003
0.0067543229 -0.11299212 0.45400003
0.014611615 -0.11224548 0.45100003
0.022376262 -0.11156105 0.44825003
0.030044543 -0.11087663 0.44550002
0.03755274 -0.11000555 0.44200003
0.04498953 -0.1092589 0.43900001
0.052411199 -0.10869892 0.43675002
0.059719644 -0.10807671 0.43425003
0.066901714 -0.10739229 0.43150002
0.073987432 -0.10670786 0.42875001
0.081119344 -0.10621011 0.42675003
0.088233069 -0.10577456 0.42500001
0.095172919 -0.10521458 0.42275003
0.10185193 -0.10446794 0.41975003
0.10862093 -0.10390795 0.41750002
0.11538053 -0.10341019 0.41550002
0.12207004 -0.10291243 0.41350001
0.12884584 -0.10253911 0.41200003
0.13507368 -0.10179245 0.40900001
0.14189196 -0.10154358 0.40800002
0.14812724 -0.10092138 0.40550002
0.15437062 -0.10036139 0.40325001
0.16083543 -0.099988073 0.40175003
0.16703874 -0.099490307 0.39975002
0.17349848 -0.099179208 0.39850003
0.17980121 -0.098805882 0.39700001
0.18605137 -0.098432556 0.3955
0.19224899 -0.098059244 0.39400002
0.19852039 -0.097748138 0.39275002
0.20422502 -0.097188152 0.39050001
0.21039127 -0.096877053 0.38925001
0.21637426 -0.096503735 0.38775003
0.22244856 -0.096192636 0.38650003
0.22862731 -0.095943749 0.38550001
0.23416044 -0.095445983 0.38350001
0.24009457 -0.095134884 0.38225001
0.24630769 -0.094948225 0.38150001
0.2519972 -0.094574906 0.38000003
0.25763413 -0.09420158 0.37850001
-0 -0 0
-0 -0 0
-0 -0 0
-0 -0 0
-0 -0 0
-0 -0 0
-0 -0 0
-0 -0 0
-0 -0 0
-0 -0 0
-0 -0 0
-0 -0 0
-0 -0 0
-0 -0 0
-0 -0 0
-0 -0 0
-0 -0 0
-0 -0 0
-0 -0 0
-0 -0 0
-0 -0 0
-0 -0 0
-0 -0 0
-0 -0 0
-0 -0 0
-0 -0 0
-0 -0 0
-0 -0 0
-0 -0 0
-0 -0 0
-0 -0 0
-0 -0 0
-0 -0 0
-0 -0 0
-0 -0 0
-0.046319798 -0.11879615 0.51325005
-0.03730901 -0.11873828 0.51300001
-0.027340882 -0.11462989 0.49525002
-0.017712105 -0.10878556 0.47000003
-0.0093562957 -0.10739681 0.46400002
-0.0012173472 -0.10658671 0.46050003
0.0067877965 -0.105603 0.45625001
0.01468451 -0.10490863 0.45325002
0.022501061 -0.10432999 0.45075002
0.030162562 -0.10351988 0.44725001
0.037765142 -0.10288337 0.44450003
0.045245733 -0.10218899 0.44150001
0.052651204 -0.10155248 0.43875003
0.059960309 -0.10091597 0.43600002
0.067173041 -0.10027946 0.43325001
0.074461989 -0.099874407 0.43150002
0.08130943 -0.099006437 0.42775002
0.088492572 -0.098659247 0.42625001
0.095566891 -0.098254196 0.42450002
0.10239788 -0.097675547 0.42200002
0.10914128 -0.097096905 0.41950002
0.11586649 -0.096576117 0.41725001
0.12251286 -0.096055336 0.41500002
0.12939313 -0.095766015 0.41375002
0.13556907 -0.095013775 0.41050002
0.14232667 -0.094724454 0.40925002
0.14913182 -0.094492994 0.40825003
0.15523197 -0.093856484 0.40550002
0.16153602 -0.093393564 0.40350002
0.16787446 -0.092988513 0.40175003
0.17415154 -0.092583455 0.40000001
0.18036734 -0.092178404 0.39825001
0.18663941 -0.091831222 0.39675003
0.19285892 -0.091484033 0.39525002
0.19889949 -0.091078982 0.39350003
0.20500949 -0.090731792 0.39200002
0.21093179 -0.090326741 0.39025003
0.21693228 -0.089979544 0.38875002
0.2230241 -0.089690223 0.38750002
0.22892384 -0.089343034 0.38600001
0.23507632 -0.089111581 0.38500002
0.24072269 -0.088706531 0.38325003
0.24646911 -0.088359341 0.38175002
0.25216299 -0.088012144 0.38025001
0.25814465 -0.087780692 0.37925002
-0 -0 0
-0 -0 0
-0 -0 0
-0 -0 0
-0 -0 0
-0 -0 0
-0 -0 0
-0 -0 0
-0 -0 0
-0 -0 0
-0 -0 0
-0 -0 0
-0 -0 0
-0 -0 0
-0 -0 0
-0 -0 0
-0 -0 0
-0 -0 0
-0 -0 0
-0 -0 0
-0 -0 0
-0 -0 0
-0 -0 0
-0 -0 0
-0 -0 0
-0 -0 0
-0 -0 0
-0 -0 0
-0 -0 0
-0 -0 0
-0 -0 0
-0 -0 0
-0 -0 0
-0 -0 0
-0 -0 0
-0 -0 0
-0.037363555 -0.10996099 0.51375002
-0.028306991 -0.10974695 0.51275003
-0.018494075 -0.10503816 0.49075001
-0.0094470363 -0.10027586 0.46850002
-0.0012259388 -0.09925919 0.46375003
0.0068510259 -0.098563574 0.46050003
0.014797905 -0.097760938 0.45675004
0.022650817 -0.097118825 0.45375001
0.030381743 -0.096423209 0.45050001
0.038062505 -0.095888115 0.44800001
0.0455788 -0.095192499 0.44475001
0.052921209 -0.094389871 0.44100001
0.060304116 -0.093854778 0.43850002
0.06756065 -0.093266174 0.43575001
0.074807115 -0.092784598 0.43350002
0.08192721 -0.092249513 0.43100002
0.088855892 -0.091607407 0.42800003
0.095960863 -0.091232836 0.42625001
0.10288318 -0.090751261 0.42400002
0.10966162 -0.090216167 0.42150003
0.11635245 -0.089681081 0.41900003
0.12295568 -0.089145988 0.41650003
0.12978403 -0.088824935 0.41500002
0.13647726 -0.088450372 0.41325003
0.14302222 -0.088022299 0.41125003
0.14949711 -0.087594226 0.40925002
0.15571049 -0.08705914 0.40675002
0.1622366 -0.08673808 0.40525001
0.16850123 -0.086310007 0.40325001
0.17480461 -0.085935444 0.40150002
0.18093346 -0.085507371 0.39950001
0.18722744 -0.085186325 0.39800003
0.19334684 -0.084811755 0.39625001
0.19927858 -0.084383681 0.39425001
0.20553246 -0.084116139 0.39300001
0.21187766 -0.083902106 0.39200002
0.2174903 -0.083420523 0.38975
0.22374353 -0.08320649 0.38875002
0.22966518 -0.082885429 0.38725001
0.23614486 -0.082778417 0.38675001
0.24182187 -0.082403854 0.38500002
0.24776037 -0.082136311 0.38375002
0.25365508 -0.081868768 0.38250002
0.2588253 -0.081387177 0.38025001
-0 -0 0
-0 -0 0
-0 -0 0
-0 -0 0
-0 -0 0
-0 -0 0
-0 -0 0
-0 -0 0
-0 -0 0
-0 -0 0
-0 -0 0
-0 -0 0
-0 -0 0
-0 -0 0
-0 -0 0
-0 -0 0
-0 -0 0
-0 -0 0
-0 -0 0
-0 -0 0
-0 -0 0
-0 -0 0
-0 -0 0
-0 -0 0
-0 -0 0
-0 -0 0
-0 -0 0
-0 -0 0
-0 -0 0
-0 -0 0
-0 -0 0
-0 -0 0
-0 -0 0
-0 -0 0
-0 -0 0
-0 -0 0
-0 -0 0
-0.028403603 -0.10115755 0.51450002
-0.019313732 -0.10076433 0.51250005
-0.009809996 -0.095652372 0.48650002
-0.0012351911 -0.091867566 0.46725002
0.0068882192 -0.091031961 0.46300003
0.014911299 -0.090491273 0.46025002
0.022813054 -0.089852281 0.45700002
0.030567203 -0.089114979 0.45325002
0.038274907 -0.08857429 0.45050001
0.045809384 -0.087886147 0.44700003
0.053251218 -0.087247156 0.44375002
0.060751069 -0.086853929 0.44175002
0.067948267 -0.086165786 0.43825004
0.07506597 -0.085526787 0.43500003
0.082259856 -0.085084409 0.43275002
0.089374907 -0.08464203 0.43050003
0.09652368 -0.084297955 0.42875001
0.10342914 -0.083806418 0.42625001
0.11037708 -0.083413191 0.42425001
0.11711609 -0.082921661 0.42175001
0.12376751 -0.082430124 0.41925001
0.13056587 -0.082086056 0.41750002
0.13689008 -0.081496216 0.41450003
0.14363083 -0.081201293 0.41300002
0.14995372 -0.080709763 0.41050002
0.15628472 -0.080267385 0.40825003
0.16283712 -0.079972461 0.40675002
0.16902356 -0.079530083 0.40450001
0.17524 -0.079136856 0.40250003
0.18138637 -0.078743629 0.40050003
0.18781546 -0.078497864 0.39925003
0.19432274 -0.078301251 0.39825001
0.2002895 -0.077908024 0.39625001
0.20644771 -0.077613108 0.39475003
0.21295868 -0.077465646 0.39400002
0.21832734 -0.076924957 0.39125001
0.22417518 -0.076580882 0.38950002
0.23085131 -0.076531731 0.38925001
0.23645014 -0.076138504 0.38725001
0.24276404 -0.075991042 0.38650003
0.24840599 -0.075646967 0.38475001
0.25431821 -0.075401202 0.38350001
0.25967613 -0.075007975 0.38150001
-0 -0 0
-0 -0 0
-0 -0 0
-0 -0 0
-0 -0 0
-0 -0 0
-0 -0 0
-0 -0 0
-0 -0 0
-0 -0 0
-0 -0 0
-0 -0 0
-0 -0 0
-0 -0 0
-0 -0 0
-0 -0 0
-0 -0 0
-0 -0 0
-0 -0 0
-0 -0 0
-0 -0 0
-0 -0 0
-0 -0 0
-0 -0 0
-0 -0 0
-0 -0 0
-0 -0 0
-0 -0 0
-0 -0 0
-0 -0 0
-0 -0 0
-0 -0 0
-0 -0 0
-0 -0 0
-0 -0 0
-0 -0 0
-0 -0 0
-0 -0 0
-0.019492736 -0.092686355 0.51725
-0.010273778 -0.091297634 0.50950003
-0.0012688962 -0.086011507 0.48000002
0.0069402899 -0.083592437 0.46650001
0.015000395 -0.08296527 0.46300003
0.022962812 -0.082427695 0.46000001
0.030735804 -0.081666134 0.45575002
0.03846607 -0.081128567 0.45275003
0.04601435 -0.0804566 0.44900003
0.053551223 -0.079963826 0.44625002
0.060991734 -0.079471052 0.44350001
0.068335883 -0.078978278 0.44075003
0.075669944 -0.078575097 0.43850002
0.082735077 -0.07799273 0.43525001
0.089842021 -0.077544749 0.43275002
0.096861377 -0.077096775 0.43025002
0.10385378 -0.076693594 0.42800003
0.11063726 -0.076200821 0.42525002
0.11760207 -0.07588724 0.42350003
0.12443174 -0.07552886 0.42150003
0.13142589 -0.075304873 0.42025003
0.13771571 -0.074722499 0.41700003
0.14423943 -0.074319318 0.41475001
0.15050167 -0.073826544 0.41200003
0.15705034 -0.073512957 0.41025001
0.16363779 -0.073244177 0.40875003
0.16944142 -0.07266181 0.40550002
0.17600191 -0.072437815 0.40425003
0.18217893 -0.072079435 0.40225002
0.18840349 -0.071765855 0.40050003
0.19493265 -0.071586661 0.39950001
0.20092134 -0.071228281 0.39750001
0.20710143 -0.070959494 0.39600003
0.21376942 -0.0708699 0.3955
0.21916439 -0.070377126 0.39275002
0.22489463 -0.070018746 0.39075002
0.23144439 -0.069929153 0.39025003
0.23736604 -0.069660366 0.38875002
0.2437062 -0.069525972 0.38800001
0.24889022 -0.069077991 0.38550001
0.25481558 -0.068854004 0.38425002
0.26035681 -0.068540424 0.38250002
-0 -0 0
-0 -0 0
-0 -0 0
-0 -0 0
-0 -0 0
-0 -0 0
-0 -0 0
-0 -0 0
-0 -0 0
-0 -0 0
-0 -0 0
-0 -0 0
-0 -0 0
-0 -0 0
-0 -0 0
-0 -0 0
-0 -0 0
-0 -0 0
-0 -0 0
-0 -0 0
-0 -0 0
-0 -0 0
-0 -0 0
-0 -0 0
-0 -0 0
-0 -0 0
-0 -0 0
-0 -0 0
-0 -0 0
-0 -0 0
-0 -0 0
-0 -0 0
-0 -0 0
-0 -0 0
-0 -0 0
-0 -0 0
-0 -0 0
-0 -0 0
-0.019539842 -0.083876692 0.51850003
-0.010425011 -0.083634041 0.51700002
-0.0013376281 -0.081854597 0.50600004
0.0071188179 -0.077405967 0.47850001
0.015105689 -0.075424314 0.46625003
0.023112571 -0.074898571 0.46300003
0.030921264 -0.074170612 0.45850003
0.038678471 -0.073644869 0.45525002
0.046373036 -0.073200002 0.45250002
0.054001234 -0.072795585 0.45000002
0.061438687 -0.072269842 0.44675002
0.068801016 -0.071784534 0.44375002
0.075971931 -0.071218349 0.44025001
0.083305337 -0.070894815 0.43825004
0.090361044 -0.070409507 0.43525001
0.09736792 -0.069964647 0.43250003
0.10421775 -0.069479339 0.42950001
0.11135272 -0.069236688 0.42800003
0.11829629 -0.068913154 0.42600003
0.12531738 -0.068670504 0.42450002
0.1318168 -0.068185203 0.42150003
0.13812853 -0.067659453 0.41825002
0.14484805 -0.06737636 0.41650003
0.15123226 -0.066971943 0.41400003
0.15752885 -0.066567518 0.41150001
0.16423829 -0.066365309 0.41025001
0.17038159 -0.065960884 0.40775001
0.17665496 -0.06563735 0.40575001
0.18308474 -0.0653947 0.40425003
0.18922672 -0.065071166 0.40225002
0.19578655 -0.064909391 0.40125
0.20167953 -0.064545415 0.39900002
0.20762441 -0.064221881 0.39700001
0.21403968 -0.064060114 0.39600003
0.21986191 -0.06373658 0.39400002
0.22575794 -0.063453488 0.39225003
0.23218572 -0.063332163 0.39150003
0.23858722 -0.06321083 0.39075002
0.24417728 -0.062887296 0.38875002
0.24969725 -0.062563762 0.38675001
0.25597608 -0.062442433 0.38600001
0.26137781 -0.062118895 0.384
-0 -0 0
-0 -0 0
-0 -0 0
-0 -0 0
-0 -0 0
-0 -0 0
-0 -0 0
-0 -0 0
-0 -0 0
-0 -0 0
-0 -0 0
-0 -0 0
-0 -0 0
-0 -0 0
-0 -0 0
-0 -0 0
-0 -0 0
-0 -0 0
-0 -0 0
-0 -0 0
-0 -0 0
-0 -0 0
-0 -0 0
-0 -0 0
-0 -0 0
-0 -0 0
-0 -0 0
-0 -0 0
-0 -0 0
-0 -0 0
-0 -0 0
-0 -0 0
-0 -0 0
-0 -0 0
-0 -0 0
-0 -0 0
-0 -0 0
-0 -0 0
-0 -0 0
-0.010475422 -0.074987374 0.51950002
-0.001365385 -0.074554339 0.5165
0.0074795946 -0.072569594 0.50275004
0.01545397 -0.068852708 0.47700003
0.023299767 -0.067373164 0.46675003
0.031174164 -0.066723607 0.46225002
0.038975835 -0.066218399 0.45875001
0.04675734 -0.065857537 0.45625001
0.05430124 -0.065316245 0.45250002
0.061816879 -0.06488321 0.44950002
0.069188625 -0.064414084 0.44625002
0.076532774 -0.064017132 0.44350001
0.083875597 -0.063692361 0.44125003
0.090931959 -0.063223235 0.43800002
0.098099574 -0.062898457 0.43575001
0.10506702 -0.062501512 0.43300003
0.11187305 -0.062068474 0.43000001
0.11892109 -0.061815869 0.42825001
0.12583399 -0.061527178 0.42625001
0.13236408 -0.061094142 0.42325002
0.13878903 -0.060661111 0.42025003
0.14536969 -0.060336329 0.41800001
0.1517802 -0.059975468 0.41550002
0.15829448 -0.059686776 0.41350001
0.16493888 -0.059470262 0.41200003
0.17111285 -0.059109397 0.40950003
0.17741689 -0.058820706 0.40750003
0.1838773 -0.058604188 0.40600002
0.19016756 -0.058351584 0.40425003
0.1963965 -0.058098983 0.40250003
0.20256409 -0.057846375 0.40075001
0.20840889 -0.0575216 0.39850003
0.21444507 -0.057268996 0.39675003
0.22083846 -0.057124648 0.39575002
0.22690903 -0.056908131 0.39425001
0.23307531 -0.056727696 0.39300001
0.23919779 -0.056547265 0.39175001
0.24511945 -0.056330752 0.39025003
0.2508271 -0.056078143 0.38850001
0.25630769 -0.055789456 0.38650003
0.26171818 -0.055500764 0.38450003
-0 -0 0
-0 -0 0
-0 -0 0
-0 -0 0
-0 -0 0
-0 -0 0
-0 -0 0
-0 -0 0
-0 -0 0
-0 -0 0
-0 -0 0
-0 -0 0
-0 -0 0
-0 -0 0
-0 -0 0
-0 -0 0
-0 -0 0
-0 -0 0
-0 -0 0
-0 -0 0
-0 -0 0
-0 -0 0
-0 -0 0
-0 -0 0
-0 -0 0
-0 -0 0
-0 -0 0
-0 -0 0
-0 -0 0
-0 -0 0
-0 -0 0
-0 -0 0
-0 -0 0
-0 -0 0
-0 -0 0
-0 -0 0
-0 -0 0
-0 -0 0
-0 -0 0
-0 -0 0
-0.0013726549 -0.065904573 0.51925004
0.0077027548 -0.065714188 0.51775002
0.016377321 -0.064159386 0.50550002
0.02367416 -0.060193054 0.47425002
0.031427063 -0.059145946 0.46600002
0.03929444 -0.058701716 0.46250004
0.046936687 -0.058130566 0.45800003
0.054601248 -0.057749797 0.45500001
0.062160686 -0.057369027 0.45200002
0.069692515 -0.057051722 0.44950002
0.077007324 -0.056639224 0.44625002
0.084398329 -0.056353647 0.44400004
0.091502883 -0.05594115 0.44075003
0.098493554 -0.055528652 0.43750003
0.1057343 -0.055306535 0.43575001
0.11265357 -0.054957498 0.43300003
0.11961532 -0.054671921 0.43075001
0.12627681 -0.054291155 0.42775002
0.132755 -0.053878654 0.42450002
0.1395321 -0.053624809 0.42250001
0.14623913 -0.053370964 0.42050001
0.15324138 -0.053244043 0.41950002
0.15925153 -0.052799813 0.41600001
0.16583964 -0.052577697 0.41425002
0.17184411 -0.052196931 0.41125003
0.1781788 -0.051943086 0.40925002
0.18455666 -0.051720973 0.40750003
0.19099079 -0.051530588 0.40600002
0.19700642 -0.051245011 0.40375003
0.20332229 -0.051054627 0.40225002
0.20984708 -0.050927702 0.40125
0.21539095 -0.050578669 0.39850003
0.22125697 -0.050324824 0.39650002
0.22748458 -0.050166171 0.39525002
0.23352011 -0.049975783 0.39375001
0.23996103 -0.04988059 0.39300001
0.24590459 -0.049690209 0.39150003
0.25211835 -0.049563285 0.39050001
0.2573024 -0.04924598 0.38800001
0.26256901 -0.048960406 0.38575003
-0 -0 0
-0 -0 0
-0 -0 0
-0 -0 0
-0 -0 0
-0 -0 0
-0 -0 0
-0 -0 0
-0 -0 0
-0 -0 0
-0 -0 0
-0 -0 0
-0 -0 0
-0 -0 0
-0 -0 0
-0 -0 0
-0 -0 0
-0 -0 0
-0 -0 0
-0 -0 0
-0 -0 0
-0 -0 0
-0 -0 0
-0 -0 0
-0 -0 0
-0 -0 0
-0 -0 0
-0 -0 0
-0 -0 0
-0 -0 0
-0 -0 0
-0 -0 0
-0 -0 0
-0 -0 0
-0 -0 0
-0 -0 0
-0 -0 0
-0 -0 0
-0 -0 0
-0 -0 0
-0 -0 0
0.0077287899 -0.056885224 0.51950002
0.016660806 -0.056310352 0.51425004
0.02493462 -0.054695226 0.49950004
0.031848565 -0.051711351 0.47225001
0.039528079 -0.05094485 0.46525002
0.047372233 -0.050616354 0.46225002
0.05502126 -0.05020573 0.45850003
0.062607639 -0.049849853 0.45525002
0.070196413 -0.049576104 0.45275003
0.077568166 -0.049220227 0.44950002
0.084730983 -0.048809603 0.44575003
0.092021905 -0.048535854 0.44325003
0.098943815 -0.04812523 0.43950003
0.10597696 -0.047824103 0.43675002
0.11323895 -0.047659852 0.43525001
0.12037896 -0.04746823 0.43350002
0.12686723 -0.047057606 0.42975003
0.13369319 -0.046811227 0.42750001
0.14035773 -0.046537478 0.42500001
0.14710857 -0.046318479 0.42300001
0.153698 -0.046072103 0.42075002
0.15992147 -0.045743607 0.41775003
0.16634005 -0.045497227 0.41550002
0.17288874 -0.045305606 0.41375002
0.17894071 -0.04500448 0.41100001
0.18557568 -0.044867605 0.40975001
0.19181404 -0.044648603 0.40775001
0.19786032 -0.044402231 0.40550002
0.20408049 -0.044210605 0.40375003
0.21037008 -0.044046357 0.40225002
0.21714759 -0.043991607 0.40175003
0.22237302 -0.04363573 0.39850003
0.22863567 -0.043498855 0.39725003
0.23455797 -0.04330723 0.3955
0.24072425 -0.043170355 0.39425001
0.24731782 -0.043115605 0.39375001
0.2529254 -0.042896606 0.39175001
0.25779977 -0.042568106 0.38875002
0.26376018 -0.042431232 0.38750002
-0 -0 0
-0 -0 0
-0 -0 0
-0 -0 0
-0 -0 0
-0 -0 0
-0 -0 0
-0 -0 0
-0 -0 0
-0 -0 0
-0 -0 0
-0 -0 0
-0 -0 0
-0 -0 0
-0 -0 0
-0 -0 0
-0 -0 0
-0 -0 0
-0 -0 0
-0 -0 0
-0 -0 0
-0 -0 0
-0 -0 0
-0 -0 0
-0 -0 0
-0 -0 0
-0 -0 0
-0 -0 0
-0 -0 0
-0 -0 0
-0 -0 0
-0 -0 0
-0 -0 0
-0 -0 0
-0 -0 0
-0 -0 0
-0 -0 0
-0 -0 0
-0 -0 0
-0 -0 0
-0 -0 0
0 -0 0
0.016685104 -0.047419801 0.51500005
0.02547125 -0.046982434 0.51025003
0.033298526 -0.04546316 0.49375004
0.039867926 -0.043207265 0.46925002
0.04762844 -0.042792916 0.46475002
0.055381265 -0.042493664 0.46150002
0.063088968 -0.042240452 0.45875001
0.070506506 -0.041872144 0.45475003
0.078042723 -0.041641951 0.45225003
0.085348763 -0.041342702 0.44900003
0.092489012 -0.041020427 0.44550002
0.09978804 -0.040813256 0.44325003
0.10658358 -0.040444948 0.43925002
0.11369424 -0.040237769 0.43700001
0.1207955 -0.040053617 0.43500003
0.12760526 -0.039800406 0.43225002
0.13439685 -0.039570212 0.42975003
0.14085312 -0.03927096 0.42650002
0.14780411 -0.039132845 0.42500001
0.15433727 -0.038902652 0.42250001
0.16087851 -0.038695477 0.42025003
0.167441 -0.038511325 0.41825002
0.17403786 -0.038350187 0.41650003
0.18002915 -0.038073957 0.41350001
0.18636826 -0.037889801 0.41150001
0.19263728 -0.037705649 0.40950003
0.19859222 -0.037475452 0.40700001
0.2050914 -0.037360355 0.40575001
0.21128529 -0.037199222 0.40400001
0.21782321 -0.037107144 0.40300003
0.22362858 -0.036899969 0.40075001
0.22978677 -0.036761858 0.39925003
0.2357441 -0.03660072 0.39750001
0.2417928 -0.036462605 0.39600003
0.24810296 -0.036370527 0.39500001
0.25437808 -0.036278449 0.39400002
0.25879449 -0.035933159 0.39025003
0.26444083 -0.035772022 0.38850001
-0 -0 0
-0 -0 0
-0 -0 0
-0 -0 0
-0 -0 0
-0 -0 0
-0 -0 0
-0 -0 0
-0 -0 0
-0 -0 0
-0 -0 0
-0 -0 0
-0 -0 0
-0 -0 0
-0 -0 0
-0 -0 0
-0 -0 0
-0 -0 0
-0 -0 0
-0 -0 0
-0 -0 0
-0 -0 0
-0 -0 0
-0 -0 0
-0 -0 0
-0 -0 0
-0 -0 0
-0 -0 0
-0 -0 0
-0 -0 0
-0 -0 0
-0 -0 0
-0 -0 0
-0 -0 0
-0 -0 0
-0 -0 0
-0 -0 0
-0 -0 0
-0 -0 0
-0 -0 0
-0 -0 0
0 -0 0
0 -0 0
0.025558608 -0.038223162 0.51200002
0 -0 0
0.039952885 -0.035106331 0.47025001
0.047961503 -0.034938358 0.46800002
0.055711277 -0.034658406 0.46425003
0.063329637 -0.03437845 0.46050003
0.070855349 -0.034117159 0.45700002
0.078430988 -0.033930521 0.45450002
0.085919023 -0.033743884 0.45200002
0.093008034 -0.033445265 0.44800001
0.10012573 -0.033202637 0.44475001
0.10737219 -0.033034667 0.44250003
0.11453979 -0.032866694 0.44025001
0.12135088 -0.032624066 0.43700001
0.1284909 -0.03249342 0.43525001
0.13533504 -0.032306783 0.43275002
0.14167875 -0.032026827 0.42900002
0.14823884 -0.031821527 0.42625001
0.15479389 -0.031634893 0.42375001
0.16145273 -0.031485584 0.42175001
0.1680415 -0.031336274 0.41975003
0.17445572 -0.031168301 0.41750002
0.18089992 -0.031018991 0.41550002
0.18727405 -0.030869681 0.41350001
0.19322529 -0.030664383 0.41075003
0.19969009 -0.0305524 0.40925002
0.20597596 -0.030421756 0.40750003
0.21220051 -0.030291108 0.40575001
0.21849884 -0.030179128 0.40425003
0.22474463 -0.030067146 0.40275002
0.23079397 -0.0299365 0.40100002
0.23707852 -0.029843181 0.39975002
0.24301398 -0.029712537 0.39800003
0.24920216 -0.029619219 0.39675003
0.25486231 -0.029469909 0.39475003
0.26045236 -0.0293206 0.39275002
0.26563203 -0.029133962 0.39025003
-0 -0 0
-0 -0 0
-0 -0 0
-0 -0 0
-0 -0 0
-0 -0 0
-0 -0 0
-0 -0 0
-0 -0 0
-0 -0 0
-0 -0 0
-0 -0 0
-0 -0 0
-0 -0 0
-0 -0 0
-0 -0 0
-0 -0 0
-0 -0 0
-0 -0 0
-0 -0 0
-0 -0 0
-0 -0 0
-0 -0 0
-0 -0 0
-0 -0 0
-0 -0 0
-0 -0 0
-0 -0 0
-0 -0 0
-0 -0 0
-0 -0 0
-0 -0 0
-0 -0 0
-0 -0 0
-0 -0 0
-0 -0 0
-0 -0 0
-0 -0 0
-0 -0 0
-0 -0 0
-0 -0 0
0 -0 0
0 -0 0
0 -0 0
0 -0 0
0 -0 0
0.047987126 -0.026798857 0.46825004
0.056041282 -0.026727317 0.46700001
0.063707829 -0.026512697 0.46325001
0.071398012 -0.026355309 0.46050003
0.078948684 -0.026183613 0.45750001
0.086394235 -0.026011918 0.45450002
0.093578957 -0.025797298 0.45075002
0.10068855 -0.025596986 0.44725001
0.10791815 -0.025453907 0.44475001
0.11532031 -0.025368059 0.44325003
0.12239223 -0.02522498 0.44075003
0.12922892 -0.025053283 0.43775001
0.13627324 -0.024938818 0.43575001
0.14283465 -0.024752816 0.43250003
0.14954299 -0.024609735 0.43000001
0.15579845 -0.024409425 0.42650002
0.16231406 -0.024266344 0.42400002
0.16904233 -0.024166189 0.42225003
0.17560482 -0.024051724 0.42025003
0.18187952 -0.023908645 0.41775003
0.18829308 -0.023794182 0.41575003
0.19428374 -0.023636792 0.41300002
0.20054398 -0.023522329 0.41100001
0.20686053 -0.023422172 0.40925002
0.21298499 -0.023307709 0.40725002
0.21971497 -0.023264784 0.40650001
0.2264187 -0.02322186 0.40575001
0.23180117 -0.023050165 0.40275002
0.23781985 -0.022950009 0.40100002
0.24423514 -0.022892777 0.40000001
0.25061539 -0.022835545 0.39900002
0.25550792 -0.022649541 0.39575002
0.26111552 -0.022535076 0.39375001
0.26733372 -0.022477847 0.39275002
-0 -0 0
-0 -0 0
-0 -0 0
-0 -0 0
-0 -0 0
-0 -0 0
-0 -0 0
-0 -0 0
-0 -0 0
-0 -0 0
-0 -0 0
-0 -0 0
-0 -0 0
-0 -0 0
-0 -0 0
-0 -0 0
-0 -0 0
-0 -0 0
-0 -0 0
-0 -0 0
-0 -0 0
-0 -0 0
-0 -0 0
-0 -0 0
-0 -0 0
-0 -0 0
-0 -0 0
-0 -0 0
-0 -0 0
-0 -0 0
-0 -0 0
-0 -0 0
-0 -0 0
-0 -0 0
-0 -0 0
-0 -0 0
-0 -0 0
-0 -0 0
-0 -0 0
-0 -0 0
-0 -0 0
0 -0 0
0 -0 0
0 -0 0
0 -0 0
0 -0 0
0 -0 0
0.056221284 -0.018650644 0.46850002
0.06439545 -0.018640691 0.46825004
0.07194066 -0.018471502 0.46400002
0.079293817 -0.01829236 0.45950001
0.086869448 -0.018192837 0.45700002
0.094253682 -0.018073408 0.45400003
0.10147651 -0.017944029 0.45075002
0.10882808 -0.017854458 0.44850001
0.11590569 -0.017735029 0.44550002
0.12315587 -0.017655412 0.44350001
0.12959795 -0.01747627 0.43900001
0.13682052 -0.017416555 0.43750003
0.14366028 -0.017317032 0.43500003
0.15032549 -0.017207557 0.43225002
0.15689433 -0.01709808 0.42950001
0.16317539 -0.016968701 0.42625001
0.16964284 -0.016869178 0.42375001
0.17633608 -0.016799511 0.42200002
0.18264143 -0.016699988 0.41950002
0.18885921 -0.016600465 0.41700003
0.1954598 -0.016540751 0.41550002
0.2012759 -0.016421324 0.41250002
0.20787145 -0.016371563 0.41125003
0.21403095 -0.016291944 0.40925002
0.22066087 -0.016252136 0.40825003
0.22683722 -0.016182467 0.40650001
0.2326645 -0.016092898 0.40425003
0.23885772 -0.016033184 0.40275002
0.24515103 -0.015983421 0.40150002
0.25140053 -0.015933661 0.40025002
0.25679919 -0.015834138 0.39775002
0.26211023 -0.015734615 0.39525002
0.2678442 -0.015664948 0.39350003
-0 -0 0
-0 -0 0
-0 -0 0
-0 -0 0
-0 -0 0
-0 -0 0
-0 -0 0
-0 -0 0
-0 -0 0
-0 -0 0
-0 -0 0
-0 -0 0
-0 -0 0
-0 -0 0
-0 -0 0
-0 -0 0
-0 -0 0
-0 -0 0
-0 -0 0
-0 -0 0
-0 -0 0
-0 -0 0
-0 -0 0
-0 -0 0
-0 -0 0
-0 -0 0
-0 -0 0
-0 -0 0
-0 -0 0
-0 -0 0
-0 -0 0
-0 -0 0
-0 -0 0
-0 -0 0
-0 -0 0
-0 -0 0
-0 -0 0
-0 -0 0
-0 -0 0
-0 -0 0
-0 -0 0
0 -0 0
0 -0 0
0 -0 0
0 -0 0
0 -0 0
0 -0 0
0 -0 0
0.067592867 -0.011003014 0.49150002
0.073025972 -0.010544089 0.47100002
0.080113508 -0.01039298 0.46425003
0.087392189 -0.010292239 0.45975003
0.094980299 -0.01024187 0.45750001
0.10237702 -0.010180307 0.45475003
0.10967735 -0.010118743 0.45200002
0.11655612 -0.010029197 0.44800001
0.12371126 -0.0099732308 0.44550002
0.13063118 -0.0099060703 0.44250003
0.13768053 -0.0098557007 0.44025001
0.14456846 -0.0097997338 0.43775001
0.15119492 -0.0097325742 0.43475002
0.15771626 -0.0096654147 0.43175003
0.16422814 -0.0096038515 0.42900002
0.17104402 -0.0095646754 0.42725003
0.17748518 -0.0095087085 0.42475003
0.18362103 -0.009441548 0.42175001
0.18999146 -0.0093911793 0.41950002
0.19675346 -0.0093631959 0.41825002
0.20237377 -0.0092848418 0.41475001
0.20900874 -0.0092568593 0.41350001
0.21533841 -0.0092176823 0.41175002
0.22174186 -0.0091841025 0.41025001
0.22753476 -0.0091281366 0.40775001
0.23367169 -0.0090889595 0.40600002
0.24004385 -0.0090609761 0.40475002
0.24621955 -0.0090273963 0.40325001
0.25187162 -0.0089770267 0.40100002
0.25809044 -0.0089490432 0.39975002
0.26393393 -0.0089098671 0.39800003
0.26835471 -0.0088259168 0.39425001
-0 -0 0
-0 -0 0
-0 -0 0
-0 -0 0
-0 -0 0
-0 -0 0
-0 -0 0
-0 -0 0
-0 -0 0
-0 -0 0
-0 -0 0
-0 -0 0
-0 -0 0
-0 -0 0
-0 -0 0
-0 -0 0
-0 -0 0
-0 -0 0
-0 -0 0
-0 -0 0
-0 -0 0
-0 -0 0
-0 -0 0
-0 -0 0
-0 -0 0
-0 -0 0
-0 -0 0
-0 -0 0
-0 -0 0
-0 -0 0
-0 -0 0
-0 -0 0
-0 -0 0
-0 -0 0
-0 -0 0
-0 -0 0
-0 -0 0
-0 -0 0
-0 -0 0
-0 -0 0
-0 -0 0
0 -0 0
0 -0 0
0 -0 0
0 -0 0
0 -0 0
0 -0 0
0 -0 0
0.069518201 -0.0025092666 0.50550002
0.077405982 -0.0024782422 0.49925002
0.083262824 -0.0023950962 0.48250002
0.089150488 -0.0023280832 0.46900001
0.095914535 -0.0022933355 0.46200001
0.1030524 -0.002272239 0.45775002
0.11028398 -0.0022561061 0.45450002
0.11766184 -0.0022449375 0.45225003
0.12482202 -0.0022312866 0.44950002
0.13159062 -0.0022126718 0.44575003
0.13885328 -0.0022039849 0.44400004
0.14572436 -0.002190334 0.44125003
0.15258603 -0.0021779244 0.43875003
0.15899478 -0.0021605506 0.43525001
0.16595082 -0.0021518636 0.43350002
0.17274545 -0.0021419358 0.43150002
0.17967893 -0.0021344898 0.43000001
0.18525371 -0.0021121521 0.42550001
0.19191627 -0.0021034654 0.42375001
0.19851753 -0.0020947785 0.42200002
0.20444752 -0.0020798866 0.41900003
0.21090423 -0.0020711997 0.41725001
0.21716887 -0.002061272 0.41525003
0.22322825 -0.0020501032 0.41300002
0.23004587 -0.0020463802 0.41225001
0.23554222 -0.0020314883 0.40925002
0.24122998 -0.0020190785 0.40675002
0.24774602 -0.0020141145 0.40575001
0.25297081 -0.0019992227 0.40275002
0.25938171 -0.001994259 0.40175003
0.26575756 -0.001989295 0.40075001
0.27090722 -0.0019756441 0.39800003
-0 0 0
-0 0 0
-0 0 0
-0 0 0
-0 0 0
-0 0 0
-0 0 0
-0 0 0
-0 0 0
-0 0 0
-0 0 0
-0 0 0
-0 0 0
-0 0 0
-0 0 0
-0 0 0
-0 0 0
-0 0 0
-0 0 0
-0 0 0
-0 0 0
-0 0 0
-0 0 0
-0 0 0
-0 0 0
-0 0 0
-0 0 0
-0 0 0
-0 0 0
-0 0 0
-0 0 0
-0 0 0
-0 0 0
-0 0 0
-0 0 0
-0 0 0
-0 0 0
-0 0 0
-0 0 0
-0 0 0
-0 0 0
0 0 0
0 0 0
0 0 0
0 0 0
0 0 0
0 0 0
0 0 0
0.070102677 0.0063508428 0.50975001
0.078801379 0.0063321544 0.50825
0.087188691 0.0062947785 0.50525004
0.093522474 0.0061297002 0.49200001
0.097315885 0.0058400347 0.46875003
0.10457201 0.0057870848 0.46450001
0.11161854 0.0057310206 0.46000001
0.11902773 0.0056998734 0.45750001
0.12614104 0.0056593828 0.45425001
0.1334357 0.0056313504 0.45200002
0.14018241 0.0055846306 0.44825003
0.14754075 0.0055659423 0.44675002
0.15449877 0.0055347956 0.44425002
0.16091259 0.0054880753 0.44050002
0.16757779 0.0054538134 0.43775001
0.17484723 0.0054413551 0.43675002
0.18145484 0.0054102079 0.43425003
0.18775713 0.0053728316 0.43125001
0.19418077 0.0053416849 0.42875001
0.20051681 0.0053105378 0.42625001
0.20664327 0.0052762767 0.42350003
0.21330518 0.0052575883 0.42200002
0.21952228 0.0052295565 0.41975003
0.22620101 0.0052139829 0.41850001
0.23158044 0.0051703774 0.41500002
0.23813218 0.0051548039 0.41375002
0.24389879 0.0051236572 0.41125003
0.25064632 0.0051143127 0.41050002
0.25516918 0.0050613633 0.40625003
0.26212561 0.0050582485 0.40600002
0.26774704 0.0050302166 0.40375003
0.27277908 0.0049928403 0.40075001
-0 0 0
-0 0 0
-0 0 0
-0 0 0
-0 0 0
-0 0 0
-0 0 0
-0 0 0
-0 0 0
-0 0 0
-0 0 0
-0 0 0
-0 0 0
-0 0 0
-0 0 0
-0 0 0
-0 0 0
-0 0 0
-0 0 0
-0 0 0
-0 0 0
-0 0 0
-0 0 0
-0 0 0
-0 0 0
-0 0 0
-0 0 0
-0 0 0
-0 0 0
-0 0 0
-0 0 0
-0 0 0
-0 0 0
-0 0 0
-0 0 0
-0 0 0
-0 0 0
-0 0 0
-0 0 0
-0 0 0
-0 0 0
0 0 0
0 0 0
0 0 0
0 0 0
0 0 0
0 0 0
0 0 0
0 0 0
0 0 0
0 0 0
0 0 0
0 0 0
0.10732983 0.014245963 0.47675002
0.11240716 0.013842564 0.46325001
0.12006841 0.013790271 0.46150002
0.12732124 0.013700628 0.45850003
0.13535458 0.013700628 0.45850003
0.14237152 0.013603513 0.45525002
0.14952227 0.013528809 0.45275003
0.15606377 0.013409283 0.44875002
0.16310436 0.013342051 0.44650003
0.16977897 0.013252405 0.44350001
0.17694899 0.013207585 0.44200003
0.18312627 0.013095529 0.43825004
0.18938981 0.012998414 0.43500003
0.19644529 0.012961063 0.43375003
0.20345695 0.012923711 0.43250003
0.20896098 0.012796714 0.42825001
0.21621159 0.012781774 0.42775002
0.22226794 0.012699599 0.42500001
0.22849818 0.012632367 0.42275003
0.23409155 0.012535253 0.41950002
0.24086602 0.01250537 0.41850001
0.24686413 0.012438138 0.41625002
0.25278339 0.012370905 0.41400003
0.25925189 0.012333552 0.41275001
0.26422393 0.012228968 0.40925002
0.27039963 0.012184145 0.40775001
0.27550176 0.012094501 0.40475002
-0 0 0
-0 0 0
-0 0 0
-0 0 0
-0 0 0
-0 0 0
-0 0 0
-0 0 0
-0 0 0
-0 0 0
-0 0 0
-0 0 0
-0 0 0
-0 0 0
-0 0 0
-0 0 0
-0 0 0
-0 0 0
-0 0 0
-0 0 0
-0 0 0
-0 0 0
-0 0 0
-0 0 0
-0 0 0
-0 0 0
-0 0 0
-0 0 0
-0 0 0
-0 0 0
-0 0 0
-0 0 0
-0 0 0
-0 0 0
-0 0 0
-0 0 0
-0 0 0
-0 0 0
-0 0 0
-0 0 0
-0 0 0
0 0 0
0 0 0
0 0 0
0 0 0
0 0 0
0 0 0
0 0 0
0 0 0
0 0 0
0 0 0
0 0 0
0 0 0
0 0 0
0 0 0
0 0 0
0.12947334 0.022055529 0.46625003
0.13653542 0.021878138 0.46250004
0.14346609 0.021700747 0.45875001
0.15092584 0.021617966 0.45700002
0.15815042 0.021511531 0.45475003
0.16566142 0.021452401 0.45350003
0.17207588 0.021263184 0.44950002
0.17835017 0.021073967 0.44550002
0.18552895 0.021003013 0.44400004
0.1917844 0.020837449 0.44050002
0.19825688 0.020707361 0.43775001
0.20557383 0.020671884 0.43700001
0.21188864 0.020541798 0.43425003
0.2179807 0.020399885 0.43125001
0.22475211 0.02032893 0.42975003
0.23093045 0.020210668 0.42725003
0.23757921 0.020139713 0.42575002
0.24388763 0.020045104 0.42375001
0.24953292 0.019903192 0.42075002
0.25675219 0.019891366 0.42050001
0.26239243 0.019761281 0.41775003
0.26874334 0.019690324 0.41625002
0.27437854 0.019572064 0.41375002
0.27907529 0.019394673 0.41000003
-0 0 0
-0 0 0
-0 0 0
-0 0 0
-0 0 0
-0 0 0
-0 0 0
-0 0 0
-0 0 0
-0 0 0
-0 0 0
-0 0 0
-0 0 0
-0 0 0
-0 0 0
-0 0 0
-0 0 0
-0 0 0
-0 0 0
-0 0 0
-0 0 0
-0 0 0
-0 0 0
-0 0 0
-0 0 0
-0 0 0
-0 0 0
-0 0 0
-0 0 0
-0 0 0
-0 0 0
-0 0 0
-0 0 0
-0 0 0
-0 0 0
-0 0 0
-0 0 0
-0 0 0
-0 0 0
-0 0 0
-0 0 0
0 0 0
0 0 0
0 0 0
0 0 0
0 0 0
0 0 0
0 0 0
0 0 0
0 0 0
0 0 0
0 0 0
0 0 0
0 0 0
0 0 0
0 0 0
0 0 0
0 0 0
0 0 0
0 0 0
0 0 0
0 0 0
0 0 0
0 0 0
0 0 0
0 0 0
0 0 0
0 0 0
0 0 0
0.22189803 0.028415043 0.43900001
0.22605957 0.027978139 0.43225002
0.23241682 0.027832502 0.43000001
0.23799773 0.02760596 0.42650002
0.24518262 0.027573597 0.42600003
0.25220174 0.027525051 0.42525002
0.2593472 0.027492687 0.42475003
0.26396272 0.027201418 0.42025003
0.27084163 0.027152872 0.41950002
0.27719691 0.027055781 0.41800001
0.28247863 0.026861602 0.41500002
-0 0 0
-0 0 0
-0 0 0
-0 0 0
-0 0 0
-0 0 0
-0 0 0
-0 0 0
-0 0 0
-0 0 0
-0 0 0
-0 0 0
-0 0 0
-0 0 0
-0 0 0
-0 0 0
-0 0 0
-0 0 0
-0 0 0
-0 0 0
-0 0 0
-0 0 0
-0 0 0
-0 0 0
-0 0 0
-0 0 0
-0 0 0
-0 0 0
-0 0 0
-0 0 0
-0 0 0
-0 0 0
-0 0 0
-0 0 0
-0 0 0
-0 0 0
-0 0 0
-0 0 0
-0 0 0
-0 0 0
-0 0 0
0 0 0
0 0 0
0 0 0
0 0 0
0 0 0
0 0 0
0 0 0
0 0 0
0 0 0
0 0 0
0 0 0
0 0 0
0 0 0
0 0 0
0 0 0
0 0 0
0 0 0
0 0 0
0 0 0
0 0 0
0 0 0
0 0 0
0 0 0
0 0 0
0 0 0
0 0 0
0 0 0
0 0 0
0 0 0
0 0 0
0 0 0
0 0 0
0 0 0
0 0 0
0 0 0
0 0 0
0 0 0
0.27902058 0.034564368 0.42075002
0.28349966 0.034215234 0.41650003
-0 0 0
-0 0 0
-0 0 0
-0 0 0
-0 0 0
-0 0 0
-0 0 0
-0 0 0
-0 0 0
-0 0 0
-0 0 0
-0 0 0
-0 0 0
-0 0 0
-0 0 0
-0 0 0
-0 0 0
-0 0 0
-0 0 0
-0 0 0
-0 0 0
-0 0 0
-0 0 0
-0 0 0
-0 0 0
-0 0 0
-0 0 0
-0 0 0
-0 0 0
-0 0 0
-0 0 0
-0 0 0
-0 0 0
-0 0 0
-0 0 0
-0 0 0
-0 0 0
-0 0 0
-0 0 0
-0 0 0
-0 0 0
0 0 0
0 0 0
0 0 0
0 0 0
0 0 0
0 0 0
0 0 0
0 0 0
0 0 0
0 0 0
0 0 0
0 0 0
0 0 0
0 0 0
0 0 0
0 0 0
0 0 0
0 0 0
0 0 0
0 0 0
0 0 0
0 0 0
0 0 0
0 0 0
0 0 0
0 0 0
0 0 0
0 0 0
0 0 0
0 0 0
0 0 0
0 0 0
0 0 0
0 0 0
0 0 0
0 0 0
0 0 0
0 0 0
0 0 0
-0 0 0
-0 0 0
-0 0 0
-0 0 0
-0 0 0
-0 0 0
-0 0 0
-0 0 0
-0 0 0
-0 0 0
-0 0 0
-0 0 0
-0 0 0
-0 0 0
-0 0 0
-0 0 0
-0 0 0
-0 0 0
-0 0 0
-0 0 0
-0 0 0
-0 0 0
-0 0 0
-0 0 0
-0 0 0
-0 0 0
-0 0 0
-0 0 0
-0 0 0
-0 0 0
-0 0 0
-0 0 0
-0 0 0
-0 0 0
-0 0 0
-0 0 0
-0 0 0
-0 0 0
-0 0 0
-0 0 0
-0 0 0
0 0 0
0 0 0
0 0 0
0 0 0
0 0 0
0 0 0
0 0 0
0 0 0
0 0 0
0 0 0
0 0 0
0 0 0
0 0 0
0 0 0
0 0 0
0 0 0
0 0 0
0 0 0
0 0 0
0 0 0
0 0 0
0 0 0
0 0 0
0 0 0
0 0 0
0 0 0
0 0 0
0 0 0
0 0 0
0 0 0
0 0 0
0 0 0
0 0 0
0 0 0
0 0 0
0 0 0
0 0 0
0 0 0
0 0 0
-0 0 0
-0 0 0
-0 0 0
-0 0 0
-0 0 0
-0 0 0
-0 0 0
-0 0 0
-0 0 0
-0 0 0
-0 0 0
-0 0 0
-0 0 0
-0 0 0
-0 0 0
-0 0 0
-0 0 0
-0 0 0
-0 0 0
-0 0 0
-0 0 0
-0 0 0
-0 0 0
-0 0 0
-0 0 0
-0 0 0
-0 0 0
-0 0 0
-0 0 0
-0 0 0
-0 0 0
-0 0 0
-0 0 0
-0 0 0
-0 0 0
-0 0 0
-0 0 0
-0 0 0
-0.011211385 0.039989188 0.29750001
-0.005943466 0.039619539 0.29475001
-0.00078050332 0.039686751 0.29525003
0.0043962607 0.039720353 0.29550001
0.0095007895 0.039417915 0.29325002
0.014963266 0.040291626 0.29975
0.020130854 0.040123604 0.2985
0 0 0
0 0 0
0 0 0
0 0 0
0 0 0
0 0 0
0 0 0
0 0 0
0 0 0
0 0 0
0 0 0
0 0 0
0 0 0
0 0 0
0 0 0
0 0 0
0 0 0
0 0 0
0 0 0
0 0 0
0 0 0
0 0 0
0 0 0
0 0 0
0 0 0
0 0 0
0 0 0
0 0 0
0 0 0
0 0 0
0 0 0
0 0 0
0 0 0
0 0 0
0 0 0
-0 0 0
-0 0 0
-0 0 0
-0 0 0
-0 0 0
-0 0 0
-0 0 0
-0 0 0
-0 0 0
-0 0 0
-0 0 0
-0 0 0
-0 0 0
-0 0 0
-0 0 0
-0 0 0
-0 0 0
-0 0 0
-0 0 0
-0 0 0
-0 0 0
-0 0 0
-0 0 0
-0 0 0
-0 0 0
-0 0 0
-0 0 0
-0 0 0
-0 0 0
-0 0 0
-0 0 0
-0 0 0
-0 0 0
-0 0 0
-0.030929677 0.043578111 0.287
-0.026803661 0.045096513 0.29700002
-0.021418137 0.044716913 0.29450002
-0.016285837 0.044792835 0.29500002
-0.01110775 0.04475487 0.29475001
-0.0059031369 0.044451192 0.29275
-0.00077125093 0.044299353 0.29175001
0.00434419 0.044337314 0.29200003
0.0094440924 0.044261392 0.2915
0.014563914 0.044299353 0.29175001
0.019979116 0.044982634 0.29625002
0.025233403 0.045096513 0.29700002
0 0 0
0 0 0
0 0 0
0 0 0
0 0 0
0 0 0
0 0 0
0 0 0
0 0 0
0 0 0
0 0 0
0 0 0
0 0 0
0 0 0
0 0 0
0 0 0
0 0 0
0 0 0
0 0 0
0 0 0
0 0 0
0 0 0
0 0 0
0 0 0
0 0 0
0 0 0
0 0 0
0 0 0
0 0 0
0 0 0
0 0 0
0 0 0
0 0 0
0 0 0
-0 0 0
-0 0 0
-0 0 0
-0 0 0
-0 0 0
-0 0 0
-0 0 0
-0 0 0
-0 0 0
-0 0 0
-0 0 0
-0 0 0
-0 0 0
-0 0 0
-0 0 0
-0 0 0
-0 0 0
-0 0 0
-0 0 0
-0 0 0
-0 0 0
-0 0 0
-0 0 0
-0 0 0
-0 0 0
-0 0 0
-0 0 0
-0 0 0
-0 0 0
-0 0 0
-0 0 0
-0 0 0
-0.041736428 0.049467046 0.29225001
-0.036647268 0.049509361 0.29250002
-0.031603236 0.049636312 0.29325002
-0.026442667 0.049593993 0.29300001
-0.021199955 0.049340095 0.2915
-0.015982203 0.049001575 0.28950003
-0.010796847 0.048493784 0.28650001
-0.0057519036 0.048282206 0.28525001
-0.00075274619 0.048197575 0.28475001
0.0042326096 0.048155259 0.2845
0.0093144998 0.04866305 0.28750002
0.014339278 0.048620731 0.28725001
0.019523896 0.049001575 0.28950003
0.024936037 0.049678624 0.29350001
0.030283386 0.050017148 0.29550001
0.035400812 0.049932521 0.29500002
0.040638234 0.050017148 0.29550001
0 0 0
0.11730135 0.11505637 0.67975003
0.12849836 0.11442164 0.67600006
0 0 0
0 0 0
0 0 0
0 0 0
0 0 0
0 0 0
0 0 0
0 0 0
0 0 0
0 0 0
0 0 0
0 0 0
0 0 0
0 0 0
0 0 0
0 0 0
0 0 0
0 0 0
0 0 0
0 0 0
0 0 0
0 0 0
0 0 0
0 0 0
0 0 0
0 0 0
0 0 0
0 0 0
-0 0 0
-0 0 0
-0 0 0
-0 0 0
-0 0 0
-0 0 0
-0 0 0
-0 0 0
-0 0 0
-0 0 0
-0 0 0
-0 0 0
-0 0 0
-0 0 0
-0 0 0
-0 0 0
-0 0 0
-0 0 0
-0 0 0
-0 0 0
-0 0 0
-0 0 0
-0 0 0
-0 0 0
-0 0 0
-0 0 0
-0 0 0
-0 0 0
-0 0 0
-0 0 0
-0.051488303 0.054045442 0.28950003
-0.046937075 0.054652162 0.29275
-0.041629322 0.054418806 0.2915
-0.03639669 0.054232124 0.29050002
-0.031037448 0.053765412 0.28800002
-0.025720686 0.053205356 0.28500003
-0.020363592 0.052271925 0.28
-0.015319726 0.051805209 0.2775
-0.010438836 0.051711868 0.27700001
-0.0055805058 0.051665194 0.27675
-0.00072895439 0.051478513 0.27575001
0.0040987134 0.051431838 0.2755
0.0089743175 0.051711868 0.27700001
0.013914964 0.052038569 0.27875
0.018950654 0.052458614 0.28100002
0.024320073 0.053438712 0.28625003
0.029566012 0.053858753 0.28850001
0.035040803 0.054512154 0.29200003
0.040810142 0.055398908 0.29675001
0.046552122 0.056052309 0.30025002
0.10323727 0.11168458 0.59825003
0.12712024 0.1248459 0.66875005
0.13904494 0.12503259 0.66975003
0 0 0
0 0 0
0 0 0
0 0 0
0 0 0
0 0 0
0 0 0
0 0 0
0 0 0
0 0 0
0 0 0
0 0 0
0 0 0
0 0 0
0 0 0
0 0 0
0 0 0
0 0 0
0 0 0
0 0 0
0 0 0
0 0 0
0 0 0
0 0 0
0 0 0
0 0 0
0 0 0
-0 0 0
-0 0 0
-0 0 0
-0 0 0
-0 0 0
-0 0 0
-0 0 0
-0 0 0
-0 0 0
-0 0 0
-0 0 0
-0 0 0
-0 0 0
-0 0 0
-0 0 0
-0 0 0
-0 0 0
-0 0 0
-0 0 0
-0 0 0
-0 0 0
-0 0 0
-0 0 0
-0 0 0
-0 0 0
-0 0 0
-0 0 0
-0 0 0
-0 0 0
-0 0 0
-0.051932935 0.059599571 0.29200003
-0.046576329 0.059293408 0.29050002
-0.041058082 0.058681086 0.28750002
-0.035457015 0.057762597 0.28300002
-0.029932816 0.056691028 0.27775002
-0.024885889 0.056282811 0.27575001
-0.019981775 0.056078706 0.27475002
-0.015154108 0.056027677 0.27450001
-0.010344623 0.056027677 0.27450001
-0.0055250544 0.055925623 0.27400002
-0.00072432822 0.055925623 0.27400002
0.0040801167 0.055976648 0.27425
0.0088933222 0.056027677 0.27450001
0.013702809 0.056027677 0.27450001
0.018562874 0.05618076 0.27525002
0.023470461 0.056384865 0.27625
0.028515574 0.056793083 0.27825001
0.034080777 0.057966702 0.28400001
0.039813098 0.059089303 0.28950003
0.0457769 0.060262922 0.29525003
0.051597066 0.061028328 0.29900002
0 0 0
0.13920064 0.13685448 0.67050004
0.15190521 0.13772196 0.67475003
0 0 0
0 0 0
0 0 0
0 0 0
0 0 0
0 0 0
0 0 0
0 0 0
0 0 0
0 0 0
0 0 0
0 0 0
0 0 0
0 0 0
0 0 0
0 0 0
0 0 0
0 0 0
0 0 0
0 0 0
0 0 0
0 0 0
0 0 0
0 0 0
0 0 0
0 0 0
-0 0 0
-0 0 0
-0 0 0
-0 0 0
-0 0 0
-0 0 0
-0 0 0
-0 0 0
-0 0 0
-0 0 0
-0 0 0
-0 0 0
-0 0 0
-0 0 0
-0 0 0
-0 0 0
-0 0 0
-0 0 0
-0 0 0
-0 0 0
-0 0 0
-0.50406581 0.33279464 1.5022501
-0 0 0
-0 0 0
-0 0 0
-0 0 0
-0 0 0
-0 0 0
-0 0 0
-0.057000186 0.064631611 0.29175001
-0.051399373 0.064022399 0.289
-0.045614339 0.063025504 0.2845
-0.039951298 0.06197324 0.27975002
-0.034423374 0.060865588 0.27475002
-0.02950174 0.060644053 0.27375001
-0.024705393 0.060644053 0.27375001
-0.019890867 0.060588673 0.27350003
-0.0150851 0.060533289 0.27325001
-0.010250409 0.060256377 0.27200001
-0.0054796841 0.060200989 0.27175
-0.00071838027 0.060200989 0.27175
0.0040429235 0.060200989 0.27175
0.0088366251 0.060422525 0.27275002
0.01362793 0.060477905 0.273
0.018461714 0.060644053 0.27375001
0.02330054 0.060754817 0.27425
0.028131267 0.060810201 0.27450001
0.033150759 0.061197881 0.27625
0.038437858 0.061917856 0.27950001
0.044691585 0.063856244 0.28825
0.05094995 0.065406971 0.29525003
0.056645725 0.066016175 0.29800001
0.061555542 0.065683879 0.29650003
0 0 0
0 0 0
0 0 0
0 0 0
0 0 0
0 0 0
0 0 0
0 0 0
0 0 0
0 0 0
0 0 0
0 0 0
0 0 0
0 0 0
0 0 0
0 0 0
0 0 0
0 0 0
0 0 0
0 0 0
0 0 0
0 0 0
0 0 0
0 0 0
0 0 0
0 0 0
0 0 0
-0 0 0
-0 0 0
-0 0 0
-0 0 0
-0 0 0
-0 0 0
-0 0 0
-0 0 0
-0 0 0
-0 0 0
-0 0 0
-0 0 0
-0 0 0
-0 0 0
-0 0 0
-0 0 0
-0 0 0
-0 0 0
-0 0 0
-0 0 0
-0.52703249 0.35669777 1.49275
-0 0 0
-0 0 0
-0 0 0
-0 0 0
-0 0 0
-0 0 0
-0 0 0
-0.062431257 0.070073105 0.29325002
-0.056414071 0.068997815 0.28875002
-0.050510112 0.067862779 0.28400001
-0.044692431 0.066608272 0.27875
-0.039237242 0.065652467 0.27475002
-0.034204114 0.065234289 0.273
-0.029393971 0.065174557 0.27275002
-0.024615146 0.065174557 0.27275002
-0.019763593 0.064935595 0.27175
-0.014933283 0.064636908 0.2705
-0.010175039 0.064517431 0.27000001
-0.005429273 0.064338215 0.26925001
-0.00071044965 0.064218737 0.26875001
0.0040057297 0.064338215 0.26925001
0.0087475302 0.064517431 0.27000001
0.013490653 0.06457717 0.27025002
0.018259395 0.064696647 0.27075002
0.02313062 0.06505508 0.27225003
0.027951924 0.065174557 0.27275002
0.032880753 0.065473251 0.27400002
0.037784621 0.065652467 0.27475002
0.043102384 0.066429064 0.27800003
0.049655702 0.068758853 0.28775001
0.056075469 0.070491269 0.29500002
0.061763149 0.071088649 0.29750001
0.067369588 0.071506821 0.29925001
0 0 0
0 0 0
0 0 0
0 0 0
0 0 0
0 0 0
0 0 0
0 0 0
0 0 0
0 0 0
0 0 0
0 0 0
0 0 0
0 0 0
0 0 0
0 0 0
0 0 0
0 0 0
0 0 0
0 0 0
0 0 0
0 0 0
0 0 0
0 0 0
0 0 0
0 0 0
-0 0 0
-0 0 0
-0 0 0
-0 0 0
-0 0 0
-0 0 0
-0 0 0
-0 0 0
-0 0 0
-0 0 0
-0 0 0
-0 0 0
-0 0 0
-0 0 0
-0 0 0
-0 0 0
-0 0 0
-0 0 0
-0 0 0
-0 0 0
-0.5247376 0.38103902 1.48625
-0 0 0
-0 0 0
-0 0 0
-0 0 0
-0 0 0
-0 0 0
-0.067166023 0.074733637 0.2915
-0.061792567 0.074413165 0.29025
-0.055730261 0.073131293 0.28525001
-0.049309608 0.071080282 0.27725002
-0.044011023 0.070375249 0.27450001
-0.039023027 0.070054777 0.27325001
-0.034047503 0.069670208 0.27175
-0.029124551 0.069285654 0.27025002
-0.024344401 0.069157459 0.26975
-0.019509049 0.068772897 0.26825002
-0.014753862 0.068516515 0.26725
-0.010090248 0.06864471 0.26775002
-0.005419191 0.068901084 0.26875001
-0.00071044965 0.068901084 0.26875001
0.0039982912 0.068901084 0.26875001
0.0087070316 0.068901084 0.26875001
0.013353375 0.068580613 0.26750001
0.018090794 0.068772897 0.26825002
0.022854496 0.068965182 0.26900002
0.027721338 0.069349743 0.2705
0.032700747 0.069862492 0.27250001
0.037543952 0.06999068 0.273
0.042443439 0.070182964 0.27375001
0.047973193 0.071272567 0.27800003
0.054887429 0.074028611 0.28875002
0.061088424 0.075438678 0.29425001
0.066243947 0.075438678 0.29425001
0.070610859 0.07460545 0.29100001
0.074278511 0.073195383 0.28550002
0 0 0
0 0 0
0 0 0
0 0 0
0 0 0
0 0 0
0 0 0
0 0 0
0 0 0
0 0 0
0 0 0
0 0 0
0 0 0
0 0 0
0 0 0
0 0 0
0 0 0
0 0 0
0 0 0
0 0 0
0 0 0
0 0 0
0 0 0
0 0 0
-0 0 0
-0 0 0
-0 0 0
-0 0 0
-0 0 0
-0 0 0
-0 0 0
-0 0 0
-0 0 0
-0 0 0
-0 0 0
-0 0 0
-0 0 0
-0 0 0
-0 0 0
-0 0 0
-0 0 0
-0 0 0
-0 0 0
-0 0 0
-0 0 0
-0 0 0
-0 0 0
-0 0 0
-0 0 0
-0 0 0
-0 0 0
-0.066647597 0.079196304 0.28925002
-0.061100662 0.078580253 0.287
-0.054362647 0.076184519 0.27825001
-0.048776045 0.075089321 0.27425
-0.043770526 0.074747071 0.273
-0.038737405 0.074267924 0.27125001
-0.033765603 0.073788777 0.26950002
-0.028882068 0.073378079 0.26800001
-0.024141343 0.073241182 0.26750001
-0.019690868 0.074131027 0.27075002
-0.015223116 0.075500019 0.27575001
-0.010504785 0.076321416 0.27875
-0.0056510819 0.076732114 0.28025001
-0.0007401894 0.076663665 0.28
0.0041619423 0.076595217 0.27975002
0.0090634134 0.076595217 0.27975002
0.013852566 0.075979166 0.2775
0.018427994 0.074815527 0.27325001
0.022812014 0.073514976 0.2685
0.027413893 0.073241182 0.26750001
0.032310739 0.073720329 0.26925001
0.037337672 0.07433638 0.27150002
0.042288397 0.07467863 0.27275002
0.04728293 0.075020872 0.27400002
0.053034086 0.076389864 0.27900001
0.059842777 0.078922503 0.28825
0.066075101 0.080359951 0.29350001
0.071278147 0.080428399 0.29375002
0.075904571 0.079880804 0.29175001
0 0 0
0 0 0
0 0 0
0 0 0
0 0 0
0 0 0
0 0 0
0 0 0
0 0 0
0 0 0
0 0 0
0 0 0
0 0 0
0 0 0
0 0 0
0 0 0
0 0 0
0 0 0
0 0 0
0 0 0
0 0 0
0 0 0
0 0 0
0 0 0
-0 0 0
-0 0 0
-0 0 0
-0 0 0
-0 0 0
-0 0 0
-0 0 0
-0 0 0
-0 0 0
-0 0 0
-0 0 0
-0 0 0
-0 0 0
-0 0 0
-0 0 0
-0 0 0
-0 0 0
-0 0 0
-0 0 0
-0 0 0
-0 0 0
-0 0 0
-0 0 0
-0 0 0
-0 0 0
-0 0 0
-0.071653523 0.084163003 0.289
-0.06647478 0.084017396 0.28850001
-0.060089417 0.082197264 0.28225002
-0.053678844 0.080013104 0.27475002
-0.048553731 0.079503462 0.273
-0.043489944 0.078993827 0.27125001
-0.038487487 0.078484192 0.26950002
-0.033546347 0.077974558 0.26775002
-0.028935952 0.078192964 0.2685
-0.024976136 0.080595538 0.27675
-0.020363592 0.081542015 0.28
-0.015457742 0.081542015 0.28
-0.01053305 0.081396401 0.27950001
-0.0056157941 0.081105188 0.27850002
-0.00073424145 0.080886766 0.27775002
0.0041545038 0.081323601 0.27925003
0.0090391142 0.081250794 0.27900001
0.013927445 0.081250794 0.27900001
0.018798914 0.081177987 0.27875
0.023576662 0.080813959 0.2775
0.027849441 0.079139434 0.27175
0.032100733 0.077901743 0.26750001
0.03695948 0.078265771 0.26875001
0.042017072 0.078921027 0.27100003
0.047067225 0.079430662 0.27275002
0.052131172 0.07986749 0.27425
0.058285724 0.081760429 0.28075001
0.065287158 0.084454231 0.29000002
0.071460135 0.085764728 0.29450002
0 0 0
0 0 0
0 0 0
0 0 0
0 0 0
0 0 0
0 0 0
0 0 0
0 0 0
0 0 0
0 0 0
0 0 0
0 0 0
0 0 0
0 0 0
0 0 0
0 0 0
0 0 0
0 0 0
0 0 0
0 0 0
0 0 0
0 0 0
0 0 0
0 0 0
-0 0 0
-0 0 0
-0 0 0
-0 0 0
-0 0 0
-0 0 0
-0 0 0
-0 0 0
-0 0 0
-0 0 0
-0 0 0
-0 0 0
-0 0 0
-0 0 0
-0 0 0
-0 0 0
-0 0 0
-0 0 0
-0 0 0
-0 0 0
-0 0 0
-0 0 0
-0 0 0
-0 0 0
-0 0 0
-0 0 0
-0.071467571 0.088966668 0.28825
-0.06572593 0.088040739 0.28525001
-0.058652379 0.085031457 0.2755
-0.053288095 0.084182687 0.27275002
-0.048242491 0.083719723 0.27125001
-0.043169282 0.083102427 0.26925001
-0.038094755 0.082330823 0.26675001
-0.033734277 0.083102427 0.26925001
-0.029932816 0.085725911 0.27775002
-0.025246883 0.086343199 0.27975002
-0.020327229 0.086266033 0.27950001
-0.015388734 0.086034551 0.27875
-0.010476522 0.085803069 0.27800003
-0.0055704238 0.085262939 0.27625
-0.00072763267 0.084954299 0.27525002
0.00411731 0.085417256 0.27675
0.0089824172 0.085571587 0.27725002
0.013890005 0.085880227 0.27825001
0.018765194 0.085880227 0.27825001
0.023640383 0.085880227 0.27825001
0.028515574 0.085880227 0.27825001
0.032940753 0.084722817 0.27450001
0.036787573 0.082562305 0.26750001
0.041629456 0.082870945 0.2685
0.046851519 0.083796881 0.27150002
0.051893566 0.084259845 0.273
0.057299595 0.085185781 0.27600002
0.064386643 0.088272221 0.28600001
0.070792854 0.090046927 0.29175001
0.075384229 0.089429639 0.28975001
0 0 0
0 0 0
0 0 0
0 0 0
0 0 0
0 0 0
0 0 0
0 0 0
0 0 0
0 0 0
0 0 0
0 0 0
0 0 0
0 0 0
0 0 0
0 0 0
0 0 0
0 0 0
0 0 0
0 0 0
0 0 0
0 0 0
0 0 0
0 0 0
-0 0 0
-0 0 0
-0 0 0
-0 0 0
-0 0 0
-0 0 0
-0 0 0
-0 0 0
-0 0 0
-0 0 0
-0 0 0
-0 0 0
-0 0 0
-0 0 0
-0 0 0
-0 0 0
-0 0 0
-0 0 0
-0 0 0
-0 0 0
-0 0 0
-0 0 0
-0 0 0
-0 0 0
-0 0 0
-0.076849803 0.094396345 0.28950003
-0.071467571 0.093988754 0.28825
-0.06474667 0.091624774 0.28100002
-0.05817337 0.089097753 0.27325001
-0.053092718 0.088608652 0.27175
-0.047975712 0.087956518 0.26975
-0.042808536 0.087059841 0.26700002
-0.038380377 0.087630451 0.26875001
-0.034799244 0.090565056 0.27775002
-0.030067528 0.09097264 0.27900001
-0.025179196 0.09097264 0.27900001
-0.020254502 0.090809606 0.27850002
-0.015347331 0.09064658 0.27800003
-0.010448257 0.090402022 0.27725002
-0.0055805058 0.090238981 0.27675
-0.00073027617 0.090075955 0.27625
0.0041135908 0.090157472 0.27650002
0.0089743175 0.090320505 0.27700001
0.013840087 0.090402022 0.27725002
0.018714614 0.090483539 0.2775
0.023619145 0.09064658 0.27800003
0.028541194 0.090809606 0.27850002
0.033480767 0.09097264 0.27900001
0.03775024 0.089505337 0.27450001
0.041435651 0.08714135 0.26725
0.046506386 0.087875009 0.26950002
0.051655959 0.088608652 0.27175
0.056728672 0.089097753 0.27325001
0.063092157 0.091380224 0.28025001
0.070064902 0.094151795 0.28875002
0.075319193 0.094396345 0.28950003
0.20799041 0.24422403 0.74900001
0.22126119 0.24438708 0.74950004
0 0 0
0 0 0
0 0 0
0 0 0
0 0 0
0 0 0
0 0 0
0 0 0
0 0 0
0 0 0
0 0 0
0 0 0
0 0 0
0 0 0
0 0 0
0 0 0
0 0 0
0 0 0
0 0 0
0 0 0
0 0 0
0 0 0
-0 0 0
-0 0 0
-0 0 0
-0 0 0
-0 0 0
-0 0 0
-0 0 0
-0 0 0
-0 0 0
-0 0 0
-0 0 0
-0 0 0
-0 0 0
-0 0 0
-0 0 0
-0 0 0
-0 0 0
-0 0 0
-0 0 0
-0 0 0
-0 0 0
-0 0 0
-0 0 0
-0 0 0
-0 0 0
-0.076849803 0.09944021 0.28950003
-0.071033686 0.098409735 0.28650001
-0.063652195 0.09488897 0.27625
-0.05790725 0.093429141 0.27200001
-0.052897349 0.092999779 0.27075002
-0.047842328 0.092398673 0.26900002
-0.042688288 0.091454074 0.26625001
-0.039415758 0.094803102 0.27600002
-0.034893211 0.095661826 0.27850002
-0.030013643 0.095661826 0.27850002
-0.025088949 0.095490083 0.27800003
-0.020163594 0.095232464 0.27725002
-0.015264521 0.094974846 0.27650002
-0.010401151 0.094803102 0.27600002
-0.0055603418 0.094717227 0.27575001
-0.00072631089 0.09437374 0.27475002
0.0040801167 0.094201989 0.27425
0.0089014219 0.09437374 0.27475002
0.013765207 0.094717227 0.27575001
0.018647173 0.094974846 0.27650002
0.023576662 0.095318332 0.2775
0.028515574 0.095575951 0.27825001
0.033450764 0.095747687 0.27875
0.038369097 0.09583357 0.27900001
0.04205583 0.093171522 0.27125001
0.04611811 0.09179756 0.26725
0.051418349 0.092913903 0.2705
0.056572966 0.093600884 0.27250001
0.062022794 0.094631352 0.2755
0.069397621 0.098237991 0.28600001
0.075839527 0.10012718 0.2915
0.20743504 0.25658664 0.74700004
0.21912089 0.25495505 0.74225003
0 0 0
0 0 0
0 0 0
0 0 0
0 0 0
0 0 0
0 0 0
0 0 0
0 0 0
0 0 0
0 0 0
0 0 0
0 0 0
0 0 0
0 0 0
0 0 0
0 0 0
0 0 0
0 0 0
0 0 0
0 0 0
0 0 0
-0 0 0
-0 0 0
-0 0 0
-0 0 0
-0 0 0
-0 0 0
-0 0 0
-0 0 0
-0 0 0
-0 0 0
-0 0 0
-0 0 0
-0 0 0
-0 0 0
-0 0 0
-0 0 0
-0 0 0
-0 0 0
-0 0 0
-0 0 0
-0 0 0
-0 0 0
-0 0 0
-0 0 0
-0 0 0
-0.076584339 0.10412316 0.28850001
-0.070413843 0.10249905 0.28400001
-0.06324897 0.099070385 0.27450001
-0.057854023 0.098077878 0.27175
-0.05265313 0.097265832 0.26950002
-0.047442153 0.096273318 0.26675001
-0.043489944 0.097897425 0.27125001
-0.03970138 0.10033359 0.27800003
-0.034830566 0.10033359 0.27800003
-0.029932816 0.10024335 0.27775002
-0.024976136 0.099882439 0.27675
-0.020036319 0.099431299 0.2755
-0.015154108 0.099070385 0.27450001
-0.010316359 0.098799706 0.27375001
-0.0054948074 0.098348565 0.27250001
-0.00071771943 0.097987652 0.27150002
0.0040354845 0.097897425 0.27125001
0.0088123269 0.098168105 0.27200001
0.013665369 0.098799706 0.27375001
0.018562874 0.099341072 0.27525002
0.023491703 0.099792212 0.27650002
0.028464334 0.10024335 0.27775002
0.033360764 0.10033359 0.27800003
0.038300335 0.10051404 0.27850002
0.042986099 0.1000629 0.27725002
0.04611811 0.096453771 0.26725
0.051038176 0.096904911 0.2685
0.056365363 0.097987652 0.27150002
0.061797671 0.099070385 0.27450001
0.06891232 0.10249905 0.28400001
0.076164737 0.10565703 0.29275
0.20514409 0.26662385 0.73875004
0.21771863 0.26617271 0.73750001
0 0 0
0 0 0
0 0 0
0 0 0
0 0 0
0 0 0
0 0 0
0 0 0
0 0 0
0 0 0
0 0 0
0 0 0
0 0 0
0 0 0
0 0 0
0 0 0
0 0 0
0 0 0
0 0 0
0 0 0
0 0 0
0 0 0
-0 0 0
-0 0 0
-0 0 0
-0 0 0
-0 0 0
-0 0 0
-0 0 0
-0 0 0
-0 0 0
-0 0 0
-0 0 0
-0 0 0
-0 0 0
-0 0 0
-0 0 0
-0 0 0
-0 0 0
-0 0 0
-0 0 0
-0 0 0
-0 0 0
-0 0 0
-0 0 0
-0 0 0
-0 0 0
-0.076119795 0.10848752 0.28675002
-0.069422103 0.10593375 0.28
-0.062903345 0.10328541 0.273
-0.057641134 0.10243416 0.27075002
-0.0525066 0.10167748 0.26875001
-0.047264304 0.10054249 0.26575002
-0.044291604 0.10451499 0.27625
-0.03970138 0.10517709 0.27800003
-0.034799244 0.1050825 0.27775002
-0.029851988 0.10479875 0.27700001
-0.024863327 0.10423125 0.2755
-0.019890867 0.10347458 0.27350003
-0.015002291 0.10281249 0.27175
-0.010175039 0.1021504 0.27000001
-0.005419191 0.10167748 0.26875001
-0.0007111106 0.10177208 0.26900002
0.0039982912 0.10167748 0.26875001
0.0087313307 0.10196124 0.26950002
0.013553051 0.10271791 0.27150002
0.018444855 0.10347458 0.27350003
0.023364261 0.10404208 0.27500001
0.028336231 0.10460959 0.27650002
0.033330761 0.1050825 0.27775002
0.038300335 0.10536625 0.27850002
0.043179903 0.10536625 0.27850002
0.04663581 0.102245 0.27025002
0.050895616 0.10129916 0.26775002
0.056209654 0.10243416 0.27075002
0.061403699 0.10319083 0.27275002
0.067517087 0.10527167 0.27825001
0.075189099 0.10933877 0.289
0.081016295 0.11037919 0.29175001
0.21816145 0.27958944 0.73900002
0 0 0
0 0 0
0 0 0
0 0 0
0 0 0
0 0 0
0 0 0
0 0 0
0 0 0
0 0 0
0 0 0
0 0 0
0 0 0
0 0 0
0 0 0
0 0 0
0 0 0
0 0 0
0 0 0
0 0 0
0 0 0
0 0 0
-0 0 0
-0 0 0
-0 0 0
-0 0 0
-0 0 0
-0 0 0
-0 0 0
-0 0 0
-0 0 0
-0 0 0
-0 0 0
-0 0 0
-0 0 0
-0 0 0
-0 0 0
-0 0 0
-0 0 0
-0 0 0
-0 0 0
-0 0 0
-0 0 0
-0 0 0
-0 0 0
-0 0 0
-0 0 0
-0.076584339 0.11417603 0.28850001
-0.068864249 0.10992164 0.27775002
-0.062845744 0.10794286 0.27275002
-0.057534687 0.10695346 0.27025002
-0.052213538 0.10576618 0.26725
-0.047708936 0.10616194 0.26825002
-0.044532102 0.10992164 0.27775002
-0.039665673 0.10992164 0.27775002
-0.0347366 0.10972377 0.27725002
-0.029717278 0.10913013 0.27575001
-0.024682833 0.10823968 0.27350003
-0.019745413 0.10744816 0.27150002
-0.014836673 0.10635982 0.26875001
-0.010024297 0.10527149 0.266
-0.0053183688 0.10438104 0.26375002
-0.00069392758 0.10388634 0.26250002
0.0039127464 0.10408422 0.26300001
0.0085693402 0.10467786 0.26450002
0.013353375 0.10586513 0.26750001
0.018242532 0.10705239 0.2705
0.023194337 0.10804179 0.273
0.028233748 0.10903119 0.2755
0.033240762 0.10962483 0.27700001
0.038231574 0.11002059 0.27800003
0.043179903 0.11021847 0.27850002
0.047455493 0.10883331 0.27500001
0.050610486 0.10537043 0.26625001
0.056105852 0.10695346 0.27025002
0.061459977 0.10804179 0.273
0.067699075 0.11041634 0.27900001
0.074668758 0.1135824 0.287
0.16168547 0.23042978 0.58225
0.19247803 0.25803387 0.65200001
0.20311983 0.25704449 0.64950001
0.21540785 0.25813282 0.65225005
0 0 0
0 0 0
0 0 0
0 0 0
0 0 0
0 0 0
0 0 0
0 0 0
0 0 0
0 0 0
0 0 0
0 0 0
0 0 0
0 0 0
0 0 0
0 0 0
0 0 0
0 0 0
0 0 0
0 0 0
-0 0 0
-0 0 0
-0 0 0
-0 0 0
-0 0 0
-0 0 0
-0 0 0
-0 0 0
-0 0 0
-0 0 0
-0 0 0
-0 0 0
-0 0 0
-0 0 0
-0 0 0
-0 0 0
-0 0 0
-0 0 0
-0 0 0
-0 0 0
-0 0 0
-0 0 0
-0 0 0
-0 0 0
-0 0 0
-0.076119795 0.11847942 0.28675002
-0.068554327 0.11424432 0.27650002
-0.062615328 0.1122817 0.27175
-0.057375014 0.11135206 0.26950002
-0.052018166 0.11000922 0.26625001
-0.048109099 0.11176523 0.2705
-0.044451937 0.1145542 0.27725002
-0.03962997 0.11465749 0.2775
-0.034673952 0.11434761 0.27675
-0.029609511 0.11352126 0.27475002
-0.024524897 0.1122817 0.27175
-0.019581776 0.11124875 0.26925001
-0.014629649 0.10949274 0.26500002
-0.0098170284 0.10763343 0.26050001
-0.0051368889 0.10525765 0.25475001
-0.00066683139 0.1042247 0.25225002
0.0037490954 0.10412139 0.252
0.008285854 0.10567082 0.25575
0.013103779 0.10845979 0.26250002
0.018057074 0.11062899 0.26775002
0.022960696 0.11166194 0.27025002
0.028156888 0.11352126 0.27475002
0.033210758 0.11434761 0.27675
0.038197193 0.11476079 0.27775002
0.043102384 0.11486409 0.27800003
0.047714345 0.11424432 0.27650002
0.050610486 0.11000922 0.26625001
0.056105852 0.11166194 0.27025002
0.06123485 0.112385 0.27200001
0.067395762 0.11476079 0.27775002
0.074603721 0.11847942 0.28675002
0 0 0
0 0 0
0.20194709 0.2668111 0.64575005
0.2141694 0.26794735 0.64850003
0 0 0
0 0 0
0 0 0
0 0 0
0 0 0
0 0 0
0 0 0
0 0 0
0 0 0
0 0 0
0 0 0
0 0 0
0 0 0
0 0 0
0 0 0
0 0 0
0 0 0
0 0 0
0 0 0
0 0 0
-0 0 0
-0 0 0
-0 0 0
-0 0 0
-0 0 0
-0 0 0
-0 0 0
-0 0 0
-0 0 0
-0 0 0
-0 0 0
-0 0 0
-0 0 0
-0 0 0
-0.57193172 0.53749996 1.24825
-0 0 0
-0 0 0
-0 0 0
-0 0 0
-0 0 0
-0 0 0
-0 0 0
-0 0 0
-0 0 0
-0 0 0
-0.07618615 0.12358301 0.287
-0.068554327 0.11906169 0.27650002
-0.062615328 0.11701632 0.27175
-0.057375014 0.11604746 0.26950002
-0.05196932 0.11454035 0.266
-0.048375882 0.11712398 0.27200001
-0.044451937 0.11938464 0.27725002
-0.039558567 0.11927699 0.27700001
-0.034579989 0.11884639 0.27600002
-0.029474799 0.11776988 0.27350003
-0.024412088 0.11647806 0.2705
-0.019381778 0.11475566 0.26650003
-0.014312213 0.11163379 0.25925002
-0.0094590178 0.10808132 0.25100002
-0.0051116832 0.10915782 0.25350001
-0.00066220522 0.10786602 0.25050002
0.0037193405 0.1076507 0.25
0.0081319632 0.10808132 0.25100002
0.012704425 0.10958841 0.2545
0.017686153 0.11292559 0.26225001
0.022896975 0.11604746 0.26950002
0.028105645 0.11809282 0.27425
0.033210758 0.11916933 0.27675
0.038197193 0.11959994 0.27775002
0.043063618 0.11959994 0.27775002
0.047843769 0.11938464 0.27725002
0.05065801 0.11475566 0.26650003
0.055898242 0.11593981 0.26925001
0.06123485 0.11712398 0.27200001
0.067395762 0.11959994 0.27775002
0.075124063 0.12433657 0.28875002
0 0 0
0 0 0
0 0 0
0 0 0
0 0 0
0 0 0
0 0 0
0 0 0
0 0 0
0 0 0
0 0 0
0 0 0
0 0 0
0 0 0
0 0 0
0 0 0
0 0 0
0 0 0
0 0 0
0 0 0
0 0 0
0 0 0
0 0 0
0 0 0
-0 0 0
-0 0 0
-0 0 0
-0 0 0
-0 0 0
-0 0 0
-0 0 0
-0 0 0
-0 0 0
-0 0 0
-0 0 0
-0 0 0
-0 0 0
-0 0 0
-0 0 0
-0 0 0
-0 0 0
-0 0 0
-0 0 0
-0 0 0
-0 0 0
-0 0 0
-0 0 0
-0 0 0
-0 0 0
-0.07618615 0.12858331 0.287
-0.068740278 0.12421508 0.27725002
-0.062845744 0.12219896 0.27275002
-0.057162117 0.12029485 0.2685
-0.051920481 0.11906278 0.26575002
-0.048420347 0.12197495 0.27225003
-0.044451937 0.12421508 0.27725002
-0.03952286 0.12399106 0.27675
-0.034454696 0.12320701 0.27500001
-0.029393971 0.12219896 0.27275002
-0.024276717 0.12051887 0.26900002
-0.019163596 0.11805472 0.26350001
-0.013911968 0.11290243 0.252
-0.0094872816 0.11279043 0.25175002
-0.0052377111 0.11637463 0.25975001
-0.00065097015 0.11032628 0.24625002
0.0037081826 0.11167036 0.24925001
0 0 0
0.012155315 0.10909421 0.24350001
0.017214073 0.11435851 0.25525001
0.022727054 0.11984683 0.26750001
0.027900685 0.12197495 0.27225003
0.033060756 0.12343103 0.2755
0.038059667 0.12399106 0.27675
0.043063618 0.12443909 0.27775002
0.047757484 0.12399106 0.27675
0.050610486 0.1192868 0.26625001
0.055742536 0.12029485 0.2685
0.06123485 0.12186294 0.27200001
0.067092456 0.12387906 0.27650002
0.074278511 0.12791128 0.28550002
0 0 0
0 0 0
0 0 0
0 0 0
0 0 0
0 0 0
0 0 0
0 0 0
0 0 0
0 0 0
0 0 0
0 0 0
0 0 0
0 0 0
0 0 0
0 0 0
0 0 0
0 0 0
0 0 0
0 0 0
0 0 0
0 0 0
0 0 0
0 0 0
-0 0 0
-0 0 0
-0 0 0
-0 0 0
-0 0 0
-0 0 0
-0 0 0
-0 0 0
-0 0 0
-0 0 0
-0 0 0
-0 0 0
-0 0 0
-0 0 0
-0 0 0
-0 0 0
-0 0 0
-0 0 0
-0 0 0
-0 0 0
-0 0 0
-0 0 0
-0 0 0
-0 0 0
-0 0 0
-0.075920701 0.13311818 0.28600001
-0.069422103 0.13032548 0.28
-0.062672935 0.1266019 0.27200001
-0.057215344 0.1250892 0.26875001
-0.05177395 0.12334377 0.26500002
-0.048286956 0.12636919 0.27150002
-0.044371769 0.12881278 0.27675
-0.039558567 0.12892915 0.27700001
-0.03451734 0.12823097 0.2755
-0.02950174 0.12741645 0.27375001
-0.02420903 0.12485648 0.26825002
-0.018909052 0.12101653 0.26000002
-0.013870562 0.11694385 0.25125
-0 0 0
-0 0 0
-0.00058356003 0.10274769 0.22075
0 0 0
0 0 0
0.012367471 0.11531479 0.24775001
0.016910592 0.11671113 0.25075001
0.022599611 0.12380921 0.266
0.027772581 0.12613647 0.27100003
0.033000752 0.12799825 0.27500001
0.037956528 0.1284637 0.27600002
0.042869814 0.12869643 0.27650002
0.047584921 0.12834734 0.27575001
0.050610486 0.12392558 0.26625001
0.05579444 0.1250892 0.26875001
0.061291136 0.12671828 0.27225003
0.067638412 0.12974368 0.27875
0.074343547 0.13300182 0.28575
0 0 0
0 0 0
0 0 0
0 0 0
0 0 0
0 0 0
0 0 0
0 0 0
0 0 0
0 0 0
0 0 0
0 0 0
0 0 0
0 0 0
0 0 0
0 0 0
0 0 0
0 0 0
0 0 0
0 0 0
0 0 0
0 0 0
0 0 0
0 0 0
-0 0 0
-0 0 0
-0 0 0
-0 0 0
-0 0 0
-0 0 0
-0 0 0
-0 0 0
-0 0 0
-0 0 0
-0 0 0
-0 0 0
-0 0 0
-0 0 0
-0 0 0
-0 0 0
-0 0 0
-0 0 0
-0 0 0
-0 0 0
-0 0 0
-0 0 0
-0 0 0
-0 0 0
-0 0 0
-0.075257055 0.13689388 0.28350002
-0.069422103 0.13520382 0.28
-0.062730536 0.13146159 0.27225003
-0.057321791 0.13001297 0.26925001
-0.051920481 0.12832293 0.26575002
-0.047886785 0.13001297 0.26925001
-0.044291604 0.13339306 0.27625
-0.03959427 0.13387595 0.27725002
-0.034548663 0.13315164 0.27575001
-0.029420912 0.13182373 0.273
-0.024299277 0.13001297 0.26925001
-0.018909052 0.12554643 0.26000002
-0.013898167 0.12156274 0.25175002
-0 0 0
-0 0 0
-0 0 0
0 0 0
0 0 0
0 0 0
0.016927453 0.12120058 0.25100002
0.022684574 0.12892652 0.26700002
0.027746961 0.13073727 0.27075002
0.032820754 0.13206518 0.27350003
0.037853383 0.13291021 0.27525002
0.042676009 0.13291021 0.27525002
0.047239788 0.13218589 0.27375001
0.050705526 0.1288058 0.26675001
0.056105852 0.13049585 0.27025002
0.061291136 0.13146159 0.27225003
0.068245031 0.13580742 0.28125
0.075254142 0.13967039 0.28925002
0 0 0
0 0 0
0 0 0
0 0 0
0 0 0
0 0 0
0 0 0
0 0 0
0 0 0
0 0 0
0 0 0
0 0 0
0 0 0
0 0 0
0 0 0
0 0 0
0 0 0
0 0 0
0 0 0
0 0 0
0 0 0
0 0 0
0 0 0
0 0 0
-0 0 0
-0 0 0
-0 0 0
-0 0 0
-0 0 0
-0 0 0
-0 0 0
-0 0 0
-0 0 0
-0 0 0
-0 0 0
-0 0 0
-0 0 0
-0 0 0
-0 0 0
-0 0 0
-0 0 0
-0 0 0
-0 0 0
-0 0 0
-0 0 0
-0 0 0
-0 0 0
-0 0 0
-0 0 0
-0 0 0
-0.0690502 0.13933174 0.27850002
-0.062730536 0.13620491 0.27225003
-0.057534687 0.13520433 0.27025002
-0.052213538 0.13370344 0.26725
-0.047175381 0.13270286 0.26525003
-0.044051107 0.13745564 0.27475002
-0.039344348 0.13783085 0.2755
-0.034392051 0.13733058 0.27450001
-0.029232318 0.13570462 0.27125001
-0.024366964 0.13507925 0.27000001
-0.019654505 0.13520433 0.27025002
-0.014091388 0.12769991 0.25525001
-0 0 0
-0 0 0
-0 0 0
0 0 0
0 0 0
0 0 0
0.017618714 0.13070169 0.26125002
0.023109378 0.13607983 0.27200001
0.027926303 0.13632998 0.27250001
0.032880753 0.13708043 0.27400002
0.03775024 0.13733058 0.27450001
0.042637244 0.13758071 0.27500001
0.046765238 0.13557956 0.27100003
0.050562963 0.13307807 0.266
0.056105852 0.13520433 0.27025002
0.061459977 0.13658012 0.273
0.068487689 0.14120784 0.28225002
0.07408338 0.14245857 0.28475001
0 0 0
0 0 0
0 0 0
0 0 0
0 0 0
0.24867478 0.3405748 0.68075001
0 0 0
0 0 0
0 0 0
0 0 0
0 0 0
0 0 0
0 0 0
0 0 0
0 0 0
0 0 0
0 0 0
0 0 0
0 0 0
0 0 0
0 0 0
0 0 0
0 0 0
0 0 0
